{
.appVersion = "116";
copyright = "© 2015-2023 Apple Inc. All rights reserved.";
date = "2016-04-09 04:02:43 +0000";
designer = "Apple Inc.";
designerURL = "http://www.apple.com/";
familyName = "SF Rail Time";
featurePrefixes = (
{
automatic = 1;
code = "languagesystem DFLT dflt;\012languagesystem arab dflt;\012languagesystem arab URD;\012";
name = Languagesystems;
}
);
features = (
{
automatic = 1;
code = "feature locl;\012";
name = aalt;
},
{
automatic = 1;
code = "script arab;\012language URD;\012sub four-persian by four-persian.urdu;\012sub six-persian by six-ar;\012sub seven-persian by seven-persian.urdu;\012";
name = locl;
}
);
fontMaster = (
{
ascender = 1950;
capHeight = 1443;
custom = Black;
descender = -494;
id = "48A8F86F-95FA-4C7F-AEB6-10C2B25A042A";
weightValue = 400;
widthValue = 5;
xHeight = 1054;
}
);
glyphs = (
{
glyphname = zero;
layers = (
{
layerId = "48A8F86F-95FA-4C7F-AEB6-10C2B25A042A";
paths = (
{
closed = 1;
nodes = (
"546 -28 LINE",
"546 16 LINE",
"552 16 LINE SMOOTH",
"712 16 OFFCURVE",
"839.333 76.5 OFFCURVE",
"934 197.5 CURVE SMOOTH",
"1028.667 318.5 OFFCURVE",
"1076 493.333 OFFCURVE",
"1076 722 CURVE SMOOTH",
"1076 950.667 OFFCURVE",
"1028.667 1125.333 OFFCURVE",
"934 1246 CURVE SMOOTH",
"839.333 1366.667 OFFCURVE",
"712 1427 OFFCURVE",
"552 1427 CURVE SMOOTH",
"546 1427 LINE",
"546 1471 LINE",
"552 1471 LINE SMOOTH",
"732 1471 OFFCURVE",
"873.333 1408 OFFCURVE",
"976 1282 CURVE SMOOTH",
"1078.667 1156 OFFCURVE",
"1130 969.333 OFFCURVE",
"1130 722 CURVE SMOOTH",
"1130 474.667 OFFCURVE",
"1078.667 287.833 OFFCURVE",
"976 161.5 CURVE SMOOTH",
"873.333 35.167 OFFCURVE",
"732 -28 OFFCURVE",
"552 -28 CURVE SMOOTH",
"546 -28 LINE"
);
},
{
closed = 1;
nodes = (
"414 75 OFFCURVE",
"304.167 129.667 OFFCURVE",
"222.5 239 CURVE SMOOTH",
"140.833 348.333 OFFCURVE",
"100 509.333 OFFCURVE",
"100 722 CURVE SMOOTH",
"100 934.667 OFFCURVE",
"140.833 1095.5 OFFCURVE",
"222.5 1204.5 CURVE SMOOTH",
"304.167 1313.5 OFFCURVE",
"414 1368 OFFCURVE",
"552 1368 CURVE SMOOTH",
"690 1368 OFFCURVE",
"800 1313.5 OFFCURVE",
"882 1204.5 CURVE SMOOTH",
"964 1095.5 OFFCURVE",
"1005 934.667 OFFCURVE",
"1005 722 CURVE SMOOTH",
"1005 509.333 OFFCURVE",
"964 348.333 OFFCURVE",
"882 239 CURVE SMOOTH",
"800 129.667 OFFCURVE",
"690 75 OFFCURVE",
"552 75 CURVE SMOOTH",
"552 75 LINE SMOOTH"
);
},
{
closed = 1;
nodes = (
"674 125 OFFCURVE",
"770.833 175.833 OFFCURVE",
"842.5 277.5 CURVE SMOOTH",
"914.167 379.167 OFFCURVE",
"950 527.333 OFFCURVE",
"950 722 CURVE SMOOTH",
"950 916.667 OFFCURVE",
"914.167 1064.667 OFFCURVE",
"842.5 1166 CURVE SMOOTH",
"770.833 1267.333 OFFCURVE",
"674 1318 OFFCURVE",
"552 1318 CURVE SMOOTH",
"430.667 1318 OFFCURVE",
"334.167 1267.333 OFFCURVE",
"262.5 1166 CURVE SMOOTH",
"190.833 1064.667 OFFCURVE",
"155 916.667 OFFCURVE",
"155 722 CURVE SMOOTH",
"155 527.333 OFFCURVE",
"190.833 379.167 OFFCURVE",
"262.5 277.5 CURVE SMOOTH",
"334.167 175.833 OFFCURVE",
"430.667 125 OFFCURVE",
"552 125 CURVE",
"552 125 LINE"
);
},
{
closed = 1;
nodes = (
"558 228 LINE",
"558 184 LINE",
"552 184 LINE SMOOTH",
"452.667 184 OFFCURVE",
"373.5 228.667 OFFCURVE",
"314.5 318 CURVE SMOOTH",
"255.5 407.333 OFFCURVE",
"226 542 OFFCURVE",
"226 722 CURVE SMOOTH",
"226 902 OFFCURVE",
"255.5 1036.5 OFFCURVE",
"314.5 1125.5 CURVE SMOOTH",
"373.5 1214.5 OFFCURVE",
"452.667 1259 OFFCURVE",
"552 1259 CURVE SMOOTH",
"558 1259 LINE",
"558 1215 LINE",
"552 1215 LINE SMOOTH",
"470 1215 OFFCURVE",
"404.333 1173 OFFCURVE",
"355 1089 CURVE SMOOTH",
"305.667 1005 OFFCURVE",
"281 882.667 OFFCURVE",
"281 722 CURVE SMOOTH",
"281 561.333 OFFCURVE",
"305.667 438.833 OFFCURVE",
"355 354.5 CURVE SMOOTH",
"404.333 270.167 OFFCURVE",
"470 228 OFFCURVE",
"552 228 CURVE SMOOTH",
"558 228 LINE"
);
}
);
width = 1230;
}
);
leftKerningGroup = zero;
note = zero;
unicode = 0030;
},
{
glyphname = one;
layers = (
{
layerId = "48A8F86F-95FA-4C7F-AEB6-10C2B25A042A";
paths = (
{
closed = 1;
nodes = (
"469 0 LINE",
"417 0 LINE",
"417 1443 LINE",
"469 1443 LINE",
"469 0 LINE"
);
},
{
closed = 1;
nodes = (
"543 1443 LINE",
"595 1443 LINE",
"595 0 LINE",
"543 0 LINE",
"543 1443 LINE"
);
},
{
closed = 1;
nodes = (
"349 1378 LINE",
"349 1320 LINE",
"29 1116 LINE",
"29 1174 LINE",
"349 1378 LINE"
);
},
{
closed = 1;
nodes = (
"29 1039 LINE",
"349 1243 LINE",
"349 1185 LINE",
"29 981 LINE",
"29 1039 LINE"
);
}
);
width = 740;
}
);
note = one;
unicode = 0031;
},
{
glyphname = two;
layers = (
{
layerId = "48A8F86F-95FA-4C7F-AEB6-10C2B25A042A";
paths = (
{
closed = 1;
nodes = (
"122 110 LINE",
"122 159 LINE",
"620 686 LINE SMOOTH",
"694 764 OFFCURVE",
"744.667 831.5 OFFCURVE",
"772 888.5 CURVE SMOOTH",
"799.333 945.5 OFFCURVE",
"813 1003.333 OFFCURVE",
"813 1062 CURVE SMOOTH",
"813 1138.667 OFFCURVE",
"783.333 1201.167 OFFCURVE",
"724 1249.5 CURVE SMOOTH",
"664.667 1297.833 OFFCURVE",
"587.333 1322 OFFCURVE",
"492 1322 CURVE SMOOTH",
"428 1322 OFFCURVE",
"371.167 1309 OFFCURVE",
"321.5 1283 CURVE SMOOTH",
"271.833 1257 OFFCURVE",
"232.667 1221.333 OFFCURVE",
"204 1176 CURVE SMOOTH",
"175.333 1130.667 OFFCURVE",
"161 1079 OFFCURVE",
"161 1021 CURVE SMOOTH",
"161 1009 LINE",
"107 1009 LINE",
"107 1021 LINE SMOOTH",
"107 1089 OFFCURVE",
"123.5 1149.333 OFFCURVE",
"156.5 1202 CURVE SMOOTH",
"189.5 1254.667 OFFCURVE",
"235 1296 OFFCURVE",
"293 1326 CURVE SMOOTH",
"351 1356 OFFCURVE",
"417.333 1371 OFFCURVE",
"492 1371 CURVE SMOOTH",
"566 1371 OFFCURVE",
"631.333 1357.833 OFFCURVE",
"688 1331.5 CURVE SMOOTH",
"744.667 1305.167 OFFCURVE",
"788.833 1268.833 OFFCURVE",
"820.5 1222.5 CURVE SMOOTH",
"852.167 1176.167 OFFCURVE",
"868 1122.667 OFFCURVE",
"868 1062 CURVE SMOOTH",
"868 997.333 OFFCURVE",
"852.5 933.667 OFFCURVE",
"821.5 871 CURVE SMOOTH",
"790.5 808.333 OFFCURVE",
"735 734.667 OFFCURVE",
"655 650 CURVE SMOOTH",
"191 159 LINE",
"1041 159 LINE",
"1041 110 LINE",
"122 110 LINE"
);
},
{
closed = 1;
nodes = (
"123 0 LINE",
"123 50 LINE",
"1041 50 LINE",
"1041 0 LINE",
"123 0 LINE"
);
},
{
closed = 1;
nodes = (
"233 1009 LINE",
"233 1022 LINE SMOOTH",
"233 1092 OFFCURVE",
"257.667 1149.5 OFFCURVE",
"307 1194.5 CURVE SMOOTH",
"356.333 1239.5 OFFCURVE",
"418 1262 OFFCURVE",
"492 1262 CURVE SMOOTH",
"498 1262 LINE",
"498 1218 LINE",
"492 1218 LINE SMOOTH",
"436 1218 OFFCURVE",
"387.833 1199 OFFCURVE",
"347.5 1161 CURVE SMOOTH",
"307.167 1123 OFFCURVE",
"287 1076.667 OFFCURVE",
"287 1022 CURVE SMOOTH",
"287 1009 LINE",
"233 1009 LINE"
);
},
{
closed = 1;
nodes = (
"333 215 LINE",
"718 620 LINE SMOOTH",
"774.667 679.333 OFFCURVE",
"819 732.833 OFFCURVE",
"851 780.5 CURVE SMOOTH",
"883 828.167 OFFCURVE",
"905.667 874.333 OFFCURVE",
"919 919 CURVE SMOOTH",
"932.333 963.667 OFFCURVE",
"939 1011.333 OFFCURVE",
"939 1062 CURVE SMOOTH",
"939 1133.333 OFFCURVE",
"920.167 1196.833 OFFCURVE",
"882.5 1252.5 CURVE SMOOTH",
"844.833 1308.167 OFFCURVE",
"792.5 1351.833 OFFCURVE",
"725.5 1383.5 CURVE SMOOTH",
"658.5 1415.167 OFFCURVE",
"580.667 1431 OFFCURVE",
"492 1431 CURVE SMOOTH",
"485 1431 LINE",
"485 1475 LINE",
"492 1475 LINE SMOOTH",
"593.333 1475 OFFCURVE",
"681.667 1457.667 OFFCURVE",
"757 1423 CURVE SMOOTH",
"832.333 1388.333 OFFCURVE",
"890.667 1340.167 OFFCURVE",
"932 1278.5 CURVE SMOOTH",
"973.333 1216.833 OFFCURVE",
"994 1144.667 OFFCURVE",
"994 1062 CURVE SMOOTH",
"994 1006.667 OFFCURVE",
"987 954.5 OFFCURVE",
"973 905.5 CURVE SMOOTH",
"959 856.5 OFFCURVE",
"935 806.333 OFFCURVE",
"901 755 CURVE SMOOTH",
"867 703.667 OFFCURVE",
"819.333 646.667 OFFCURVE",
"758 584 CURVE SMOOTH",
"400 215 LINE",
"333 215 LINE"
);
}
);
width = 1117;
}
);
note = two;
unicode = 0032;
},
{
glyphname = three;
layers = (
{
layerId = "48A8F86F-95FA-4C7F-AEB6-10C2B25A042A";
paths = (
{
closed = 1;
nodes = (
"524 -28 LINE",
"524 16 LINE",
"530 16 LINE SMOOTH",
"624.667 16 OFFCURVE",
"708.333 32.833 OFFCURVE",
"781 66.5 CURVE SMOOTH",
"853.667 100.167 OFFCURVE",
"910.667 146.5 OFFCURVE",
"952 205.5 CURVE SMOOTH",
"993.333 264.5 OFFCURVE",
"1014 332.333 OFFCURVE",
"1014 409 CURVE SMOOTH",
"1014 498.333 OFFCURVE",
"987.833 574.833 OFFCURVE",
"935.5 638.5 CURVE SMOOTH",
"883.167 702.167 OFFCURVE",
"816 739.333 OFFCURVE",
"734 750 CURVE",
"734 766 LINE",
"806.667 787.333 OFFCURVE",
"863.5 825.333 OFFCURVE",
"904.5 880 CURVE SMOOTH",
"945.5 934.667 OFFCURVE",
"966 999.667 OFFCURVE",
"966 1075 CURVE SMOOTH",
"966 1145 OFFCURVE",
"947.333 1206.5 OFFCURVE",
"910 1259.5 CURVE SMOOTH",
"872.667 1312.5 OFFCURVE",
"820.5 1353.667 OFFCURVE",
"753.5 1383 CURVE SMOOTH",
"686.5 1412.333 OFFCURVE",
"608.333 1427 OFFCURVE",
"519 1427 CURVE SMOOTH",
"513 1427 LINE",
"513 1471 LINE",
"519 1471 LINE SMOOTH",
"673 1471 OFFCURVE",
"795.667 1435.167 OFFCURVE",
"887 1363.5 CURVE SMOOTH",
"978.333 1291.833 OFFCURVE",
"1024 1195.667 OFFCURVE",
"1024 1075 CURVE SMOOTH",
"1024 997 OFFCURVE",
"1003.333 928.833 OFFCURVE",
"962 870.5 CURVE SMOOTH",
"920.667 812.167 OFFCURVE",
"862.333 769.667 OFFCURVE",
"787 743 CURVE",
"786 781 LINE",
"876 763 OFFCURVE",
"946.167 721.333 OFFCURVE",
"996.5 656 CURVE SMOOTH",
"1046.833 590.667 OFFCURVE",
"1072 508.333 OFFCURVE",
"1072 409 CURVE SMOOTH",
"1072 321.667 OFFCURVE",
"1049.5 245.167 OFFCURVE",
"1004.5 179.5 CURVE SMOOTH",
"959.5 113.833 OFFCURVE",
"896.333 62.833 OFFCURVE",
"815 26.5 CURVE SMOOTH",
"733.667 -9.833 OFFCURVE",
"638.667 -28 OFFCURVE",
"530 -28 CURVE SMOOTH",
"524 -28 LINE"
);
},
{
closed = 1;
nodes = (
"122.667 1114.333 OFFCURVE",
"141.167 1169.833 OFFCURVE",
"175.5 1217.5 CURVE SMOOTH",
"209.833 1265.167 OFFCURVE",
"256.667 1302.5 OFFCURVE",
"316 1329.5 CURVE SMOOTH",
"375.333 1356.5 OFFCURVE",
"443 1370 OFFCURVE",
"519 1370 CURVE SMOOTH",
"627.667 1370 OFFCURVE",
"715.833 1342.667 OFFCURVE",
"783.5 1288 CURVE SMOOTH",
"851.167 1233.333 OFFCURVE",
"885 1162.333 OFFCURVE",
"885 1075 CURVE SMOOTH",
"885 986.333 OFFCURVE",
"853.667 915.833 OFFCURVE",
"791 863.5 CURVE SMOOTH",
"728.333 811.167 OFFCURVE",
"644 785 OFFCURVE",
"538 785 CURVE SMOOTH",
"429 785 LINE",
"429 834 LINE",
"538 834 LINE SMOOTH",
"624.667 834 OFFCURVE",
"694.667 856.167 OFFCURVE",
"748 900.5 CURVE SMOOTH",
"801.333 944.833 OFFCURVE",
"828 1003 OFFCURVE",
"828 1075 CURVE SMOOTH",
"828 1148.333 OFFCURVE",
"799.333 1207.5 OFFCURVE",
"742 1252.5 CURVE SMOOTH",
"684.667 1297.5 OFFCURVE",
"610.333 1320 OFFCURVE",
"519 1320 CURVE SMOOTH",
"418.333 1320 OFFCURVE",
"336.667 1295.667 OFFCURVE",
"274 1247 CURVE SMOOTH",
"211.333 1198.333 OFFCURVE",
"178.333 1133 OFFCURVE",
"175 1051 CURVE",
"120 1051 LINE",
"120 1051 LINE"
);
},
{
closed = 1;
nodes = (
"299 1051 LINE",
"245 1051 LINE",
"249 1114.333 OFFCURVE",
"276.167 1165.167 OFFCURVE",
"326.5 1203.5 CURVE SMOOTH",
"376.833 1241.833 OFFCURVE",
"441 1261 OFFCURVE",
"519 1261 CURVE SMOOTH",
"526 1261 LINE",
"526 1217 LINE",
"519 1217 LINE SMOOTH",
"460.333 1217 OFFCURVE",
"409.833 1201 OFFCURVE",
"367.5 1169 CURVE SMOOTH",
"325.167 1137 OFFCURVE",
"302.333 1097.667 OFFCURVE",
"299 1051 CURVE"
);
},
{
closed = 1;
nodes = (
"273.667 355.667 OFFCURVE",
"300.167 312.167 OFFCURVE",
"348.5 278.5 CURVE SMOOTH",
"396.833 244.833 OFFCURVE",
"457.333 228 OFFCURVE",
"530 228 CURVE SMOOTH",
"536 228 LINE",
"536 184 LINE",
"530 184 LINE SMOOTH",
"439.333 184 OFFCURVE",
"365.333 204.333 OFFCURVE",
"308 245 CURVE SMOOTH",
"250.667 285.667 OFFCURVE",
"219.667 340.333 OFFCURVE",
"215 409 CURVE",
"269 409 LINE",
"269 409 LINE"
);
},
{
closed = 1;
nodes = (
"148 322.333 OFFCURVE",
"184.667 253.333 OFFCURVE",
"254 202 CURVE SMOOTH",
"323.333 150.667 OFFCURVE",
"415.333 125 OFFCURVE",
"530 125 CURVE SMOOTH",
"632.667 125 OFFCURVE",
"716 151.167 OFFCURVE",
"780 203.5 CURVE SMOOTH",
"844 255.833 OFFCURVE",
"876 324.333 OFFCURVE",
"876 409 CURVE SMOOTH",
"876 490.333 OFFCURVE",
"846 554.333 OFFCURVE",
"786 601 CURVE SMOOTH",
"726 647.667 OFFCURVE",
"643.333 671 OFFCURVE",
"538 671 CURVE SMOOTH",
"429 671 LINE",
"429 720 LINE",
"538 720 LINE SMOOTH",
"661.333 720 OFFCURVE",
"758 692.5 OFFCURVE",
"828 637.5 CURVE SMOOTH",
"898 582.5 OFFCURVE",
"933 506.333 OFFCURVE",
"933 409 CURVE SMOOTH",
"933 343 OFFCURVE",
"916.167 285 OFFCURVE",
"882.5 235 CURVE SMOOTH",
"848.833 185 OFFCURVE",
"801.667 145.833 OFFCURVE",
"741 117.5 CURVE SMOOTH",
"680.333 89.167 OFFCURVE",
"610 75 OFFCURVE",
"530 75 CURVE SMOOTH",
"399.333 75 OFFCURVE",
"294.167 105.167 OFFCURVE",
"214.5 165.5 CURVE SMOOTH",
"134.833 225.833 OFFCURVE",
"93.333 307 OFFCURVE",
"90 409 CURVE",
"144 409 LINE",
"144 409 LINE"
);
}
);
width = 1162;
}
);
note = three;
rightKerningGroup = three;
unicode = 0033;
},
{
glyphname = four;
layers = (
{
layerId = "48A8F86F-95FA-4C7F-AEB6-10C2B25A042A";
paths = (
{
closed = 1;
nodes = (
"50 398 LINE",
"50 447 LINE",
"112.667 551 OFFCURVE",
"180.167 659.833 OFFCURVE",
"252.5 773.5 CURVE SMOOTH",
"324.833 887.167 OFFCURVE",
"398.333 1000.833 OFFCURVE",
"473 1114.5 CURVE SMOOTH",
"547.667 1228.167 OFFCURVE",
"620.333 1336.333 OFFCURVE",
"691 1439 CURVE",
"691 1341 LINE",
"565.667 1159 OFFCURVE",
"455.667 995.167 OFFCURVE",
"361 849.5 CURVE SMOOTH",
"266.333 703.833 OFFCURVE",
"182.333 569.667 OFFCURVE",
"109 447 CURVE",
"711 447 LINE",
"711 398 LINE",
"50 398 LINE"
);
},
{
closed = 1;
nodes = (
"263 552.333 OFFCURVE",
"302.333 618.5 OFFCURVE",
"351 697.5 CURVE SMOOTH",
"399.667 776.5 OFFCURVE",
"453.667 861.5 OFFCURVE",
"513 952.5 CURVE SMOOTH",
"572.333 1043.5 OFFCURVE",
"633 1133.667 OFFCURVE",
"695 1223 CURVE",
"695 1136 LINE",
"685 1124 OFFCURVE",
"666.833 1098.333 OFFCURVE",
"640.5 1059 CURVE SMOOTH",
"614.167 1019.667 OFFCURVE",
"583.667 973.167 OFFCURVE",
"549 919.5 CURVE SMOOTH",
"514.333 865.833 OFFCURVE",
"479.333 811.167 OFFCURVE",
"444 755.5 CURVE SMOOTH",
"408.667 699.833 OFFCURVE",
"377 649 OFFCURVE",
"349 603 CURVE SMOOTH",
"321 557 OFFCURVE",
"300.667 522.333 OFFCURVE",
"288 499 CURVE",
"233 499 LINE",
"233 499 LINE"
);
},
{
closed = 1;
nodes = (
"50 275 LINE",
"50 324 LINE",
"711 324 LINE",
"711 275 LINE",
"50 275 LINE"
);
},
{
closed = 1;
nodes = (
"763 0 LINE",
"763 1443 LINE",
"815 1443 LINE",
"815 0 LINE",
"763 0 LINE"
);
},
{
closed = 1;
nodes = (
"889 398 LINE",
"889 1443 LINE",
"941 1443 LINE",
"941 447 LINE",
"1121 447 LINE",
"1121 398 LINE",
"889 398 LINE"
);
},
{
closed = 1;
nodes = (
"889 0 LINE",
"889 324 LINE",
"1121 324 LINE",
"1121 275 LINE",
"941 275 LINE",
"941 0 LINE",
"889 0 LINE"
);
}
);
width = 1161;
}
);
note = four;
unicode = 0034;
},
{
glyphname = five;
layers = (
{
layerId = "48A8F86F-95FA-4C7F-AEB6-10C2B25A042A";
paths = (
{
closed = 1;
nodes = (
"456.667 75 OFFCURVE",
"386 89.167 OFFCURVE",
"324 117.5 CURVE SMOOTH",
"262 145.833 OFFCURVE",
"212.5 185 OFFCURVE",
"175.5 235 CURVE SMOOTH",
"138.5 285 OFFCURVE",
"118.333 342.667 OFFCURVE",
"115 408 CURVE",
"170 408 LINE",
"177.333 323.333 OFFCURVE",
"214.5 255 OFFCURVE",
"281.5 203 CURVE SMOOTH",
"348.5 151 OFFCURVE",
"433.333 125 OFFCURVE",
"536 125 CURVE SMOOTH",
"605.333 125 OFFCURVE",
"666.667 139.667 OFFCURVE",
"720 169 CURVE SMOOTH",
"773.333 198.333 OFFCURVE",
"815.167 238.833 OFFCURVE",
"845.5 290.5 CURVE SMOOTH",
"875.833 342.167 OFFCURVE",
"891 401.333 OFFCURVE",
"891 468 CURVE SMOOTH",
"891 534.667 OFFCURVE",
"876.833 593.333 OFFCURVE",
"848.5 644 CURVE SMOOTH",
"820.167 694.667 OFFCURVE",
"781.333 734.333 OFFCURVE",
"732 763 CURVE SMOOTH",
"682.667 791.667 OFFCURVE",
"625.667 806 OFFCURVE",
"561 806 CURVE SMOOTH",
"435.667 806 OFFCURVE",
"345 748.333 OFFCURVE",
"289 633 CURVE",
"242 633 LINE",
"319 1443 LINE",
"999 1443 LINE",
"999 1394 LINE",
"370 1394 LINE",
"307 738 LINE",
"333 776 OFFCURVE",
"368.5 805.833 OFFCURVE",
"413.5 827.5 CURVE SMOOTH",
"458.5 849.167 OFFCURVE",
"507.667 860 OFFCURVE",
"561 860 CURVE SMOOTH",
"635.667 860 OFFCURVE",
"701.833 843.167 OFFCURVE",
"759.5 809.5 CURVE SMOOTH",
"817.167 775.833 OFFCURVE",
"862.5 729.667 OFFCURVE",
"895.5 671 CURVE SMOOTH",
"928.5 612.333 OFFCURVE",
"945 544.667 OFFCURVE",
"945 468 CURVE SMOOTH",
"945 392 OFFCURVE",
"927.5 324.333 OFFCURVE",
"892.5 265 CURVE SMOOTH",
"857.5 205.667 OFFCURVE",
"809.333 159.167 OFFCURVE",
"748 125.5 CURVE SMOOTH",
"686.667 91.833 OFFCURVE",
"616 75 OFFCURVE",
"536 75 CURVE SMOOTH",
"536 75 LINE SMOOTH"
);
},
{
closed = 1;
nodes = (
"453.333 184 OFFCURVE",
"384 204.667 OFFCURVE",
"330 246 CURVE SMOOTH",
"276 287.333 OFFCURVE",
"246.333 341.333 OFFCURVE",
"241 408 CURVE",
"296 408 LINE",
"302 354 OFFCURVE",
"327.167 310.5 OFFCURVE",
"371.5 277.5 CURVE SMOOTH",
"415.833 244.5 OFFCURVE",
"471.333 228 OFFCURVE",
"538 228 CURVE SMOOTH",
"544 228 LINE",
"544 184 LINE",
"538 184 LINE",
"538 184 LINE SMOOTH"
);
},
{
closed = 1;
nodes = (
"118 633 LINE",
"195 1443 LINE",
"249 1443 LINE",
"172 633 LINE",
"118 633 LINE"
);
},
{
closed = 1;
nodes = (
"529 -28 LINE",
"529 16 LINE",
"536 16 LINE SMOOTH",
"632 16 OFFCURVE",
"716.5 35.333 OFFCURVE",
"789.5 74 CURVE SMOOTH",
"862.5 112.667 OFFCURVE",
"919.5 166.5 OFFCURVE",
"960.5 235.5 CURVE SMOOTH",
"1001.5 304.5 OFFCURVE",
"1022 384 OFFCURVE",
"1022 474 CURVE SMOOTH",
"1022 566 OFFCURVE",
"1003.167 646 OFFCURVE",
"965.5 714 CURVE SMOOTH",
"927.833 782 OFFCURVE",
"874.333 834.5 OFFCURVE",
"805 871.5 CURVE SMOOTH",
"735.667 908.5 OFFCURVE",
"654 927 OFFCURVE",
"560 927 CURVE SMOOTH",
"536 927 LINE",
"536 970 LINE",
"540.667 970.667 OFFCURVE",
"545.667 971 OFFCURVE",
"551 971 CURVE SMOOTH",
"556.333 971 OFFCURVE",
"561.333 971 OFFCURVE",
"566 971 CURVE SMOOTH",
"670.667 971 OFFCURVE",
"761 950.833 OFFCURVE",
"837 910.5 CURVE SMOOTH",
"913 870.167 OFFCURVE",
"971.833 812.833 OFFCURVE",
"1013.5 738.5 CURVE SMOOTH",
"1055.167 664.167 OFFCURVE",
"1076 576 OFFCURVE",
"1076 474 CURVE SMOOTH",
"1076 373.333 OFFCURVE",
"1053.5 285.333 OFFCURVE",
"1008.5 210 CURVE SMOOTH",
"963.5 134.667 OFFCURVE",
"900.667 76.167 OFFCURVE",
"820 34.5 CURVE SMOOTH",
"739.333 -7.167 OFFCURVE",
"644.667 -28 OFFCURVE",
"536 -28 CURVE SMOOTH",
"529 -28 LINE"
);
},
{
closed = 1;
nodes = (
"425 1285 LINE",
"429 1334 LINE",
"999 1334 LINE",
"999 1285 LINE",
"425 1285 LINE"
);
}
);
width = 1154;
}
);
note = five;
unicode = 0035;
},
{
glyphname = six;
layers = (
{
layerId = "48A8F86F-95FA-4C7F-AEB6-10C2B25A042A";
paths = (
{
closed = 1;
nodes = (
"478.667 82 OFFCURVE",
"410.5 98.667 OFFCURVE",
"349.5 132 CURVE SMOOTH",
"288.5 165.333 OFFCURVE",
"240.167 210.833 OFFCURVE",
"204.5 268.5 CURVE SMOOTH",
"168.833 326.167 OFFCURVE",
"151 390.667 OFFCURVE",
"151 462 CURVE SMOOTH",
"151 538.667 OFFCURVE",
"168.833 607.667 OFFCURVE",
"204.5 669 CURVE SMOOTH",
"240.167 730.333 OFFCURVE",
"288.5 778.833 OFFCURVE",
"349.5 814.5 CURVE SMOOTH",
"410.5 850.167 OFFCURVE",
"478.667 868 OFFCURVE",
"554 868 CURVE SMOOTH",
"636 868 OFFCURVE",
"708.333 850.667 OFFCURVE",
"771 816 CURVE SMOOTH",
"833.667 781.333 OFFCURVE",
"882.833 733.5 OFFCURVE",
"918.5 672.5 CURVE SMOOTH",
"954.167 611.5 OFFCURVE",
"972 541.333 OFFCURVE",
"972 462 CURVE SMOOTH",
"972 388 OFFCURVE",
"954.167 322.333 OFFCURVE",
"918.5 265 CURVE SMOOTH",
"882.833 207.667 OFFCURVE",
"833.667 162.833 OFFCURVE",
"771 130.5 CURVE SMOOTH",
"708.333 98.167 OFFCURVE",
"636 82 OFFCURVE",
"554 82 CURVE SMOOTH",
"554 82 LINE SMOOTH"
);
},
{
closed = 1;
nodes = (
"469.667 191 OFFCURVE",
"400 216.833 OFFCURVE",
"346 268.5 CURVE SMOOTH",
"292 320.167 OFFCURVE",
"265 383.333 OFFCURVE",
"265 458 CURVE SMOOTH",
"265 514.667 OFFCURVE",
"277.333 565.667 OFFCURVE",
"302 611 CURVE SMOOTH",
"326.667 656.333 OFFCURVE",
"360.833 692.333 OFFCURVE",
"404.5 719 CURVE SMOOTH",
"448.167 745.667 OFFCURVE",
"498.333 759 OFFCURVE",
"555 759 CURVE SMOOTH",
"562 759 LINE",
"562 715 LINE",
"555 715 LINE SMOOTH",
"486.333 715 OFFCURVE",
"429.833 690.5 OFFCURVE",
"385.5 641.5 CURVE SMOOTH",
"341.167 592.5 OFFCURVE",
"319 531.333 OFFCURVE",
"319 458 CURVE SMOOTH",
"319 394 OFFCURVE",
"341.167 340.667 OFFCURVE",
"385.5 298 CURVE SMOOTH",
"429.833 255.333 OFFCURVE",
"486.333 234 OFFCURVE",
"555 234 CURVE SMOOTH",
"562 234 LINE",
"562 191 LINE",
"555 191 LINE",
"555 191 LINE SMOOTH"
);
},
{
closed = 1;
nodes = (
"625.333 131 OFFCURVE",
"688.333 145 OFFCURVE",
"743 173 CURVE SMOOTH",
"797.667 201 OFFCURVE",
"840.5 240 OFFCURVE",
"871.5 290 CURVE SMOOTH",
"902.5 340 OFFCURVE",
"918 397.333 OFFCURVE",
"918 462 CURVE SMOOTH",
"918 532 OFFCURVE",
"902.5 593.833 OFFCURVE",
"871.5 647.5 CURVE SMOOTH",
"840.5 701.167 OFFCURVE",
"797.667 743 OFFCURVE",
"743 773 CURVE SMOOTH",
"688.333 803 OFFCURVE",
"625.333 818 OFFCURVE",
"554 818 CURVE SMOOTH",
"488 818 OFFCURVE",
"428.667 802.5 OFFCURVE",
"376 771.5 CURVE SMOOTH",
"323.333 740.5 OFFCURVE",
"281.667 698.167 OFFCURVE",
"251 644.5 CURVE SMOOTH",
"220.333 590.833 OFFCURVE",
"205 530 OFFCURVE",
"205 462 CURVE SMOOTH",
"205 399.333 OFFCURVE",
"220.333 343 OFFCURVE",
"251 293 CURVE SMOOTH",
"281.667 243 OFFCURVE",
"323.333 203.5 OFFCURVE",
"376 174.5 CURVE SMOOTH",
"428.667 145.5 OFFCURVE",
"488 131 OFFCURVE",
"554 131 CURVE",
"554 131 LINE"
);
},
{
closed = 1;
nodes = (
"548 -22 LINE",
"548 22 LINE",
"554 22 LINE SMOOTH",
"650 22 OFFCURVE",
"734.667 40.667 OFFCURVE",
"808 78 CURVE SMOOTH",
"881.333 115.333 OFFCURVE",
"938.667 167 OFFCURVE",
"980 233 CURVE SMOOTH",
"1021.333 299 OFFCURVE",
"1042 375.333 OFFCURVE",
"1042 462 CURVE SMOOTH",
"1042 554 OFFCURVE",
"1021.333 634.833 OFFCURVE",
"980 704.5 CURVE SMOOTH",
"938.667 774.167 OFFCURVE",
"881.333 828.667 OFFCURVE",
"808 868 CURVE SMOOTH",
"734.667 907.333 OFFCURVE",
"650 927 OFFCURVE",
"554 927 CURVE SMOOTH",
"548 927 LINE",
"548 971 LINE",
"554 971 LINE SMOOTH",
"663.333 971 OFFCURVE",
"758.667 949.833 OFFCURVE",
"840 907.5 CURVE SMOOTH",
"921.333 865.167 OFFCURVE",
"984.5 806 OFFCURVE",
"1029.5 730 CURVE SMOOTH",
"1074.5 654 OFFCURVE",
"1097 564.667 OFFCURVE",
"1097 462 CURVE SMOOTH",
"1097 364.667 OFFCURVE",
"1074.5 279.667 OFFCURVE",
"1029.5 207 CURVE SMOOTH",
"984.5 134.333 OFFCURVE",
"921.333 78 OFFCURVE",
"840 38 CURVE SMOOTH",
"758.667 -2 OFFCURVE",
"663.333 -22 OFFCURVE",
"554 -22 CURVE SMOOTH",
"548 -22 LINE"
);
},
{
closed = 1;
nodes = (
"205 860 OFFCURVE",
"220.333 944 OFFCURVE",
"249 1018 CURVE SMOOTH",
"277.667 1092 OFFCURVE",
"318 1150.333 OFFCURVE",
"370 1193 CURVE SMOOTH",
"422 1235.667 OFFCURVE",
"483.333 1257 OFFCURVE",
"554 1257 CURVE SMOOTH",
"561 1257 LINE",
"561 1213 LINE",
"554 1213 LINE SMOOTH",
"495.333 1213 OFFCURVE",
"443.833 1195.333 OFFCURVE",
"399.5 1160 CURVE SMOOTH",
"355.167 1124.667 OFFCURVE",
"319.833 1076.5 OFFCURVE",
"293.5 1015.5 CURVE SMOOTH",
"267.167 954.5 OFFCURVE",
"251.667 885.333 OFFCURVE",
"247 808 CURVE",
"203 766 LINE",
"203 766 LINE"
);
},
{
closed = 1;
nodes = (
"100 598 LINE",
"100 697 LINE SMOOTH",
"100 834.333 OFFCURVE",
"118.5 953 OFFCURVE",
"155.5 1053 CURVE SMOOTH",
"192.5 1153 OFFCURVE",
"245 1230.167 OFFCURVE",
"313 1284.5 CURVE SMOOTH",
"381 1338.833 OFFCURVE",
"461.333 1366 OFFCURVE",
"554 1366 CURVE SMOOTH",
"617.333 1366 OFFCURVE",
"676.333 1353.5 OFFCURVE",
"731 1328.5 CURVE SMOOTH",
"785.667 1303.5 OFFCURVE",
"830.667 1270.167 OFFCURVE",
"866 1228.5 CURVE SMOOTH",
"901.333 1186.833 OFFCURVE",
"922 1140.333 OFFCURVE",
"928 1089 CURVE",
"874 1089 LINE",
"868.667 1132.333 OFFCURVE",
"850.833 1171.167 OFFCURVE",
"820.5 1205.5 CURVE SMOOTH",
"790.167 1239.833 OFFCURVE",
"751.833 1266.833 OFFCURVE",
"705.5 1286.5 CURVE SMOOTH",
"659.167 1306.167 OFFCURVE",
"608.667 1316 OFFCURVE",
"554 1316 CURVE SMOOTH",
"427.333 1316 OFFCURVE",
"327.333 1259.833 OFFCURVE",
"254 1147.5 CURVE SMOOTH",
"180.667 1035.167 OFFCURVE",
"142.333 879.333 OFFCURVE",
"139 680 CURVE",
"100 598 LINE"
);
},
{
closed = 1;
nodes = (
"995.333 1153 OFFCURVE",
"972.5 1210.333 OFFCURVE",
"931.5 1261 CURVE SMOOTH",
"890.5 1311.667 OFFCURVE",
"837.167 1351.667 OFFCURVE",
"771.5 1381 CURVE SMOOTH",
"705.833 1410.333 OFFCURVE",
"633.333 1425 OFFCURVE",
"554 1425 CURVE SMOOTH",
"548 1425 LINE",
"548 1469 LINE",
"554 1469 LINE SMOOTH",
"646 1469 OFFCURVE",
"728.667 1452.667 OFFCURVE",
"802 1420 CURVE SMOOTH",
"875.333 1387.333 OFFCURVE",
"934.333 1342.5 OFFCURVE",
"979 1285.5 CURVE SMOOTH",
"1023.667 1228.5 OFFCURVE",
"1048.667 1163 OFFCURVE",
"1054 1089 CURVE",
"1000 1089 LINE",
"1000 1089 LINE"
);
}
);
width = 1187;
}
);
leftKerningGroup = zero;
note = six;
unicode = 0036;
},
{
glyphname = seven;
layers = (
{
layerId = "48A8F86F-95FA-4C7F-AEB6-10C2B25A042A";
paths = (
{
closed = 1;
nodes = (
"207 0 LINE",
"917 1394 LINE",
"65 1394 LINE",
"65 1443 LINE",
"968 1443 LINE",
"968 1394 LINE",
"269 0 LINE",
"207 0 LINE"
);
},
{
closed = 1;
nodes = (
"347 0 LINE",
"968 1247 LINE",
"968 1139 LINE",
"408 0 LINE",
"347 0 LINE"
);
},
{
closed = 1;
nodes = (
"65 1279 LINE",
"65 1328 LINE",
"807 1328 LINE",
"781 1279 LINE",
"65 1279 LINE"
);
}
);
width = 1033;
}
);
note = seven;
unicode = 0037;
},
{
glyphname = eight;
layers = (
{
layerId = "48A8F86F-95FA-4C7F-AEB6-10C2B25A042A";
paths = (
{
closed = 1;
nodes = (
"507 -28 LINE",
"507 16 LINE",
"514 16 LINE SMOOTH",
"611.333 16 OFFCURVE",
"698 32.667 OFFCURVE",
"774 66 CURVE SMOOTH",
"850 99.333 OFFCURVE",
"909.833 145 OFFCURVE",
"953.5 203 CURVE SMOOTH",
"997.167 261 OFFCURVE",
"1019 327 OFFCURVE",
"1019 401 CURVE SMOOTH",
"1019 457 OFFCURVE",
"1006 508.333 OFFCURVE",
"980 555 CURVE SMOOTH",
"954 601.667 OFFCURVE",
"919.5 640.5 OFFCURVE",
"876.5 671.5 CURVE SMOOTH",
"833.5 702.5 OFFCURVE",
"786 722 OFFCURVE",
"734 730 CURVE",
"734 760 LINE",
"802.667 776.667 OFFCURVE",
"859.333 813 OFFCURVE",
"904 869 CURVE SMOOTH",
"948.667 925 OFFCURVE",
"971 989.667 OFFCURVE",
"971 1063 CURVE SMOOTH",
"971 1135.667 OFFCURVE",
"951.333 1200.167 OFFCURVE",
"912 1256.5 CURVE SMOOTH",
"872.667 1312.833 OFFCURVE",
"818.667 1357.333 OFFCURVE",
"750 1390 CURVE SMOOTH",
"681.333 1422.667 OFFCURVE",
"602.667 1439 OFFCURVE",
"514 1439 CURVE SMOOTH",
"507 1439 LINE",
"507 1472 LINE",
"514 1472 LINE SMOOTH",
"616 1472 OFFCURVE",
"705.333 1455 OFFCURVE",
"782 1421 CURVE SMOOTH",
"858.667 1387 OFFCURVE",
"918.333 1339.333 OFFCURVE",
"961 1278 CURVE SMOOTH",
"1003.667 1216.667 OFFCURVE",
"1025 1145 OFFCURVE",
"1025 1063 CURVE SMOOTH",
"1025 996.333 OFFCURVE",
"1004.333 932.167 OFFCURVE",
"963 870.5 CURVE SMOOTH",
"921.667 808.833 OFFCURVE",
"861.667 763.333 OFFCURVE",
"783 734 CURVE",
"782 758 LINE",
"876.667 736.667 OFFCURVE",
"948.833 691.667 OFFCURVE",
"998.5 623 CURVE SMOOTH",
"1048.167 554.333 OFFCURVE",
"1073 480.333 OFFCURVE",
"1073 401 CURVE SMOOTH",
"1073 316.333 OFFCURVE",
"1049.5 241.667 OFFCURVE",
"1002.5 177 CURVE SMOOTH",
"955.5 112.333 OFFCURVE",
"890 62 OFFCURVE",
"806 26 CURVE SMOOTH",
"722 -10 OFFCURVE",
"624.667 -28 OFFCURVE",
"514 -28 CURVE SMOOTH",
"507 -28 LINE"
);
},
{
closed = 1;
nodes = (
"895 1001.667 OFFCURVE",
"878.833 947.333 OFFCURVE",
"846.5 900 CURVE SMOOTH",
"814.167 852.667 OFFCURVE",
"769.333 815.667 OFFCURVE",
"712 789 CURVE SMOOTH",
"654.667 762.333 OFFCURVE",
"588.667 749 OFFCURVE",
"514 749 CURVE SMOOTH",
"438.667 749 OFFCURVE",
"372.167 762.333 OFFCURVE",
"314.5 789 CURVE SMOOTH",
"256.833 815.667 OFFCURVE",
"211.667 852.667 OFFCURVE",
"179 900 CURVE SMOOTH",
"146.333 947.333 OFFCURVE",
"130 1001.667 OFFCURVE",
"130 1063 CURVE SMOOTH",
"130 1125.667 OFFCURVE",
"146.333 1180.667 OFFCURVE",
"179 1228 CURVE SMOOTH",
"211.667 1275.333 OFFCURVE",
"256.833 1312.333 OFFCURVE",
"314.5 1339 CURVE SMOOTH",
"372.167 1365.667 OFFCURVE",
"438.667 1379 OFFCURVE",
"514 1379 CURVE SMOOTH",
"588.667 1379 OFFCURVE",
"654.667 1365.667 OFFCURVE",
"712 1339 CURVE SMOOTH",
"769.333 1312.333 OFFCURVE",
"814.167 1275.167 OFFCURVE",
"846.5 1227.5 CURVE SMOOTH",
"878.833 1179.833 OFFCURVE",
"895 1125 OFFCURVE",
"895 1063 CURVE",
"895 1063 LINE"
);
},
{
closed = 1;
nodes = (
"185 982.333 OFFCURVE",
"215.333 917.167 OFFCURVE",
"276 867.5 CURVE SMOOTH",
"336.667 817.833 OFFCURVE",
"416 793 OFFCURVE",
"514 793 CURVE SMOOTH",
"611.333 793 OFFCURVE",
"690.5 818 OFFCURVE",
"751.5 868 CURVE SMOOTH",
"812.5 918 OFFCURVE",
"843 983 OFFCURVE",
"843 1063 CURVE SMOOTH",
"843 1113.667 OFFCURVE",
"828.833 1159 OFFCURVE",
"800.5 1199 CURVE SMOOTH",
"772.167 1239 OFFCURVE",
"733.167 1270.5 OFFCURVE",
"683.5 1293.5 CURVE SMOOTH",
"633.833 1316.5 OFFCURVE",
"577.333 1328 OFFCURVE",
"514 1328 CURVE SMOOTH",
"417.333 1328 OFFCURVE",
"338.333 1303.333 OFFCURVE",
"277 1254 CURVE SMOOTH",
"215.667 1204.667 OFFCURVE",
"185 1141 OFFCURVE",
"185 1063 CURVE",
"185 1063 LINE"
);
},
{
closed = 1;
nodes = (
"315 1015 OFFCURVE",
"333.833 975.167 OFFCURVE",
"371.5 943.5 CURVE SMOOTH",
"409.167 911.833 OFFCURVE",
"456.667 896 OFFCURVE",
"514 896 CURVE SMOOTH",
"520 896 LINE",
"520 852 LINE",
"514 852 LINE SMOOTH",
"438.667 852 OFFCURVE",
"377.5 871.5 OFFCURVE",
"330.5 910.5 CURVE SMOOTH",
"283.5 949.5 OFFCURVE",
"260 1000.333 OFFCURVE",
"260 1063 CURVE SMOOTH",
"260 1123.667 OFFCURVE",
"283.5 1173 OFFCURVE",
"330.5 1211 CURVE SMOOTH",
"377.5 1249 OFFCURVE",
"438.667 1268 OFFCURVE",
"514 1268 CURVE SMOOTH",
"520 1268 LINE",
"520 1224 LINE",
"514 1224 LINE SMOOTH",
"456.667 1224 OFFCURVE",
"409.167 1208.5 OFFCURVE",
"371.5 1177.5 CURVE SMOOTH",
"333.833 1146.5 OFFCURVE",
"315 1108.333 OFFCURVE",
"315 1063 CURVE",
"315 1063 LINE"
);
},
{
closed = 1;
nodes = (
"943 344.333 OFFCURVE",
"924.667 286.833 OFFCURVE",
"888 236.5 CURVE SMOOTH",
"851.333 186.167 OFFCURVE",
"800.667 146.667 OFFCURVE",
"736 118 CURVE SMOOTH",
"671.333 89.333 OFFCURVE",
"597.333 75 OFFCURVE",
"514 75 CURVE SMOOTH",
"387.333 75 OFFCURVE",
"286.667 104.5 OFFCURVE",
"212 163.5 CURVE SMOOTH",
"137.333 222.5 OFFCURVE",
"100 302 OFFCURVE",
"100 402 CURVE SMOOTH",
"100 499.333 OFFCURVE",
"136.833 575.833 OFFCURVE",
"210.5 631.5 CURVE SMOOTH",
"284.167 687.167 OFFCURVE",
"385.333 715 OFFCURVE",
"514 715 CURVE SMOOTH",
"652 715 OFFCURVE",
"758 688.667 OFFCURVE",
"832 636 CURVE SMOOTH",
"906 583.333 OFFCURVE",
"943 507.667 OFFCURVE",
"943 409 CURVE",
"943 409 LINE"
);
},
{
closed = 1;
nodes = (
"154 318 OFFCURVE",
"186.833 250.833 OFFCURVE",
"252.5 200.5 CURVE SMOOTH",
"318.167 150.167 OFFCURVE",
"405.333 125 OFFCURVE",
"514 125 CURVE SMOOTH",
"586.667 125 OFFCURVE",
"651.167 137.167 OFFCURVE",
"707.5 161.5 CURVE SMOOTH",
"763.833 185.833 OFFCURVE",
"808.167 219.5 OFFCURVE",
"840.5 262.5 CURVE SMOOTH",
"872.833 305.5 OFFCURVE",
"889 354.333 OFFCURVE",
"889 409 CURVE SMOOTH",
"889 490.333 OFFCURVE",
"855.833 554.333 OFFCURVE",
"789.5 601 CURVE SMOOTH",
"723.167 647.667 OFFCURVE",
"631.333 671 OFFCURVE",
"514 671 CURVE SMOOTH",
"405.333 671 OFFCURVE",
"318.167 646.5 OFFCURVE",
"252.5 597.5 CURVE SMOOTH",
"186.833 548.5 OFFCURVE",
"154 483.333 OFFCURVE",
"154 402 CURVE",
"154 402 LINE"
);
},
{
closed = 1;
nodes = (
"284 349 OFFCURVE",
"305.333 308 OFFCURVE",
"348 276 CURVE SMOOTH",
"390.667 244 OFFCURVE",
"446 228 OFFCURVE",
"514 228 CURVE SMOOTH",
"520 228 LINE",
"520 184 LINE",
"514 184 LINE SMOOTH",
"426 184 OFFCURVE",
"356.667 203.333 OFFCURVE",
"306 242 CURVE SMOOTH",
"255.333 280.667 OFFCURVE",
"230 333 OFFCURVE",
"230 399 CURVE SMOOTH",
"230 464.333 OFFCURVE",
"255.333 516 OFFCURVE",
"306 554 CURVE SMOOTH",
"356.667 592 OFFCURVE",
"426 611 OFFCURVE",
"514 611 CURVE SMOOTH",
"520 611 LINE",
"520 567 LINE",
"514 567 LINE SMOOTH",
"446 567 OFFCURVE",
"390.667 551.333 OFFCURVE",
"348 520 CURVE SMOOTH",
"305.333 488.667 OFFCURVE",
"284 448.333 OFFCURVE",
"284 399 CURVE",
"284 399 LINE"
);
}
);
width = 1173;
}
);
note = eight;
rightKerningGroup = three;
unicode = 0038;
},
{
glyphname = nine;
layers = (
{
layerId = "48A8F86F-95FA-4C7F-AEB6-10C2B25A042A";
paths = (
{
closed = 1;
nodes = (
"375.333 77 OFFCURVE",
"284.5 102.833 OFFCURVE",
"215.5 154.5 CURVE SMOOTH",
"146.5 206.167 OFFCURVE",
"107 278.333 OFFCURVE",
"97 371 CURVE",
"151 371 LINE",
"162.333 292.333 OFFCURVE",
"197.167 231.833 OFFCURVE",
"255.5 189.5 CURVE SMOOTH",
"313.833 147.167 OFFCURVE",
"391.333 126 OFFCURVE",
"488 126 CURVE SMOOTH",
"619.333 126 OFFCURVE",
"721 181 OFFCURVE",
"793 291 CURVE SMOOTH",
"865 401 OFFCURVE",
"901 556 OFFCURVE",
"901 756 CURVE SMOOTH",
"901 796 OFFCURVE",
"899 835.333 OFFCURVE",
"895 874 CURVE",
"881 810.667 OFFCURVE",
"855 756.667 OFFCURVE",
"817 712 CURVE SMOOTH",
"779 667.333 OFFCURVE",
"732.333 633.167 OFFCURVE",
"677 609.5 CURVE SMOOTH",
"621.667 585.833 OFFCURVE",
"560.333 574 OFFCURVE",
"493 574 CURVE SMOOTH",
"417.667 574 OFFCURVE",
"349.5 592 OFFCURVE",
"288.5 628 CURVE SMOOTH",
"227.5 664 OFFCURVE",
"179.167 712.833 OFFCURVE",
"143.5 774.5 CURVE SMOOTH",
"107.833 836.167 OFFCURVE",
"90 905.333 OFFCURVE",
"90 982 CURVE SMOOTH",
"90 1054.667 OFFCURVE",
"107.833 1120 OFFCURVE",
"143.5 1178 CURVE SMOOTH",
"179.167 1236 OFFCURVE",
"227.5 1282 OFFCURVE",
"288.5 1316 CURVE SMOOTH",
"349.5 1350 OFFCURVE",
"417.667 1367 OFFCURVE",
"493 1367 CURVE SMOOTH",
"595 1367 OFFCURVE",
"680.167 1338.833 OFFCURVE",
"748.5 1282.5 CURVE SMOOTH",
"816.833 1226.167 OFFCURVE",
"868.333 1151.667 OFFCURVE",
"903 1059 CURVE SMOOTH",
"937.667 966.333 OFFCURVE",
"955 865.333 OFFCURVE",
"955 756 CURVE SMOOTH",
"955 542.667 OFFCURVE",
"913.833 376.167 OFFCURVE",
"831.5 256.5 CURVE SMOOTH",
"749.167 136.833 OFFCURVE",
"634.667 77 OFFCURVE",
"488 77 CURVE SMOOTH",
"488 77 LINE SMOOTH"
);
},
{
closed = 1;
nodes = (
"419.333 185 OFFCURVE",
"359.5 202.833 OFFCURVE",
"308.5 238.5 CURVE SMOOTH",
"257.5 274.167 OFFCURVE",
"229 318.333 OFFCURVE",
"223 371 CURVE",
"277 371 LINE",
"283.667 332.333 OFFCURVE",
"307.667 299.167 OFFCURVE",
"349 271.5 CURVE SMOOTH",
"390.333 243.833 OFFCURVE",
"436.667 230 OFFCURVE",
"488 230 CURVE SMOOTH",
"494 230 LINE",
"494 185 LINE",
"488 185 LINE",
"488 185 LINE SMOOTH"
);
},
{
closed = 1;
nodes = (
"488 476 LINE",
"488 520 LINE",
"574 520 OFFCURVE",
"648.333 534 OFFCURVE",
"711 562 CURVE SMOOTH",
"773.667 590 OFFCURVE",
"821.333 630.667 OFFCURVE",
"854 684 CURVE",
"848 628 LINE",
"822 584 OFFCURVE",
"776.333 547.667 OFFCURVE",
"711 519 CURVE SMOOTH",
"645.667 490.333 OFFCURVE",
"576.333 476 OFFCURVE",
"503 476 CURVE SMOOTH",
"488 476 LINE"
);
},
{
closed = 1;
nodes = (
"438.667 683 OFFCURVE",
"389 696 OFFCURVE",
"345 722 CURVE SMOOTH",
"301 748 OFFCURVE",
"266.5 783.833 OFFCURVE",
"241.5 829.5 CURVE SMOOTH",
"216.5 875.167 OFFCURVE",
"204 927 OFFCURVE",
"204 985 CURVE SMOOTH",
"204 1064.333 OFFCURVE",
"231.167 1129.667 OFFCURVE",
"285.5 1181 CURVE SMOOTH",
"339.833 1232.333 OFFCURVE",
"409.333 1258 OFFCURVE",
"494 1258 CURVE SMOOTH",
"500 1258 LINE",
"500 1214 LINE",
"494 1214 LINE SMOOTH",
"427.333 1214 OFFCURVE",
"371.167 1192 OFFCURVE",
"325.5 1148 CURVE SMOOTH",
"279.833 1104 OFFCURVE",
"257 1049.667 OFFCURVE",
"257 985 CURVE SMOOTH",
"257 912.333 OFFCURVE",
"279.833 851.167 OFFCURVE",
"325.5 801.5 CURVE SMOOTH",
"371.167 751.833 OFFCURVE",
"427.333 727 OFFCURVE",
"494 727 CURVE SMOOTH",
"500 727 LINE",
"500 683 LINE",
"494 683 LINE",
"494 683 LINE SMOOTH"
);
},
{
closed = 1;
nodes = (
"563 624 OFFCURVE",
"625.333 638.667 OFFCURVE",
"680 668 CURVE SMOOTH",
"734.667 697.333 OFFCURVE",
"777.833 737.5 OFFCURVE",
"809.5 788.5 CURVE SMOOTH",
"841.167 839.5 OFFCURVE",
"857 897 OFFCURVE",
"857 961 CURVE SMOOTH",
"857 1027.667 OFFCURVE",
"840.833 1087.833 OFFCURVE",
"808.5 1141.5 CURVE SMOOTH",
"776.167 1195.167 OFFCURVE",
"732.5 1237.833 OFFCURVE",
"677.5 1269.5 CURVE SMOOTH",
"622.5 1301.167 OFFCURVE",
"561 1317 OFFCURVE",
"493 1317 CURVE SMOOTH",
"427 1317 OFFCURVE",
"367.667 1302.333 OFFCURVE",
"315 1273 CURVE SMOOTH",
"262.333 1243.667 OFFCURVE",
"220.667 1203.667 OFFCURVE",
"190 1153 CURVE SMOOTH",
"159.333 1102.333 OFFCURVE",
"144 1045.333 OFFCURVE",
"144 982 CURVE SMOOTH",
"144 914.667 OFFCURVE",
"159.333 853.833 OFFCURVE",
"190 799.5 CURVE SMOOTH",
"220.667 745.167 OFFCURVE",
"262.333 702.333 OFFCURVE",
"315 671 CURVE SMOOTH",
"367.667 639.667 OFFCURVE",
"427 624 OFFCURVE",
"493 624 CURVE",
"493 624 LINE"
);
},
{
closed = 1;
nodes = (
"482 -27 LINE",
"482 17 LINE",
"488 17 LINE SMOOTH",
"601.333 17 OFFCURVE",
"698.667 46.333 OFFCURVE",
"780 105 CURVE SMOOTH",
"861.333 163.667 OFFCURVE",
"923.833 248.167 OFFCURVE",
"967.5 358.5 CURVE SMOOTH",
"1011.167 468.833 OFFCURVE",
"1033 601.333 OFFCURVE",
"1033 756 CURVE SMOOTH",
"1033 892.667 OFFCURVE",
"1010.833 1011.167 OFFCURVE",
"966.5 1111.5 CURVE SMOOTH",
"922.167 1211.833 OFFCURVE",
"859.667 1289.333 OFFCURVE",
"779 1344 CURVE SMOOTH",
"698.333 1398.667 OFFCURVE",
"603 1426 OFFCURVE",
"493 1426 CURVE SMOOTH",
"487 1426 LINE",
"487 1470 LINE",
"493 1470 LINE SMOOTH",
"681 1470 OFFCURVE",
"827 1407.667 OFFCURVE",
"931 1283 CURVE SMOOTH",
"1035 1158.333 OFFCURVE",
"1087 982.667 OFFCURVE",
"1087 756 CURVE SMOOTH",
"1087 506.667 OFFCURVE",
"1034.667 313.833 OFFCURVE",
"930 177.5 CURVE SMOOTH",
"825.333 41.167 OFFCURVE",
"678 -27 OFFCURVE",
"488 -27 CURVE SMOOTH",
"482 -27 LINE"
);
}
);
width = 1187;
}
);
note = nine;
unicode = 0039;
},
{
glyphname = "zero-deva";
layers = (
{
layerId = "48A8F86F-95FA-4C7F-AEB6-10C2B25A042A";
paths = (
{
closed = 1;
nodes = (
"383.667 292 OFFCURVE",
"313.5 309.333 OFFCURVE",
"252.5 344 CURVE SMOOTH",
"191.5 378.667 OFFCURVE",
"143.833 426.167 OFFCURVE",
"109.5 486.5 CURVE SMOOTH",
"75.167 546.833 OFFCURVE",
"58 614.667 OFFCURVE",
"58 690 CURVE SMOOTH",
"58 761.333 OFFCURVE",
"74.333 827 OFFCURVE",
"107 887 CURVE SMOOTH",
"139.667 947 OFFCURVE",
"186.333 995.167 OFFCURVE",
"247 1031.5 CURVE SMOOTH",
"307.667 1067.833 OFFCURVE",
"379.667 1086 OFFCURVE",
"463 1086 CURVE SMOOTH",
"535.667 1086 OFFCURVE",
"602.333 1070.833 OFFCURVE",
"663 1040.5 CURVE SMOOTH",
"723.667 1010.167 OFFCURVE",
"772.333 965.667 OFFCURVE",
"809 907 CURVE SMOOTH",
"845.667 848.333 OFFCURVE",
"864 776 OFFCURVE",
"864 690 CURVE SMOOTH",
"864 603.333 OFFCURVE",
"845.5 530.5 OFFCURVE",
"808.5 471.5 CURVE SMOOTH",
"771.5 412.5 OFFCURVE",
"722.667 367.833 OFFCURVE",
"662 337.5 CURVE SMOOTH",
"601.333 307.167 OFFCURVE",
"535 292 OFFCURVE",
"463 292 CURVE SMOOTH",
"463 292 LINE SMOOTH"
);
},
{
closed = 1;
nodes = (
"400.333 400 OFFCURVE",
"348.167 413.5 OFFCURVE",
"306.5 440.5 CURVE SMOOTH",
"264.833 467.5 OFFCURVE",
"233.667 503 OFFCURVE",
"213 547 CURVE SMOOTH",
"192.333 591 OFFCURVE",
"182 638.667 OFFCURVE",
"182 690 CURVE SMOOTH",
"182 741.333 OFFCURVE",
"192.333 788.833 OFFCURVE",
"213 832.5 CURVE SMOOTH",
"233.667 876.167 OFFCURVE",
"264.833 911.333 OFFCURVE",
"306.5 938 CURVE SMOOTH",
"348.167 964.667 OFFCURVE",
"400.333 978 OFFCURVE",
"463 978 CURVE SMOOTH",
"469 978 LINE",
"469 934 LINE",
"463 934 LINE SMOOTH",
"386.333 934 OFFCURVE",
"329.333 909.667 OFFCURVE",
"292 861 CURVE SMOOTH",
"254.667 812.333 OFFCURVE",
"236 755.333 OFFCURVE",
"236 690 CURVE SMOOTH",
"236 625.333 OFFCURVE",
"254.667 568.167 OFFCURVE",
"292 518.5 CURVE SMOOTH",
"329.333 468.833 OFFCURVE",
"386.333 444 OFFCURVE",
"463 444 CURVE SMOOTH",
"469 444 LINE",
"469 400 LINE",
"463 400 LINE",
"463 400 LINE SMOOTH"
);
},
{
closed = 1;
nodes = (
"526.333 342 OFFCURVE",
"584.333 355.833 OFFCURVE",
"637 383.5 CURVE SMOOTH",
"689.667 411.167 OFFCURVE",
"731.667 451 OFFCURVE",
"763 503 CURVE SMOOTH",
"794.333 555 OFFCURVE",
"810 617.333 OFFCURVE",
"810 690 CURVE SMOOTH",
"810 764 OFFCURVE",
"793.833 826.667 OFFCURVE",
"761.5 878 CURVE SMOOTH",
"729.167 929.333 OFFCURVE",
"686.667 968.5 OFFCURVE",
"634 995.5 CURVE SMOOTH",
"581.333 1022.5 OFFCURVE",
"524.333 1036 OFFCURVE",
"463 1036 CURVE SMOOTH",
"395.667 1036 OFFCURVE",
"335.5 1020.5 OFFCURVE",
"282.5 989.5 CURVE SMOOTH",
"229.5 958.5 OFFCURVE",
"187.833 917 OFFCURVE",
"157.5 865 CURVE SMOOTH",
"127.167 813 OFFCURVE",
"112 754.667 OFFCURVE",
"112 690 CURVE SMOOTH",
"112 629.333 OFFCURVE",
"126.333 572.5 OFFCURVE",
"155 519.5 CURVE SMOOTH",
"183.667 466.5 OFFCURVE",
"224.333 423.667 OFFCURVE",
"277 391 CURVE SMOOTH",
"329.667 358.333 OFFCURVE",
"391.667 342 OFFCURVE",
"463 342 CURVE",
"463 342 LINE"
);
},
{
closed = 1;
nodes = (
"459 190 LINE",
"459 234 LINE",
"465 234 LINE SMOOTH",
"561.667 234 OFFCURVE",
"645 253.667 OFFCURVE",
"715 293 CURVE SMOOTH",
"785 332.333 OFFCURVE",
"839 386.5 OFFCURVE",
"877 455.5 CURVE SMOOTH",
"915 524.5 OFFCURVE",
"934 602.667 OFFCURVE",
"934 690 CURVE SMOOTH",
"934 777.333 OFFCURVE",
"915 855.167 OFFCURVE",
"877 923.5 CURVE SMOOTH",
"839 991.833 OFFCURVE",
"784.833 1045.667 OFFCURVE",
"714.5 1085 CURVE SMOOTH",
"644.167 1124.333 OFFCURVE",
"560.333 1144 OFFCURVE",
"463 1144 CURVE SMOOTH",
"457 1144 LINE",
"457 1188 LINE",
"463 1188 LINE SMOOTH",
"573 1188 OFFCURVE",
"667.167 1167 OFFCURVE",
"745.5 1125 CURVE SMOOTH",
"823.833 1083 OFFCURVE",
"883.833 1024.667 OFFCURVE",
"925.5 950 CURVE SMOOTH",
"967.167 875.333 OFFCURVE",
"988 788.667 OFFCURVE",
"988 690 CURVE SMOOTH",
"988 591.333 OFFCURVE",
"967.167 504.333 OFFCURVE",
"925.5 429 CURVE SMOOTH",
"883.833 353.667 OFFCURVE",
"824 295 OFFCURVE",
"746 253 CURVE SMOOTH",
"668 211 OFFCURVE",
"574.333 190 OFFCURVE",
"465 190 CURVE SMOOTH",
"459 190 LINE"
);
}
);
width = 1046;
}
);
note = "zero-deva";
unicode = 0966;
},
{
glyphname = "one-deva";
layers = (
{
layerId = "48A8F86F-95FA-4C7F-AEB6-10C2B25A042A";
paths = (
{
closed = 1;
nodes = (
"485 -28 LINE",
"111 387 LINE",
"111 441 LINE",
"269 455 OFFCURVE",
"404 486.333 OFFCURVE",
"516 535 CURVE SMOOTH",
"628 583.667 OFFCURVE",
"713.667 648.5 OFFCURVE",
"773 729.5 CURVE SMOOTH",
"832.333 810.5 OFFCURVE",
"862 905.667 OFFCURVE",
"862 1015 CURVE SMOOTH",
"862 1101.667 OFFCURVE",
"843.667 1175.667 OFFCURVE",
"807 1237 CURVE SMOOTH",
"770.333 1298.333 OFFCURVE",
"719.667 1345.333 OFFCURVE",
"655 1378 CURVE SMOOTH",
"590.333 1410.667 OFFCURVE",
"515.333 1427 OFFCURVE",
"430 1427 CURVE SMOOTH",
"424 1427 LINE",
"424 1471 LINE",
"430 1471 LINE SMOOTH",
"522.667 1471 OFFCURVE",
"605.667 1452.833 OFFCURVE",
"679 1416.5 CURVE SMOOTH",
"752.333 1380.167 OFFCURVE",
"810.167 1328 OFFCURVE",
"852.5 1260 CURVE SMOOTH",
"894.833 1192 OFFCURVE",
"916 1110 OFFCURVE",
"916 1014 CURVE SMOOTH",
"916 902.667 OFFCURVE",
"886.167 803.333 OFFCURVE",
"826.5 716 CURVE SMOOTH",
"766.833 628.667 OFFCURVE",
"680.667 557.167 OFFCURVE",
"568 501.5 CURVE SMOOTH",
"455.333 445.833 OFFCURVE",
"319.333 409.333 OFFCURVE",
"160 392 CURVE",
"160 405 LINE",
"549 -28 LINE",
"485 -28 LINE"
);
},
{
closed = 1;
nodes = (
"636 -28 LINE",
"293 340 LINE",
"347 351 LINE",
"700 -28 LINE",
"636 -28 LINE"
);
},
{
closed = 1;
nodes = (
"111 507 LINE",
"111 561 LINE",
"238.333 575 OFFCURVE",
"343.167 596.833 OFFCURVE",
"425.5 626.5 CURVE SMOOTH",
"507.833 656.167 OFFCURVE",
"572.333 691.667 OFFCURVE",
"619 733 CURVE SMOOTH",
"665.667 774.333 OFFCURVE",
"698.5 819.667 OFFCURVE",
"717.5 869 CURVE SMOOTH",
"736.5 918.333 OFFCURVE",
"746 969.667 OFFCURVE",
"746 1023 CURVE",
"792 1023 LINE",
"792 964.333 OFFCURVE",
"781.5 907.333 OFFCURVE",
"760.5 852 CURVE SMOOTH",
"739.5 796.667 OFFCURVE",
"703.667 745.667 OFFCURVE",
"653 699 CURVE SMOOTH",
"602.333 652.333 OFFCURVE",
"533 612.333 OFFCURVE",
"445 579 CURVE SMOOTH",
"357 545.667 OFFCURVE",
"245.667 521.667 OFFCURVE",
"111 507 CURVE"
);
},
{
closed = 1;
nodes = (
"365 707 OFFCURVE",
"304.667 721.5 OFFCURVE",
"252 750.5 CURVE SMOOTH",
"199.333 779.5 OFFCURVE",
"158.167 819 OFFCURVE",
"128.5 869 CURVE SMOOTH",
"98.833 919 OFFCURVE",
"84 975.333 OFFCURVE",
"84 1038 CURVE SMOOTH",
"84 1101.333 OFFCURVE",
"98.833 1157.833 OFFCURVE",
"128.5 1207.5 CURVE SMOOTH",
"158.167 1257.167 OFFCURVE",
"199.167 1296.5 OFFCURVE",
"251.5 1325.5 CURVE SMOOTH",
"303.833 1354.5 OFFCURVE",
"363.333 1369 OFFCURVE",
"430 1369 CURVE SMOOTH",
"500.667 1369 OFFCURVE",
"563.167 1354.333 OFFCURVE",
"617.5 1325 CURVE SMOOTH",
"671.833 1295.667 OFFCURVE",
"714.5 1255 OFFCURVE",
"745.5 1203 CURVE SMOOTH",
"776.5 1151 OFFCURVE",
"792 1091 OFFCURVE",
"792 1023 CURVE",
"780 1023 LINE",
"780 963.667 OFFCURVE",
"765.167 910.167 OFFCURVE",
"735.5 862.5 CURVE SMOOTH",
"705.833 814.833 OFFCURVE",
"665 777 OFFCURVE",
"613 749 CURVE SMOOTH",
"561 721 OFFCURVE",
"501 707 OFFCURVE",
"433 707 CURVE SMOOTH",
"433 707 LINE SMOOTH"
);
},
{
closed = 1;
nodes = (
"517.333 757 OFFCURVE",
"589.667 781.167 OFFCURVE",
"649 829.5 CURVE SMOOTH",
"708.333 877.833 OFFCURVE",
"738 946 OFFCURVE",
"738 1034 CURVE SMOOTH",
"738 1113.333 OFFCURVE",
"710.5 1180.667 OFFCURVE",
"655.5 1236 CURVE SMOOTH",
"600.5 1291.333 OFFCURVE",
"525.333 1319 OFFCURVE",
"430 1319 CURVE SMOOTH",
"344 1319 OFFCURVE",
"273.833 1292.667 OFFCURVE",
"219.5 1240 CURVE SMOOTH",
"165.167 1187.333 OFFCURVE",
"138 1120 OFFCURVE",
"138 1038 CURVE SMOOTH",
"138 956.667 OFFCURVE",
"164.833 889.5 OFFCURVE",
"218.5 836.5 CURVE SMOOTH",
"272.167 783.5 OFFCURVE",
"343.333 757 OFFCURVE",
"432 757 CURVE",
"432 757 LINE"
);
},
{
closed = 1;
nodes = (
"363.333 815 OFFCURVE",
"309.667 835.333 OFFCURVE",
"269 876 CURVE SMOOTH",
"228.333 916.667 OFFCURVE",
"208 970.667 OFFCURVE",
"208 1038 CURVE SMOOTH",
"208 1105.333 OFFCURVE",
"228.333 1159.333 OFFCURVE",
"269 1200 CURVE SMOOTH",
"309.667 1240.667 OFFCURVE",
"363.333 1261 OFFCURVE",
"430 1261 CURVE SMOOTH",
"436 1261 LINE",
"436 1217 LINE",
"430 1217 LINE SMOOTH",
"378.667 1217 OFFCURVE",
"337.833 1201 OFFCURVE",
"307.5 1169 CURVE SMOOTH",
"277.167 1137 OFFCURVE",
"262 1093.333 OFFCURVE",
"262 1038 CURVE SMOOTH",
"262 983.333 OFFCURVE",
"277.167 939.833 OFFCURVE",
"307.5 907.5 CURVE SMOOTH",
"337.833 875.167 OFFCURVE",
"378.667 859 OFFCURVE",
"430 859 CURVE SMOOTH",
"436 859 LINE",
"436 815 LINE",
"430 815 LINE",
"430 815 LINE SMOOTH"
);
}
);
width = 986;
}
);
note = "one-deva";
rightKerningGroup = "one-deva";
unicode = 0967;
},
{
glyphname = "two-deva";
layers = (
{
layerId = "48A8F86F-95FA-4C7F-AEB6-10C2B25A042A";
paths = (
{
closed = 1;
nodes = (
"459.333 552 OFFCURVE",
"401.833 566 OFFCURVE",
"359.5 594 CURVE SMOOTH",
"317.167 622 OFFCURVE",
"279 660 OFFCURVE",
"245 708 CURVE",
"285 708 LINE",
"308.333 678.667 OFFCURVE",
"340.167 653.333 OFFCURVE",
"380.5 632 CURVE SMOOTH",
"420.833 610.667 OFFCURVE",
"471.333 600 OFFCURVE",
"532 600 CURVE SMOOTH",
"633.333 600 OFFCURVE",
"710.667 632.667 OFFCURVE",
"764 698 CURVE SMOOTH",
"817.333 763.333 OFFCURVE",
"844 847.333 OFFCURVE",
"844 950 CURVE SMOOTH",
"844 1058.667 OFFCURVE",
"810.5 1147.333 OFFCURVE",
"743.5 1216 CURVE SMOOTH",
"676.5 1284.667 OFFCURVE",
"586 1319 OFFCURVE",
"472 1319 CURVE SMOOTH",
"377.333 1319 OFFCURVE",
"299.833 1294.667 OFFCURVE",
"239.5 1246 CURVE SMOOTH",
"179.167 1197.333 OFFCURVE",
"144 1135.333 OFFCURVE",
"134 1060 CURVE",
"80 1060 LINE",
"90.667 1149.333 OFFCURVE",
"131 1223.167 OFFCURVE",
"201 1281.5 CURVE SMOOTH",
"271 1339.833 OFFCURVE",
"361.333 1369 OFFCURVE",
"472 1369 CURVE SMOOTH",
"558.667 1369 OFFCURVE",
"633.833 1351 OFFCURVE",
"697.5 1315 CURVE SMOOTH",
"761.167 1279 OFFCURVE",
"810.5 1229.5 OFFCURVE",
"845.5 1166.5 CURVE SMOOTH",
"880.5 1103.5 OFFCURVE",
"898 1031.333 OFFCURVE",
"898 950 CURVE SMOOTH",
"898 833.333 OFFCURVE",
"866.333 737.833 OFFCURVE",
"803 663.5 CURVE SMOOTH",
"739.667 589.167 OFFCURVE",
"649.333 552 OFFCURVE",
"532 552 CURVE SMOOTH",
"532 552 LINE SMOOTH"
);
},
{
closed = 1;
nodes = (
"535 -28 LINE",
"83 708 LINE",
"141 708 LINE",
"593 -28 LINE",
"535 -28 LINE"
);
},
{
closed = 1;
nodes = (
"680 -28 LINE",
"227 708 LINE",
"285 708 LINE",
"738 -28 LINE",
"680 -28 LINE"
);
},
{
closed = 1;
nodes = (
"217 1118.667 OFFCURVE",
"245.667 1166.833 OFFCURVE",
"293 1204.5 CURVE SMOOTH",
"340.333 1242.167 OFFCURVE",
"400 1261 OFFCURVE",
"472 1261 CURVE SMOOTH",
"478 1261 LINE",
"478 1217 LINE",
"472 1217 LINE SMOOTH",
"417.333 1217 OFFCURVE",
"370.833 1201.833 OFFCURVE",
"332.5 1171.5 CURVE SMOOTH",
"294.167 1141.167 OFFCURVE",
"270.333 1104 OFFCURVE",
"261 1060 CURVE",
"207 1060 LINE",
"207 1060 LINE"
);
},
{
closed = 1;
nodes = (
"547.333 450 OFFCURVE",
"543 450.167 OFFCURVE",
"539 450.5 CURVE SMOOTH",
"535 450.833 OFFCURVE",
"530.667 451.333 OFFCURVE",
"526 452 CURVE",
"498 497 LINE",
"506.667 496.333 OFFCURVE",
"515.167 495.667 OFFCURVE",
"523.5 495 CURVE SMOOTH",
"531.833 494.333 OFFCURVE",
"541.333 494 OFFCURVE",
"552 494 CURVE SMOOTH",
"632 494 OFFCURVE",
"703.5 512.833 OFFCURVE",
"766.5 550.5 CURVE SMOOTH",
"829.5 588.167 OFFCURVE",
"879.167 641.167 OFFCURVE",
"915.5 709.5 CURVE SMOOTH",
"951.833 777.833 OFFCURVE",
"970 858 OFFCURVE",
"970 950 CURVE SMOOTH",
"970 1042.667 OFFCURVE",
"949.5 1124.833 OFFCURVE",
"908.5 1196.5 CURVE SMOOTH",
"867.5 1268.167 OFFCURVE",
"809.833 1324.5 OFFCURVE",
"735.5 1365.5 CURVE SMOOTH",
"661.167 1406.5 OFFCURVE",
"573.333 1427 OFFCURVE",
"472 1427 CURVE SMOOTH",
"465 1427 LINE",
"465 1471 LINE",
"472 1471 LINE SMOOTH",
"586 1471 OFFCURVE",
"684.333 1449.333 OFFCURVE",
"767 1406 CURVE SMOOTH",
"849.667 1362.667 OFFCURVE",
"913.167 1301.833 OFFCURVE",
"957.5 1223.5 CURVE SMOOTH",
"1001.833 1145.167 OFFCURVE",
"1024 1054 OFFCURVE",
"1024 950 CURVE SMOOTH",
"1024 850 OFFCURVE",
"1004 762.5 OFFCURVE",
"964 687.5 CURVE SMOOTH",
"924 612.5 OFFCURVE",
"868.5 554.167 OFFCURVE",
"797.5 512.5 CURVE SMOOTH",
"726.5 470.833 OFFCURVE",
"644.667 450 OFFCURVE",
"552 450 CURVE SMOOTH",
"552 450 LINE SMOOTH"
);
}
);
width = 1099;
}
);
note = "two-deva";
rightKerningGroup = "one-deva";
unicode = 0968;
},
{
glyphname = "three-deva";
layers = (
{
layerId = "48A8F86F-95FA-4C7F-AEB6-10C2B25A042A";
paths = (
{
closed = 1;
nodes = (
"500 180 LINE",
"471 225 LINE",
"477 224.333 OFFCURVE",
"483 224 OFFCURVE",
"489 224 CURVE SMOOTH",
"495 224 OFFCURVE",
"501 224 OFFCURVE",
"507 224 CURVE SMOOTH",
"619 224 OFFCURVE",
"710.167 251.167 OFFCURVE",
"780.5 305.5 CURVE SMOOTH",
"850.833 359.833 OFFCURVE",
"886 432 OFFCURVE",
"886 522 CURVE SMOOTH",
"886 570.667 OFFCURVE",
"875.167 615.333 OFFCURVE",
"853.5 656 CURVE SMOOTH",
"831.833 696.667 OFFCURVE",
"801.833 730.333 OFFCURVE",
"763.5 757 CURVE SMOOTH",
"725.167 783.667 OFFCURVE",
"681 800 OFFCURVE",
"631 806 CURVE",
"631 822 LINE",
"703.667 843.333 OFFCURVE",
"760.5 878.833 OFFCURVE",
"801.5 928.5 CURVE SMOOTH",
"842.5 978.167 OFFCURVE",
"863 1037.333 OFFCURVE",
"863 1106 CURVE SMOOTH",
"863 1170 OFFCURVE",
"845.167 1226.167 OFFCURVE",
"809.5 1274.5 CURVE SMOOTH",
"773.833 1322.833 OFFCURVE",
"724 1360.333 OFFCURVE",
"660 1387 CURVE SMOOTH",
"596 1413.667 OFFCURVE",
"521.333 1427 OFFCURVE",
"436 1427 CURVE SMOOTH",
"430 1427 LINE",
"430 1471 LINE",
"436 1471 LINE SMOOTH",
"583.333 1471 OFFCURVE",
"700.333 1438 OFFCURVE",
"787 1372 CURVE SMOOTH",
"873.667 1306 OFFCURVE",
"917 1218.667 OFFCURVE",
"917 1110 CURVE SMOOTH",
"917 1035.333 OFFCURVE",
"896.5 971.5 OFFCURVE",
"855.5 918.5 CURVE SMOOTH",
"814.5 865.5 OFFCURVE",
"757.333 825.333 OFFCURVE",
"684 798 CURVE",
"684 833 LINE",
"763.333 816.333 OFFCURVE",
"825.833 779.167 OFFCURVE",
"871.5 721.5 CURVE SMOOTH",
"917.167 663.833 OFFCURVE",
"940 597.333 OFFCURVE",
"940 522 CURVE SMOOTH",
"940 418 OFFCURVE",
"900.5 335 OFFCURVE",
"821.5 273 CURVE SMOOTH",
"742.5 211 OFFCURVE",
"637.667 180 OFFCURVE",
"507 180 CURVE SMOOTH",
"500 180 LINE"
);
},
{
closed = 1;
nodes = (
"341 -28 LINE",
"54 439 LINE",
"112 439 LINE",
"399 -28 LINE",
"341 -28 LINE"
);
},
{
closed = 1;
nodes = (
"486 -28 LINE",
"198 439 LINE",
"256 439 LINE",
"544 -28 LINE",
"486 -28 LINE"
);
},
{
closed = 1;
nodes = (
"443 282 OFFCURVE",
"383 296.167 OFFCURVE",
"337 324.5 CURVE SMOOTH",
"291 352.833 OFFCURVE",
"250.667 391 OFFCURVE",
"216 439 CURVE",
"256 439 LINE",
"279.333 409.667 OFFCURVE",
"312 384.167 OFFCURVE",
"354 362.5 CURVE SMOOTH",
"396 340.833 OFFCURVE",
"450 330 OFFCURVE",
"516 330 CURVE SMOOTH",
"591.333 330 OFFCURVE",
"650.833 347.667 OFFCURVE",
"694.5 383 CURVE SMOOTH",
"738.167 418.333 OFFCURVE",
"760 464.667 OFFCURVE",
"760 522 CURVE SMOOTH",
"760 585.333 OFFCURVE",
"732.833 637 OFFCURVE",
"678.5 677 CURVE SMOOTH",
"624.167 717 OFFCURVE",
"549.667 737 OFFCURVE",
"455 737 CURVE SMOOTH",
"295 737 LINE",
"295 785 LINE",
"455 785 LINE SMOOTH",
"567.667 785 OFFCURVE",
"655.667 761 OFFCURVE",
"719 713 CURVE SMOOTH",
"782.333 665 OFFCURVE",
"814 601.333 OFFCURVE",
"814 522 CURVE SMOOTH",
"814 448.667 OFFCURVE",
"787.333 390.333 OFFCURVE",
"734 347 CURVE SMOOTH",
"680.667 303.667 OFFCURVE",
"608.333 282 OFFCURVE",
"517 282 CURVE SMOOTH",
"517 282 LINE SMOOTH"
);
},
{
closed = 1;
nodes = (
"211.333 1152.333 OFFCURVE",
"240 1190.167 OFFCURVE",
"282 1218.5 CURVE SMOOTH",
"324 1246.833 OFFCURVE",
"375.333 1261 OFFCURVE",
"436 1261 CURVE SMOOTH",
"442 1261 LINE",
"442 1217 LINE",
"436 1217 LINE SMOOTH",
"394 1217 OFFCURVE",
"356.333 1207.333 OFFCURVE",
"323 1188 CURVE SMOOTH",
"289.667 1168.667 OFFCURVE",
"265.333 1141 OFFCURVE",
"250 1105 CURVE",
"196 1105 LINE",
"196 1105 LINE"
);
},
{
closed = 1;
nodes = (
"295 843 LINE",
"295 891 LINE",
"455 891 LINE SMOOTH",
"539.667 891 OFFCURVE",
"607.833 911 OFFCURVE",
"659.5 951 CURVE SMOOTH",
"711.167 991 OFFCURVE",
"737 1042 OFFCURVE",
"737 1104 CURVE SMOOTH",
"737 1169.333 OFFCURVE",
"709.167 1221.5 OFFCURVE",
"653.5 1260.5 CURVE SMOOTH",
"597.833 1299.5 OFFCURVE",
"525.333 1319 OFFCURVE",
"436 1319 CURVE SMOOTH",
"351.333 1319 OFFCURVE",
"281 1300 OFFCURVE",
"225 1262 CURVE SMOOTH",
"169 1224 OFFCURVE",
"133.333 1171.667 OFFCURVE",
"118 1105 CURVE",
"64 1105 LINE",
"80.667 1185.667 OFFCURVE",
"122.167 1249.833 OFFCURVE",
"188.5 1297.5 CURVE SMOOTH",
"254.833 1345.167 OFFCURVE",
"337.333 1369 OFFCURVE",
"436 1369 CURVE SMOOTH",
"541.333 1369 OFFCURVE",
"626.833 1344.667 OFFCURVE",
"692.5 1296 CURVE SMOOTH",
"758.167 1247.333 OFFCURVE",
"791 1182.667 OFFCURVE",
"791 1102 CURVE SMOOTH",
"791 1025.333 OFFCURVE",
"760.667 963 OFFCURVE",
"700 915 CURVE SMOOTH",
"639.333 867 OFFCURVE",
"557.667 843 OFFCURVE",
"455 843 CURVE SMOOTH",
"295 843 LINE"
);
}
);
width = 1024;
}
);
note = "three-deva";
unicode = 0969;
},
{
glyphname = "four-deva";
layers = (
{
layerId = "48A8F86F-95FA-4C7F-AEB6-10C2B25A042A";
paths = (
{
closed = 1;
nodes = (
"493 -28 LINE",
"493 16 LINE",
"500 16 LINE SMOOTH",
"580 16 OFFCURVE",
"651.167 31.833 OFFCURVE",
"713.5 63.5 CURVE SMOOTH",
"775.833 95.167 OFFCURVE",
"824.833 139 OFFCURVE",
"860.5 195 CURVE SMOOTH",
"896.167 251 OFFCURVE",
"914 315.333 OFFCURVE",
"914 388 CURVE SMOOTH",
"914 459.333 OFFCURVE",
"895.333 523.333 OFFCURVE",
"858 580 CURVE SMOOTH",
"820.667 636.667 OFFCURVE",
"771.333 676 OFFCURVE",
"710 698 CURVE",
"710 714 LINE",
"792.667 726 OFFCURVE",
"862.5 766.833 OFFCURVE",
"919.5 836.5 CURVE SMOOTH",
"976.5 906.167 OFFCURVE",
"1005 1002 OFFCURVE",
"1005 1124 CURVE SMOOTH",
"1005 1179.333 OFFCURVE",
"996.167 1234.667 OFFCURVE",
"978.5 1290 CURVE SMOOTH",
"960.833 1345.333 OFFCURVE",
"936 1396.333 OFFCURVE",
"904 1443 CURVE",
"968 1443 LINE",
"997.333 1397.667 OFFCURVE",
"1019.833 1346.833 OFFCURVE",
"1035.5 1290.5 CURVE SMOOTH",
"1051.167 1234.167 OFFCURVE",
"1059 1178.667 OFFCURVE",
"1059 1124 CURVE SMOOTH",
"1059 1005.333 OFFCURVE",
"1032.5 908 OFFCURVE",
"979.5 832 CURVE SMOOTH",
"926.5 756 OFFCURVE",
"859.667 707.333 OFFCURVE",
"779 686 CURVE",
"779 713 LINE",
"840.333 686.333 OFFCURVE",
"887.167 641.667 OFFCURVE",
"919.5 579 CURVE SMOOTH",
"951.833 516.333 OFFCURVE",
"968 452.667 OFFCURVE",
"968 388 CURVE SMOOTH",
"968 304 OFFCURVE",
"948.333 230.833 OFFCURVE",
"909 168.5 CURVE SMOOTH",
"869.667 106.167 OFFCURVE",
"815 57.833 OFFCURVE",
"745 23.5 CURVE SMOOTH",
"675 -10.833 OFFCURVE",
"593.333 -28 OFFCURVE",
"500 -28 CURVE SMOOTH",
"493 -28 LINE"
);
},
{
closed = 1;
nodes = (
"437.333 182 OFFCURVE",
"385.167 201.167 OFFCURVE",
"343.5 239.5 CURVE SMOOTH",
"301.833 277.833 OFFCURVE",
"281 327.333 OFFCURVE",
"281 388 CURVE SMOOTH",
"281 449.333 OFFCURVE",
"301.833 498.833 OFFCURVE",
"343.5 536.5 CURVE SMOOTH",
"385.167 574.167 OFFCURVE",
"437.333 593 OFFCURVE",
"500 593 CURVE SMOOTH",
"506 593 LINE",
"506 549 LINE",
"500 549 LINE SMOOTH",
"452.667 549 OFFCURVE",
"413.333 533.833 OFFCURVE",
"382 503.5 CURVE SMOOTH",
"350.667 473.167 OFFCURVE",
"335 434.667 OFFCURVE",
"335 388 CURVE SMOOTH",
"335 342 OFFCURVE",
"350.667 303.5 OFFCURVE",
"382 272.5 CURVE SMOOTH",
"413.333 241.5 OFFCURVE",
"452.667 226 OFFCURVE",
"500 226 CURVE SMOOTH",
"506 226 LINE",
"506 182 LINE",
"500 182 LINE",
"500 182 LINE SMOOTH"
);
},
{
closed = 1;
nodes = (
"399.333 74 OFFCURVE",
"317 103.167 OFFCURVE",
"253 161.5 CURVE SMOOTH",
"189 219.833 OFFCURVE",
"157 295.333 OFFCURVE",
"157 388 CURVE SMOOTH",
"157 448 OFFCURVE",
"171.5 501.167 OFFCURVE",
"200.5 547.5 CURVE SMOOTH",
"229.5 593.833 OFFCURVE",
"269.833 630 OFFCURVE",
"321.5 656 CURVE SMOOTH",
"373.167 682 OFFCURVE",
"432.667 695 OFFCURVE",
"500 695 CURVE SMOOTH",
"567.333 695 OFFCURVE",
"626.833 682 OFFCURVE",
"678.5 656 CURVE SMOOTH",
"730.167 630 OFFCURVE",
"770.667 593.833 OFFCURVE",
"800 547.5 CURVE SMOOTH",
"829.333 501.167 OFFCURVE",
"844 448 OFFCURVE",
"844 388 CURVE SMOOTH",
"844 295.333 OFFCURVE",
"812 219.833 OFFCURVE",
"748 161.5 CURVE SMOOTH",
"684 103.167 OFFCURVE",
"601.333 74 OFFCURVE",
"500 74 CURVE SMOOTH",
"500 74 LINE SMOOTH"
);
},
{
closed = 1;
nodes = (
"584.667 124 OFFCURVE",
"654.167 148.667 OFFCURVE",
"708.5 198 CURVE SMOOTH",
"762.833 247.333 OFFCURVE",
"790 310.667 OFFCURVE",
"790 388 CURVE SMOOTH",
"790 466.667 OFFCURVE",
"763.167 530.167 OFFCURVE",
"709.5 578.5 CURVE SMOOTH",
"655.833 626.833 OFFCURVE",
"586 651 OFFCURVE",
"500 651 CURVE SMOOTH",
"414 651 OFFCURVE",
"344.333 626.833 OFFCURVE",
"291 578.5 CURVE SMOOTH",
"237.667 530.167 OFFCURVE",
"211 466.667 OFFCURVE",
"211 388 CURVE SMOOTH",
"211 310.667 OFFCURVE",
"238 247.333 OFFCURVE",
"292 198 CURVE SMOOTH",
"346 148.667 OFFCURVE",
"415.333 124 OFFCURVE",
"500 124 CURVE",
"500 124 LINE"
);
},
{
closed = 1;
nodes = (
"403.333 831 OFFCURVE",
"330.833 857.833 OFFCURVE",
"282.5 911.5 CURVE SMOOTH",
"234.167 965.167 OFFCURVE",
"210 1036 OFFCURVE",
"210 1124 CURVE SMOOTH",
"210 1239.333 OFFCURVE",
"250 1345.667 OFFCURVE",
"330 1443 CURVE",
"394 1443 LINE",
"307.333 1339 OFFCURVE",
"264 1232.667 OFFCURVE",
"264 1124 CURVE SMOOTH",
"264 1050.667 OFFCURVE",
"283.167 990.833 OFFCURVE",
"321.5 944.5 CURVE SMOOTH",
"359.833 898.167 OFFCURVE",
"419.333 875 OFFCURVE",
"500 875 CURVE SMOOTH",
"506 875 LINE",
"506 831 LINE",
"500 831 LINE",
"500 831 LINE SMOOTH"
);
},
{
closed = 1;
nodes = (
"365.333 729 OFFCURVE",
"262.333 765.667 OFFCURVE",
"191 839 CURVE SMOOTH",
"119.667 912.333 OFFCURVE",
"84 1007.333 OFFCURVE",
"84 1124 CURVE SMOOTH",
"84 1178.667 OFFCURVE",
"92 1234.167 OFFCURVE",
"108 1290.5 CURVE SMOOTH",
"124 1346.833 OFFCURVE",
"146.333 1397.667 OFFCURVE",
"175 1443 CURVE",
"239 1443 LINE",
"207 1396.333 OFFCURVE",
"182.167 1345.333 OFFCURVE",
"164.5 1290 CURVE SMOOTH",
"146.833 1234.667 OFFCURVE",
"138 1179.333 OFFCURVE",
"138 1124 CURVE SMOOTH",
"138 1022.667 OFFCURVE",
"168.667 938.833 OFFCURVE",
"230 872.5 CURVE SMOOTH",
"291.333 806.167 OFFCURVE",
"381.333 773 OFFCURVE",
"500 773 CURVE SMOOTH",
"621.333 773 OFFCURVE",
"713 806.167 OFFCURVE",
"775 872.5 CURVE SMOOTH",
"837 938.833 OFFCURVE",
"868 1022.667 OFFCURVE",
"868 1124 CURVE SMOOTH",
"868 1238.667 OFFCURVE",
"834.333 1345 OFFCURVE",
"767 1443 CURVE",
"831 1443 LINE",
"860.333 1397.667 OFFCURVE",
"882.833 1346.833 OFFCURVE",
"898.5 1290.5 CURVE SMOOTH",
"914.167 1234.167 OFFCURVE",
"922 1178.667 OFFCURVE",
"922 1124 CURVE SMOOTH",
"922 1007.333 OFFCURVE",
"886.167 912.333 OFFCURVE",
"814.5 839 CURVE SMOOTH",
"742.833 765.667 OFFCURVE",
"638 729 OFFCURVE",
"500 729 CURVE SMOOTH",
"500 729 LINE SMOOTH"
);
}
);
width = 1143;
}
);
note = "four-deva";
unicode = 096A;
},
{
glyphname = "five-deva";
layers = (
{
layerId = "48A8F86F-95FA-4C7F-AEB6-10C2B25A042A";
paths = (
{
closed = 1;
nodes = (
"429 360 OFFCURVE",
"348.833 380.667 OFFCURVE",
"280.5 422 CURVE SMOOTH",
"212.167 463.333 OFFCURVE",
"159 520 OFFCURVE",
"121 592 CURVE SMOOTH",
"83 664 OFFCURVE",
"64 746.333 OFFCURVE",
"64 839 CURVE SMOOTH",
"64 946.333 OFFCURVE",
"90 1051.667 OFFCURVE",
"142 1155 CURVE SMOOTH",
"194 1258.333 OFFCURVE",
"268.333 1354.333 OFFCURVE",
"365 1443 CURVE",
"432 1443 LINE",
"330 1353.667 OFFCURVE",
"252.167 1257.167 OFFCURVE",
"198.5 1153.5 CURVE SMOOTH",
"144.833 1049.833 OFFCURVE",
"118 945 OFFCURVE",
"118 839 CURVE SMOOTH",
"118 755.667 OFFCURVE",
"134.5 681.667 OFFCURVE",
"167.5 617 CURVE SMOOTH",
"200.5 552.333 OFFCURVE",
"247.167 501.667 OFFCURVE",
"307.5 465 CURVE SMOOTH",
"367.833 428.333 OFFCURVE",
"439 410 OFFCURVE",
"521 410 CURVE SMOOTH",
"584.333 410 OFFCURVE",
"639.667 419.667 OFFCURVE",
"687 439 CURVE SMOOTH",
"734.333 458.333 OFFCURVE",
"775 485.333 OFFCURVE",
"809 520 CURVE",
"820 466 LINE",
"783.333 432 OFFCURVE",
"740.167 405.833 OFFCURVE",
"690.5 387.5 CURVE SMOOTH",
"640.833 369.167 OFFCURVE",
"584.333 360 OFFCURVE",
"521 360 CURVE SMOOTH",
"521 360 LINE SMOOTH"
);
},
{
closed = 1;
nodes = (
"985 -28 LINE",
"814 872 LINE",
"864 872 LINE",
"1035 -28 LINE",
"985 -28 LINE"
);
},
{
closed = 1;
nodes = (
"1114 -28 LINE",
"934 872 LINE",
"984 872 LINE",
"1164 -28 LINE",
"1114 -28 LINE"
);
},
{
closed = 1;
nodes = (
"421 478 OFFCURVE",
"340.833 511 OFFCURVE",
"280.5 577 CURVE SMOOTH",
"220.167 643 OFFCURVE",
"190 730.333 OFFCURVE",
"190 839 CURVE SMOOTH",
"190 945 OFFCURVE",
"220.333 1049.667 OFFCURVE",
"281 1153 CURVE SMOOTH",
"341.667 1256.333 OFFCURVE",
"427.333 1353 OFFCURVE",
"538 1443 CURVE",
"611 1443 LINE",
"492.333 1351.667 OFFCURVE",
"401.5 1254 OFFCURVE",
"338.5 1150 CURVE SMOOTH",
"275.5 1046 OFFCURVE",
"244 942.333 OFFCURVE",
"244 839 CURVE SMOOTH",
"244 744.333 OFFCURVE",
"269 668.833 OFFCURVE",
"319 612.5 CURVE SMOOTH",
"369 556.167 OFFCURVE",
"436.333 528 OFFCURVE",
"521 528 CURVE SMOOTH",
"615.667 528 OFFCURVE",
"688.167 558.333 OFFCURVE",
"738.5 619 CURVE SMOOTH",
"788.833 679.667 OFFCURVE",
"814 764 OFFCURVE",
"814 872 CURVE",
"860 872 LINE",
"861.333 750.667 OFFCURVE",
"832.167 654.667 OFFCURVE",
"772.5 584 CURVE SMOOTH",
"712.833 513.333 OFFCURVE",
"629 478 OFFCURVE",
"521 478 CURVE SMOOTH",
"521 478 LINE SMOOTH"
);
}
);
width = 1136;
}
);
leftKerningGroup = "five-deva";
note = "five-deva";
unicode = 096B;
},
{
glyphname = "six-deva";
layers = (
{
layerId = "48A8F86F-95FA-4C7F-AEB6-10C2B25A042A";
paths = (
{
closed = 1;
nodes = (
"423.667 180 OFFCURVE",
"350.167 194 OFFCURVE",
"286.5 222 CURVE SMOOTH",
"222.833 250 OFFCURVE",
"173.167 289.667 OFFCURVE",
"137.5 341 CURVE SMOOTH",
"101.833 392.333 OFFCURVE",
"84 452.667 OFFCURVE",
"84 522 CURVE SMOOTH",
"84 597.333 OFFCURVE",
"107 663.833 OFFCURVE",
"153 721.5 CURVE SMOOTH",
"199 779.167 OFFCURVE",
"261.333 816.333 OFFCURVE",
"340 833 CURVE",
"340 798 LINE",
"260 825.333 OFFCURVE",
"197.833 865.5 OFFCURVE",
"153.5 918.5 CURVE SMOOTH",
"109.167 971.5 OFFCURVE",
"87 1035.333 OFFCURVE",
"87 1110 CURVE SMOOTH",
"87 1218.667 OFFCURVE",
"130.5 1306 OFFCURVE",
"217.5 1372 CURVE SMOOTH",
"304.5 1438 OFFCURVE",
"421.333 1471 OFFCURVE",
"568 1471 CURVE SMOOTH",
"574 1471 LINE",
"574 1427 LINE",
"568 1427 LINE SMOOTH",
"483.333 1427 OFFCURVE",
"408.833 1413.667 OFFCURVE",
"344.5 1387 CURVE SMOOTH",
"280.167 1360.333 OFFCURVE",
"230.167 1322.833 OFFCURVE",
"194.5 1274.5 CURVE SMOOTH",
"158.833 1226.167 OFFCURVE",
"141 1170 OFFCURVE",
"141 1106 CURVE SMOOTH",
"141 1037.333 OFFCURVE",
"163.333 978.167 OFFCURVE",
"208 928.5 CURVE SMOOTH",
"252.667 878.833 OFFCURVE",
"314.333 843.333 OFFCURVE",
"393 822 CURVE",
"393 806 LINE",
"343.667 800 OFFCURVE",
"299.667 783.667 OFFCURVE",
"261 757 CURVE SMOOTH",
"222.333 730.333 OFFCURVE",
"192.167 696.667 OFFCURVE",
"170.5 656 CURVE SMOOTH",
"148.833 615.333 OFFCURVE",
"138 570.667 OFFCURVE",
"138 522 CURVE SMOOTH",
"138 462 OFFCURVE",
"153.833 409.667 OFFCURVE",
"185.5 365 CURVE SMOOTH",
"217.167 320.333 OFFCURVE",
"260.833 285.667 OFFCURVE",
"316.5 261 CURVE SMOOTH",
"372.167 236.333 OFFCURVE",
"435.667 224 OFFCURVE",
"507 224 CURVE SMOOTH",
"551.667 224 OFFCURVE",
"592.333 228.833 OFFCURVE",
"629 238.5 CURVE SMOOTH",
"665.667 248.167 OFFCURVE",
"698.667 262 OFFCURVE",
"728 280 CURVE",
"737 236 LINE",
"673.667 198.667 OFFCURVE",
"597 180 OFFCURVE",
"507 180 CURVE SMOOTH",
"507 180 LINE SMOOTH"
);
},
{
closed = 1;
nodes = (
"460.333 843 OFFCURVE",
"373.833 867 OFFCURVE",
"309.5 915 CURVE SMOOTH",
"245.167 963 OFFCURVE",
"213 1025.333 OFFCURVE",
"213 1102 CURVE SMOOTH",
"213 1182.667 OFFCURVE",
"246 1247.333 OFFCURVE",
"312 1296 CURVE SMOOTH",
"378 1344.667 OFFCURVE",
"463.333 1369 OFFCURVE",
"568 1369 CURVE SMOOTH",
"667.333 1369 OFFCURVE",
"750 1345.167 OFFCURVE",
"816 1297.5 CURVE SMOOTH",
"882 1249.833 OFFCURVE",
"923.333 1185.667 OFFCURVE",
"940 1105 CURVE",
"886 1105 LINE",
"871.333 1171.667 OFFCURVE",
"835.833 1224 OFFCURVE",
"779.5 1262 CURVE SMOOTH",
"723.167 1300 OFFCURVE",
"652.667 1319 OFFCURVE",
"568 1319 CURVE SMOOTH",
"479.333 1319 OFFCURVE",
"407 1299.5 OFFCURVE",
"351 1260.5 CURVE SMOOTH",
"295 1221.5 OFFCURVE",
"267 1169.333 OFFCURVE",
"267 1104 CURVE SMOOTH",
"267 1042 OFFCURVE",
"294.667 991 OFFCURVE",
"350 951 CURVE SMOOTH",
"405.333 911 OFFCURVE",
"478.333 891 OFFCURVE",
"569 891 CURVE SMOOTH",
"729 891 LINE",
"729 843 LINE",
"569 843 LINE",
"569 843 LINE SMOOTH"
);
},
{
closed = 1;
nodes = (
"739.333 1141 OFFCURVE",
"715.167 1168.667 OFFCURVE",
"681.5 1188 CURVE SMOOTH",
"647.833 1207.333 OFFCURVE",
"610 1217 OFFCURVE",
"568 1217 CURVE SMOOTH",
"562 1217 LINE",
"562 1261 LINE",
"568 1261 LINE SMOOTH",
"629.333 1261 OFFCURVE",
"680.833 1246.833 OFFCURVE",
"722.5 1218.5 CURVE SMOOTH",
"764.167 1190.167 OFFCURVE",
"792.667 1152.333 OFFCURVE",
"808 1105 CURVE",
"754 1105 LINE",
"754 1105 LINE"
);
},
{
closed = 1;
nodes = (
"416.333 282 OFFCURVE",
"344.167 303.667 OFFCURVE",
"290.5 347 CURVE SMOOTH",
"236.833 390.333 OFFCURVE",
"210 448.667 OFFCURVE",
"210 522 CURVE SMOOTH",
"210 601.333 OFFCURVE",
"241.667 665 OFFCURVE",
"305 713 CURVE SMOOTH",
"368.333 761 OFFCURVE",
"456.333 785 OFFCURVE",
"569 785 CURVE SMOOTH",
"729 785 LINE",
"729 737 LINE",
"569 737 LINE SMOOTH",
"474.333 737 OFFCURVE",
"399.833 717 OFFCURVE",
"345.5 677 CURVE SMOOTH",
"291.167 637 OFFCURVE",
"264 585.333 OFFCURVE",
"264 522 CURVE SMOOTH",
"264 464.667 OFFCURVE",
"285.833 418.333 OFFCURVE",
"329.5 383 CURVE SMOOTH",
"373.167 347.667 OFFCURVE",
"432.667 330 OFFCURVE",
"508 330 CURVE SMOOTH",
"574 330 OFFCURVE",
"628 340.833 OFFCURVE",
"670 362.5 CURVE SMOOTH",
"712 384.167 OFFCURVE",
"744.667 409.667 OFFCURVE",
"768 439 CURVE",
"814 424 LINE",
"784 383.333 OFFCURVE",
"745.167 349.5 OFFCURVE",
"697.5 322.5 CURVE SMOOTH",
"649.833 295.5 OFFCURVE",
"586.333 282 OFFCURVE",
"507 282 CURVE SMOOTH",
"507 282 LINE SMOOTH"
);
},
{
closed = 1;
nodes = (
"862 -28 LINE",
"768 439 LINE",
"818 439 LINE",
"912 -28 LINE",
"862 -28 LINE"
);
},
{
closed = 1;
nodes = (
"991 -28 LINE",
"897 439 LINE",
"947 439 LINE",
"1041 -28 LINE",
"991 -28 LINE"
);
}
);
width = 1075;
}
);
note = "six-deva";
unicode = 096C;
},
{
glyphname = "seven-deva";
layers = (
{
layerId = "48A8F86F-95FA-4C7F-AEB6-10C2B25A042A";
paths = (
{
closed = 1;
nodes = (
"584.333 0 OFFCURVE",
"471.5 31.5 OFFCURVE",
"378.5 94.5 CURVE SMOOTH",
"285.5 157.5 OFFCURVE",
"214.5 244.333 OFFCURVE",
"165.5 355 CURVE SMOOTH",
"116.5 465.667 OFFCURVE",
"92 592 OFFCURVE",
"92 734 CURVE SMOOTH",
"92 851.333 OFFCURVE",
"111.667 972.5 OFFCURVE",
"151 1097.5 CURVE SMOOTH",
"190.333 1222.5 OFFCURVE",
"243.333 1337.667 OFFCURVE",
"310 1443 CURVE",
"375 1443 LINE",
"304.333 1339.667 OFFCURVE",
"248.5 1225.5 OFFCURVE",
"207.5 1100.5 CURVE SMOOTH",
"166.5 975.5 OFFCURVE",
"146 853.333 OFFCURVE",
"146 734 CURVE SMOOTH",
"146 597.333 OFFCURVE",
"168.5 477.667 OFFCURVE",
"213.5 375 CURVE SMOOTH",
"258.5 272.333 OFFCURVE",
"323.667 192.5 OFFCURVE",
"409 135.5 CURVE SMOOTH",
"494.333 78.5 OFFCURVE",
"597 50 OFFCURVE",
"717 50 CURVE SMOOTH",
"840.333 50 OFFCURVE",
"943 77.667 OFFCURVE",
"1025 133 CURVE SMOOTH",
"1107 188.333 OFFCURVE",
"1168.667 261.333 OFFCURVE",
"1210 352 CURVE SMOOTH",
"1251.333 442.667 OFFCURVE",
"1272 541.333 OFFCURVE",
"1272 648 CURVE SMOOTH",
"1272 766.667 OFFCURVE",
"1253.167 863.167 OFFCURVE",
"1215.5 937.5 CURVE SMOOTH",
"1177.833 1011.833 OFFCURVE",
"1125.833 1066.667 OFFCURVE",
"1059.5 1102 CURVE SMOOTH",
"993.167 1137.333 OFFCURVE",
"917 1155 OFFCURVE",
"831 1155 CURVE SMOOTH",
"825 1155 LINE",
"825 1199 LINE",
"831 1199 LINE SMOOTH",
"926.333 1199 OFFCURVE",
"1011.167 1178.833 OFFCURVE",
"1085.5 1138.5 CURVE SMOOTH",
"1159.833 1098.167 OFFCURVE",
"1218.5 1037.167 OFFCURVE",
"1261.5 955.5 CURVE SMOOTH",
"1304.5 873.833 OFFCURVE",
"1326 771 OFFCURVE",
"1326 647 CURVE SMOOTH",
"1326 567 OFFCURVE",
"1313.333 488.5 OFFCURVE",
"1288 411.5 CURVE SMOOTH",
"1262.667 334.5 OFFCURVE",
"1224.667 265 OFFCURVE",
"1174 203 CURVE SMOOTH",
"1123.333 141 OFFCURVE",
"1059.833 91.667 OFFCURVE",
"983.5 55 CURVE SMOOTH",
"907.167 18.333 OFFCURVE",
"818.333 0 OFFCURVE",
"717 0 CURVE SMOOTH",
"717 0 LINE SMOOTH"
);
},
{
closed = 1;
nodes = (
"615.667 120 OFFCURVE",
"527.5 145.167 OFFCURVE",
"452.5 195.5 CURVE SMOOTH",
"377.5 245.833 OFFCURVE",
"319.667 317 OFFCURVE",
"279 409 CURVE SMOOTH",
"238.333 501 OFFCURVE",
"218 609.333 OFFCURVE",
"218 734 CURVE SMOOTH",
"218 854.667 OFFCURVE",
"240 975.333 OFFCURVE",
"284 1096 CURVE SMOOTH",
"328 1216.667 OFFCURVE",
"390.333 1332.333 OFFCURVE",
"471 1443 CURVE",
"536 1443 LINE",
"451.333 1331.667 OFFCURVE",
"386.167 1216 OFFCURVE",
"340.5 1096 CURVE SMOOTH",
"294.833 976 OFFCURVE",
"272 855.333 OFFCURVE",
"272 734 CURVE SMOOTH",
"272 620 OFFCURVE",
"289.833 520.667 OFFCURVE",
"325.5 436 CURVE SMOOTH",
"361.167 351.333 OFFCURVE",
"412.167 285.833 OFFCURVE",
"478.5 239.5 CURVE SMOOTH",
"544.833 193.167 OFFCURVE",
"624.333 170 OFFCURVE",
"717 170 CURVE SMOOTH",
"818.333 170 OFFCURVE",
"900.833 192.667 OFFCURVE",
"964.5 238 CURVE SMOOTH",
"1028.167 283.333 OFFCURVE",
"1075 342.333 OFFCURVE",
"1105 415 CURVE SMOOTH",
"1135 487.667 OFFCURVE",
"1150 565 OFFCURVE",
"1150 647 CURVE SMOOTH",
"1150 661.667 OFFCURVE",
"1150 672.667 OFFCURVE",
"1150 680 CURVE SMOOTH",
"1150 687.333 OFFCURVE",
"1150 696.333 OFFCURVE",
"1150 707 CURVE",
"1168 707 LINE",
"1156.667 653 OFFCURVE",
"1134.333 607.167 OFFCURVE",
"1101 569.5 CURVE SMOOTH",
"1067.667 531.833 OFFCURVE",
"1027.333 503.333 OFFCURVE",
"980 484 CURVE SMOOTH",
"932.667 464.667 OFFCURVE",
"881.333 455 OFFCURVE",
"826 455 CURVE SMOOTH",
"756 455 OFFCURVE",
"695.333 469.333 OFFCURVE",
"644 498 CURVE SMOOTH",
"592.667 526.667 OFFCURVE",
"553 565.333 OFFCURVE",
"525 614 CURVE SMOOTH",
"497 662.667 OFFCURVE",
"483 717 OFFCURVE",
"483 777 CURVE SMOOTH",
"483 837 OFFCURVE",
"497.167 891.167 OFFCURVE",
"525.5 939.5 CURVE SMOOTH",
"553.833 987.833 OFFCURVE",
"594 1026.167 OFFCURVE",
"646 1054.5 CURVE SMOOTH",
"698 1082.833 OFFCURVE",
"759.667 1097 OFFCURVE",
"831 1097 CURVE SMOOTH",
"896.333 1097 OFFCURVE",
"957 1081.5 OFFCURVE",
"1013 1050.5 CURVE SMOOTH",
"1069 1019.5 OFFCURVE",
"1114.167 971 OFFCURVE",
"1148.5 905 CURVE SMOOTH",
"1182.833 839 OFFCURVE",
"1200 753.333 OFFCURVE",
"1200 648 CURVE SMOOTH",
"1200 598.667 OFFCURVE",
"1192.667 543.833 OFFCURVE",
"1178 483.5 CURVE SMOOTH",
"1163.333 423.167 OFFCURVE",
"1138 365.333 OFFCURVE",
"1102 310 CURVE SMOOTH",
"1066 254.667 OFFCURVE",
"1016.833 209.167 OFFCURVE",
"954.5 173.5 CURVE SMOOTH",
"892.167 137.833 OFFCURVE",
"813 120 OFFCURVE",
"717 120 CURVE SMOOTH",
"717 120 LINE SMOOTH"
);
},
{
closed = 1;
nodes = (
"761.667 563 OFFCURVE",
"707 583.333 OFFCURVE",
"667 624 CURVE SMOOTH",
"627 664.667 OFFCURVE",
"607 715.667 OFFCURVE",
"607 777 CURVE SMOOTH",
"607 838.333 OFFCURVE",
"626.833 889 OFFCURVE",
"666.5 929 CURVE SMOOTH",
"706.167 969 OFFCURVE",
"761 989 OFFCURVE",
"831 989 CURVE SMOOTH",
"837 989 LINE",
"837 945 LINE",
"831 945 LINE SMOOTH",
"775 945 OFFCURVE",
"732.667 929.833 OFFCURVE",
"704 899.5 CURVE SMOOTH",
"675.333 869.167 OFFCURVE",
"661 828.333 OFFCURVE",
"661 777 CURVE SMOOTH",
"661 725.667 OFFCURVE",
"675.333 684.5 OFFCURVE",
"704 653.5 CURVE SMOOTH",
"732.667 622.5 OFFCURVE",
"775 607 OFFCURVE",
"831 607 CURVE SMOOTH",
"837 607 LINE",
"837 563 LINE",
"831 563 LINE",
"831 563 LINE SMOOTH"
);
},
{
closed = 1;
nodes = (
"914 505 OFFCURVE",
"986.167 530.167 OFFCURVE",
"1042.5 580.5 CURVE SMOOTH",
"1098.833 630.833 OFFCURVE",
"1127 693.333 OFFCURVE",
"1127 768 CURVE SMOOTH",
"1127 820 OFFCURVE",
"1113.833 867.167 OFFCURVE",
"1087.5 909.5 CURVE SMOOTH",
"1061.167 951.833 OFFCURVE",
"1025.667 985.333 OFFCURVE",
"981 1010 CURVE SMOOTH",
"936.333 1034.667 OFFCURVE",
"886.333 1047 OFFCURVE",
"831 1047 CURVE SMOOTH",
"745 1047 OFFCURVE",
"674.5 1021.667 OFFCURVE",
"619.5 971 CURVE SMOOTH",
"564.5 920.333 OFFCURVE",
"537 855.667 OFFCURVE",
"537 777 CURVE SMOOTH",
"537 725 OFFCURVE",
"549.5 678.5 OFFCURVE",
"574.5 637.5 CURVE SMOOTH",
"599.5 596.5 OFFCURVE",
"633.833 564.167 OFFCURVE",
"677.5 540.5 CURVE SMOOTH",
"721.167 516.833 OFFCURVE",
"770.667 505 OFFCURVE",
"826 505 CURVE",
"826 505 LINE"
);
}
);
width = 1408;
}
);
note = "seven-deva";
unicode = 096D;
},
{
glyphname = "eight-deva";
layers = (
{
layerId = "48A8F86F-95FA-4C7F-AEB6-10C2B25A042A";
paths = (
{
closed = 1;
nodes = (
"440 0 OFFCURVE",
"352.167 19.167 OFFCURVE",
"280.5 57.5 CURVE SMOOTH",
"208.833 95.833 OFFCURVE",
"154.5 148 OFFCURVE",
"117.5 214 CURVE SMOOTH",
"80.5 280 OFFCURVE",
"62 354 OFFCURVE",
"62 436 CURVE SMOOTH",
"62 490 OFFCURVE",
"69 543.5 OFFCURVE",
"83 596.5 CURVE SMOOTH",
"97 649.5 OFFCURVE",
"120.333 708.333 OFFCURVE",
"153 773 CURVE SMOOTH",
"185.667 837.667 OFFCURVE",
"230.333 913.667 OFFCURVE",
"287 1001 CURVE SMOOTH",
"574 1443 LINE",
"632 1443 LINE",
"332 974 LINE SMOOTH",
"278 890 OFFCURVE",
"235.333 817 OFFCURVE",
"204 755 CURVE SMOOTH",
"172.667 693 OFFCURVE",
"150.167 636.833 OFFCURVE",
"136.5 586.5 CURVE SMOOTH",
"122.833 536.167 OFFCURVE",
"116 486 OFFCURVE",
"116 436 CURVE SMOOTH",
"116 315.333 OFFCURVE",
"155.167 219.833 OFFCURVE",
"233.5 149.5 CURVE SMOOTH",
"311.833 79.167 OFFCURVE",
"415.333 44 OFFCURVE",
"544 44 CURVE SMOOTH",
"550 44 LINE",
"550 0 LINE",
"544 0 LINE",
"544 0 LINE SMOOTH"
);
},
{
closed = 1;
nodes = (
"538 210 LINE",
"538 254 LINE",
"544 254 LINE SMOOTH",
"598.667 254 OFFCURVE",
"645.333 270.5 OFFCURVE",
"684 303.5 CURVE SMOOTH",
"722.667 336.5 OFFCURVE",
"746.333 381.667 OFFCURVE",
"755 439 CURVE",
"809 439 LINE",
"799 367 OFFCURVE",
"770.333 310.833 OFFCURVE",
"723 270.5 CURVE SMOOTH",
"675.667 230.167 OFFCURVE",
"616 210 OFFCURVE",
"544 210 CURVE SMOOTH",
"538 210 LINE"
);
},
{
closed = 1;
nodes = (
"435.333 102 OFFCURVE",
"348.5 133.5 OFFCURVE",
"283.5 196.5 CURVE SMOOTH",
"218.5 259.5 OFFCURVE",
"186 339.333 OFFCURVE",
"186 436 CURVE SMOOTH",
"186 483.333 OFFCURVE",
"192.333 530.333 OFFCURVE",
"205 577 CURVE SMOOTH",
"217.667 623.667 OFFCURVE",
"238.667 675.5 OFFCURVE",
"268 732.5 CURVE SMOOTH",
"297.333 789.5 OFFCURVE",
"337 856.667 OFFCURVE",
"387 934 CURVE SMOOTH",
"719 1443 LINE",
"777 1443 LINE",
"432 907 LINE SMOOTH",
"384 832.333 OFFCURVE",
"345.833 767.667 OFFCURVE",
"317.5 713 CURVE SMOOTH",
"289.167 658.333 OFFCURVE",
"269 609.167 OFFCURVE",
"257 565.5 CURVE SMOOTH",
"245 521.833 OFFCURVE",
"239.333 478.667 OFFCURVE",
"240 436 CURVE SMOOTH",
"241.333 350.667 OFFCURVE",
"268.5 282 OFFCURVE",
"321.5 230 CURVE SMOOTH",
"374.5 178 OFFCURVE",
"448.667 152 OFFCURVE",
"544 152 CURVE SMOOTH",
"638.667 152 OFFCURVE",
"716.167 177.667 OFFCURVE",
"776.5 229 CURVE SMOOTH",
"836.833 280.333 OFFCURVE",
"872 350.333 OFFCURVE",
"882 439 CURVE",
"936 439 LINE",
"925.333 336.333 OFFCURVE",
"885.167 254.5 OFFCURVE",
"815.5 193.5 CURVE SMOOTH",
"745.833 132.5 OFFCURVE",
"655.333 102 OFFCURVE",
"544 102 CURVE SMOOTH",
"544 102 LINE SMOOTH"
);
}
);
width = 950;
}
);
note = "eight-deva";
unicode = 096E;
},
{
glyphname = "nine-deva";
layers = (
{
layerId = "48A8F86F-95FA-4C7F-AEB6-10C2B25A042A";
paths = (
{
closed = 1;
nodes = (
"608 42.667 OFFCURVE",
"602.5 99.167 OFFCURVE",
"591.5 141.5 CURVE SMOOTH",
"580.5 183.833 OFFCURVE",
"564.167 222 OFFCURVE",
"542.5 256 CURVE SMOOTH",
"520.833 290 OFFCURVE",
"493.333 329.333 OFFCURVE",
"460 374 CURVE SMOOTH",
"231 684 LINE SMOOTH",
"191 738.667 OFFCURVE",
"156.5 794.167 OFFCURVE",
"127.5 850.5 CURVE SMOOTH",
"98.5 906.833 OFFCURVE",
"84 971.667 OFFCURVE",
"84 1045 CURVE SMOOTH",
"84 1130.333 OFFCURVE",
"105.167 1205 OFFCURVE",
"147.5 1269 CURVE SMOOTH",
"189.833 1333 OFFCURVE",
"247.667 1382.667 OFFCURVE",
"321 1418 CURVE SMOOTH",
"394.333 1453.333 OFFCURVE",
"477.333 1471 OFFCURVE",
"570 1471 CURVE SMOOTH",
"576 1471 LINE",
"576 1427 LINE",
"570 1427 LINE SMOOTH",
"485.333 1427 OFFCURVE",
"410.5 1411.167 OFFCURVE",
"345.5 1379.5 CURVE SMOOTH",
"280.5 1347.833 OFFCURVE",
"229.667 1303.333 OFFCURVE",
"193 1246 CURVE SMOOTH",
"156.333 1188.667 OFFCURVE",
"138 1121.667 OFFCURVE",
"138 1045 CURVE SMOOTH",
"138 972.333 OFFCURVE",
"151.833 910.333 OFFCURVE",
"179.5 859 CURVE SMOOTH",
"207.167 807.667 OFFCURVE",
"238 759 OFFCURVE",
"272 713 CURVE SMOOTH",
"501 403 LINE SMOOTH",
"533 359.667 OFFCURVE",
"561 320.333 OFFCURVE",
"585 285 CURVE SMOOTH",
"609 249.667 OFFCURVE",
"627.5 208.5 OFFCURVE",
"640.5 161.5 CURVE SMOOTH",
"653.5 114.5 OFFCURVE",
"660 51.333 OFFCURVE",
"660 -28 CURVE",
"608 -28 LINE",
"608 -28 LINE"
);
},
{
closed = 1;
nodes = (
"732 60 OFFCURVE",
"724.333 130.167 OFFCURVE",
"709 182.5 CURVE SMOOTH",
"693.667 234.833 OFFCURVE",
"673 279.667 OFFCURVE",
"647 317 CURVE SMOOTH",
"621 354.333 OFFCURVE",
"592 394 OFFCURVE",
"560 436 CURVE SMOOTH",
"336 729 LINE SMOOTH",
"300.667 775.667 OFFCURVE",
"270.167 824.833 OFFCURVE",
"244.5 876.5 CURVE SMOOTH",
"218.833 928.167 OFFCURVE",
"206.667 984.333 OFFCURVE",
"208 1045 CURVE",
"248 1045 LINE",
"246 988.333 OFFCURVE",
"259.333 936.333 OFFCURVE",
"288 889 CURVE SMOOTH",
"316.667 841.667 OFFCURVE",
"346.333 798 OFFCURVE",
"377 758 CURVE SMOOTH",
"601 465 LINE SMOOTH",
"636.333 419 OFFCURVE",
"667.833 375 OFFCURVE",
"695.5 333 CURVE SMOOTH",
"723.167 291 OFFCURVE",
"744.833 242.333 OFFCURVE",
"760.5 187 CURVE SMOOTH",
"776.167 131.667 OFFCURVE",
"784 60 OFFCURVE",
"784 -28 CURVE",
"732 -28 LINE",
"732 -28 LINE"
);
},
{
closed = 1;
nodes = (
"465 707 OFFCURVE",
"381.833 738.333 OFFCURVE",
"317.5 801 CURVE SMOOTH",
"253.167 863.667 OFFCURVE",
"220.667 945 OFFCURVE",
"220 1045 CURVE",
"208 1045 LINE",
"208 1105.667 OFFCURVE",
"223.5 1160.333 OFFCURVE",
"254.5 1209 CURVE SMOOTH",
"285.5 1257.667 OFFCURVE",
"328.333 1296.5 OFFCURVE",
"383 1325.5 CURVE SMOOTH",
"437.667 1354.5 OFFCURVE",
"500 1369 OFFCURVE",
"570 1369 CURVE SMOOTH",
"637.333 1369 OFFCURVE",
"697 1354.5 OFFCURVE",
"749 1325.5 CURVE SMOOTH",
"801 1296.5 OFFCURVE",
"841.833 1257.167 OFFCURVE",
"871.5 1207.5 CURVE SMOOTH",
"901.167 1157.833 OFFCURVE",
"916 1101.333 OFFCURVE",
"916 1038 CURVE SMOOTH",
"916 975.333 OFFCURVE",
"901.167 919 OFFCURVE",
"871.5 869 CURVE SMOOTH",
"841.833 819 OFFCURVE",
"800.833 779.5 OFFCURVE",
"748.5 750.5 CURVE SMOOTH",
"696.167 721.5 OFFCURVE",
"635.667 707 OFFCURVE",
"567 707 CURVE SMOOTH",
"567 707 LINE SMOOTH"
);
},
{
closed = 1;
nodes = (
"656.667 757 OFFCURVE",
"727.833 783.5 OFFCURVE",
"781.5 836.5 CURVE SMOOTH",
"835.167 889.5 OFFCURVE",
"862 956.667 OFFCURVE",
"862 1038 CURVE SMOOTH",
"862 1120 OFFCURVE",
"834.833 1187.333 OFFCURVE",
"780.5 1240 CURVE SMOOTH",
"726.167 1292.667 OFFCURVE",
"656 1319 OFFCURVE",
"570 1319 CURVE SMOOTH",
"506.667 1319 OFFCURVE",
"452 1306.5 OFFCURVE",
"406 1281.5 CURVE SMOOTH",
"360 1256.5 OFFCURVE",
"324.5 1223.167 OFFCURVE",
"299.5 1181.5 CURVE SMOOTH",
"274.5 1139.833 OFFCURVE",
"262 1094.333 OFFCURVE",
"262 1045 CURVE SMOOTH",
"262 951.667 OFFCURVE",
"291.667 880.333 OFFCURVE",
"351 831 CURVE SMOOTH",
"410.333 781.667 OFFCURVE",
"482.667 757 OFFCURVE",
"568 757 CURVE",
"568 757 LINE"
);
},
{
closed = 1;
nodes = (
"564 815 LINE",
"564 859 LINE",
"570 859 LINE SMOOTH",
"621.333 859 OFFCURVE",
"662.167 875.167 OFFCURVE",
"692.5 907.5 CURVE SMOOTH",
"722.833 939.833 OFFCURVE",
"738 983.333 OFFCURVE",
"738 1038 CURVE SMOOTH",
"738 1093.333 OFFCURVE",
"722.833 1137 OFFCURVE",
"692.5 1169 CURVE SMOOTH",
"662.167 1201 OFFCURVE",
"621.333 1217 OFFCURVE",
"570 1217 CURVE SMOOTH",
"564 1217 LINE",
"564 1261 LINE",
"570 1261 LINE SMOOTH",
"637.333 1261 OFFCURVE",
"691.167 1240.667 OFFCURVE",
"731.5 1200 CURVE SMOOTH",
"771.833 1159.333 OFFCURVE",
"792 1105.333 OFFCURVE",
"792 1038 CURVE SMOOTH",
"792 970.667 OFFCURVE",
"771.833 916.667 OFFCURVE",
"731.5 876 CURVE SMOOTH",
"691.167 835.333 OFFCURVE",
"637.333 815 OFFCURVE",
"570 815 CURVE SMOOTH",
"564 815 LINE"
);
}
);
width = 1012;
}
);
leftKerningGroup = "five-deva";
note = "nine-deva";
unicode = 096F;
},
{
glyphname = "zero-ar";
layers = (
{
layerId = "48A8F86F-95FA-4C7F-AEB6-10C2B25A042A";
paths = (
{
closed = 1;
nodes = (
"196 504 LINE",
"196 552 LINE",
"252.667 553.333 OFFCURVE",
"299.333 571.333 OFFCURVE",
"336 606 CURVE SMOOTH",
"372.667 640.667 OFFCURVE",
"391 682.667 OFFCURVE",
"391 732 CURVE SMOOTH",
"391 781.333 OFFCURVE",
"372.667 823.5 OFFCURVE",
"336 858.5 CURVE SMOOTH",
"299.333 893.5 OFFCURVE",
"252.667 911.333 OFFCURVE",
"196 912 CURVE",
"196 960 LINE",
"265.333 960 OFFCURVE",
"324.167 937.833 OFFCURVE",
"372.5 893.5 CURVE SMOOTH",
"420.833 849.167 OFFCURVE",
"445 795.333 OFFCURVE",
"445 732 CURVE SMOOTH",
"445 668.667 OFFCURVE",
"420.833 614.833 OFFCURVE",
"372.5 570.5 CURVE SMOOTH",
"324.167 526.167 OFFCURVE",
"265.333 504 OFFCURVE",
"196 504 CURVE SMOOTH"
);
},
{
closed = 1;
nodes = (
"162 610 OFFCURVE",
"132.5 622 OFFCURVE",
"107.5 646 CURVE SMOOTH",
"82.5 670 OFFCURVE",
"70 698.667 OFFCURVE",
"70 732 CURVE SMOOTH",
"70 765.333 OFFCURVE",
"82.5 794 OFFCURVE",
"107.5 818 CURVE SMOOTH",
"132.5 842 OFFCURVE",
"162 854 OFFCURVE",
"196 854 CURVE SMOOTH",
"229.333 854 OFFCURVE",
"258.5 842 OFFCURVE",
"283.5 818 CURVE SMOOTH",
"308.5 794 OFFCURVE",
"321 765.333 OFFCURVE",
"321 732 CURVE SMOOTH",
"321 698.667 OFFCURVE",
"308.5 670 OFFCURVE",
"283.5 646 CURVE SMOOTH",
"258.5 622 OFFCURVE",
"229.333 610 OFFCURVE",
"196 610 CURVE SMOOTH",
"196 610 LINE SMOOTH"
);
},
{
closed = 1;
nodes = (
"216 660 OFFCURVE",
"232.833 667.333 OFFCURVE",
"246.5 682 CURVE SMOOTH",
"260.167 696.667 OFFCURVE",
"267 713.333 OFFCURVE",
"267 732 CURVE SMOOTH",
"267 750.667 OFFCURVE",
"260.167 767.333 OFFCURVE",
"246.5 782 CURVE SMOOTH",
"232.833 796.667 OFFCURVE",
"216 804 OFFCURVE",
"196 804 CURVE SMOOTH",
"175.333 804 OFFCURVE",
"158.167 796.667 OFFCURVE",
"144.5 782 CURVE SMOOTH",
"130.833 767.333 OFFCURVE",
"124 750.667 OFFCURVE",
"124 732 CURVE SMOOTH",
"124 713.333 OFFCURVE",
"130.833 696.667 OFFCURVE",
"144.5 682 CURVE SMOOTH",
"158.167 667.333 OFFCURVE",
"175.333 660 OFFCURVE",
"196 660 CURVE",
"196 660 LINE"
);
}
);
width = 525;
}
);
leftKerningGroup = "zero-ar";
note = "zero-ar";
rightKerningGroup = "zero-ar";
unicode = 0660;
},
{
glyphname = "one-ar";
layers = (
{
layerId = "48A8F86F-95FA-4C7F-AEB6-10C2B25A042A";
paths = (
{
closed = 1;
nodes = (
"249 0 LINE",
"74 1443 LINE",
"126 1443 LINE",
"301 0 LINE",
"249 0 LINE"
);
},
{
closed = 1;
nodes = (
"371 0 LINE",
"196 1443 LINE",
"248 1443 LINE",
"423 0 LINE",
"371 0 LINE"
);
}
);
width = 498;
}
);
leftKerningGroup = "one-ar";
note = "one-ar";
rightKerningGroup = "one-ar";
unicode = 0661;
},
{
glyphname = "two-ar";
layers = (
{
layerId = "48A8F86F-95FA-4C7F-AEB6-10C2B25A042A";
paths = (
{
closed = 1;
nodes = (
"546 965 OFFCURVE",
"440.667 1006.833 OFFCURVE",
"356 1090.5 CURVE SMOOTH",
"271.333 1174.167 OFFCURVE",
"219.333 1291.667 OFFCURVE",
"200 1443 CURVE",
"238 1443 LINE",
"250.667 1360.333 OFFCURVE",
"275.833 1286.667 OFFCURVE",
"313.5 1222 CURVE SMOOTH",
"351.167 1157.333 OFFCURVE",
"400.167 1106.667 OFFCURVE",
"460.5 1070 CURVE SMOOTH",
"520.833 1033.333 OFFCURVE",
"591.333 1015 OFFCURVE",
"672 1015 CURVE SMOOTH",
"775.333 1015 OFFCURVE",
"856.167 1050 OFFCURVE",
"914.5 1120 CURVE SMOOTH",
"972.833 1190 OFFCURVE",
"1002 1297.667 OFFCURVE",
"1002 1443 CURVE",
"1052 1443 LINE",
"1052 1290.333 OFFCURVE",
"1019.333 1172.5 OFFCURVE",
"954 1089.5 CURVE SMOOTH",
"888.667 1006.5 OFFCURVE",
"794.667 965 OFFCURVE",
"672 965 CURVE SMOOTH",
"672 965 LINE SMOOTH"
);
},
{
closed = 1;
nodes = (
"247 0 LINE",
"64 1443 LINE",
"116 1443 LINE",
"299 0 LINE",
"247 0 LINE"
);
},
{
closed = 1;
nodes = (
"369 0 LINE",
"186 1443 LINE",
"238 1443 LINE",
"421 0 LINE",
"369 0 LINE"
);
},
{
closed = 1;
nodes = (
"603.333 863 OFFCURVE",
"544 872 OFFCURVE",
"494 890 CURVE SMOOTH",
"444 908 OFFCURVE",
"402.667 927.667 OFFCURVE",
"370 949 CURVE",
"363 1007 LINE",
"392.333 984.333 OFFCURVE",
"432.5 962 OFFCURVE",
"483.5 940 CURVE SMOOTH",
"534.5 918 OFFCURVE",
"597.333 907 OFFCURVE",
"672 907 CURVE SMOOTH",
"678 907 LINE",
"678 863 LINE",
"672 863 LINE",
"672 863 LINE SMOOTH"
);
},
{
closed = 1;
nodes = (
"666 1073 LINE",
"666 1117 LINE",
"672 1117 LINE SMOOTH",
"752 1117 OFFCURVE",
"806.333 1147.667 OFFCURVE",
"835 1209 CURVE SMOOTH",
"863.667 1270.333 OFFCURVE",
"878 1348.333 OFFCURVE",
"878 1443 CURVE",
"928 1443 LINE",
"928 1332.333 OFFCURVE",
"909 1243 OFFCURVE",
"871 1175 CURVE SMOOTH",
"833 1107 OFFCURVE",
"766.667 1073 OFFCURVE",
"672 1073 CURVE SMOOTH",
"666 1073 LINE"
);
}
);
width = 1112;
}
);
leftKerningGroup = "one-ar";
note = "two-ar";
rightKerningGroup = "two-ar";
unicode = 0662;
},
{
glyphname = "three-ar";
layers = (
{
layerId = "48A8F86F-95FA-4C7F-AEB6-10C2B25A042A";
paths = (
{
closed = 1;
nodes = (
"247 0 LINE",
"64 1443 LINE",
"116 1443 LINE",
"299 0 LINE",
"247 0 LINE"
);
},
{
closed = 1;
nodes = (
"369 0 LINE",
"186 1443 LINE",
"238 1443 LINE",
"421 0 LINE",
"369 0 LINE"
);
},
{
closed = 1;
nodes = (
"420.667 965 OFFCURVE",
"361.167 987.667 OFFCURVE",
"311.5 1033 CURVE SMOOTH",
"261.833 1078.333 OFFCURVE",
"231 1151.333 OFFCURVE",
"219 1252 CURVE SMOOTH",
"196 1443 LINE",
"238 1443 LINE",
"262 1258 LINE SMOOTH",
"273.333 1172 OFFCURVE",
"299.333 1110 OFFCURVE",
"340 1072 CURVE SMOOTH",
"380.667 1034 OFFCURVE",
"430.667 1015 OFFCURVE",
"490 1015 CURVE SMOOTH",
"555.333 1015 OFFCURVE",
"604.167 1036.167 OFFCURVE",
"636.5 1078.5 CURVE SMOOTH",
"668.833 1120.833 OFFCURVE",
"685 1188.333 OFFCURVE",
"685 1281 CURVE SMOOTH",
"685 1443 LINE",
"726 1443 LINE",
"726 1281 LINE SMOOTH",
"726 1168.333 OFFCURVE",
"704.667 1087.5 OFFCURVE",
"662 1038.5 CURVE SMOOTH",
"619.333 989.5 OFFCURVE",
"562 965 OFFCURVE",
"490 965 CURVE SMOOTH",
"490 965 LINE SMOOTH"
);
},
{
closed = 1;
nodes = (
"858 965 OFFCURVE",
"800.667 989.5 OFFCURVE",
"758 1038.5 CURVE SMOOTH",
"715.333 1087.5 OFFCURVE",
"694 1168.333 OFFCURVE",
"694 1281 CURVE SMOOTH",
"694 1443 LINE",
"735 1443 LINE",
"735 1281 LINE SMOOTH",
"735 1188.333 OFFCURVE",
"751.333 1120.833 OFFCURVE",
"784 1078.5 CURVE SMOOTH",
"816.667 1036.167 OFFCURVE",
"865.333 1015 OFFCURVE",
"930 1015 CURVE SMOOTH",
"995.333 1015 OFFCURVE",
"1044.167 1036.167 OFFCURVE",
"1076.5 1078.5 CURVE SMOOTH",
"1108.833 1120.833 OFFCURVE",
"1125 1188.333 OFFCURVE",
"1125 1281 CURVE SMOOTH",
"1125 1443 LINE",
"1177 1443 LINE",
"1177 1281 LINE SMOOTH",
"1177 1168.333 OFFCURVE",
"1154 1087.5 OFFCURVE",
"1108 1038.5 CURVE SMOOTH",
"1062 989.5 OFFCURVE",
"1002.667 965 OFFCURVE",
"930 965 CURVE SMOOTH",
"930 965 LINE SMOOTH"
);
},
{
closed = 1;
nodes = (
"483 1073 LINE",
"483 1117 LINE",
"489 1117 LINE SMOOTH",
"513 1117 OFFCURVE",
"532.5 1127.167 OFFCURVE",
"547.5 1147.5 CURVE SMOOTH",
"562.5 1167.833 OFFCURVE",
"570 1212.333 OFFCURVE",
"570 1281 CURVE SMOOTH",
"570 1443 LINE",
"620 1443 LINE",
"620 1281 LINE SMOOTH",
"620 1199.667 OFFCURVE",
"609 1144.667 OFFCURVE",
"587 1116 CURVE SMOOTH",
"565 1087.333 OFFCURVE",
"532.333 1073 OFFCURVE",
"489 1073 CURVE SMOOTH",
"483 1073 LINE"
);
},
{
closed = 1;
nodes = (
"923 1073 LINE",
"923 1117 LINE",
"929 1117 LINE SMOOTH",
"953 1117 OFFCURVE",
"972.5 1127.167 OFFCURVE",
"987.5 1147.5 CURVE SMOOTH",
"1002.5 1167.833 OFFCURVE",
"1010 1212.333 OFFCURVE",
"1010 1281 CURVE SMOOTH",
"1010 1443 LINE",
"1060 1443 LINE",
"1060 1281 LINE SMOOTH",
"1060 1199.667 OFFCURVE",
"1049 1144.667 OFFCURVE",
"1027 1116 CURVE SMOOTH",
"1005 1087.333 OFFCURVE",
"972.333 1073 OFFCURVE",
"929 1073 CURVE SMOOTH",
"923 1073 LINE"
);
},
{
closed = 1;
nodes = (
"467.333 863 OFFCURVE",
"445.833 864.833 OFFCURVE",
"425.5 868.5 CURVE SMOOTH",
"405.167 872.167 OFFCURVE",
"388.667 876.333 OFFCURVE",
"376 881 CURVE",
"370 930 LINE",
"381.333 924.667 OFFCURVE",
"397 919.5 OFFCURVE",
"417 914.5 CURVE SMOOTH",
"437 909.5 OFFCURVE",
"461.333 907 OFFCURVE",
"490 907 CURVE SMOOTH",
"533.333 907 OFFCURVE",
"573.667 915 OFFCURVE",
"611 931 CURVE SMOOTH",
"648.333 947 OFFCURVE",
"680.667 975.333 OFFCURVE",
"708 1016 CURVE",
"714 1016 LINE",
"741.333 975.333 OFFCURVE",
"773.667 947 OFFCURVE",
"811 931 CURVE SMOOTH",
"848.333 915 OFFCURVE",
"888 907 OFFCURVE",
"930 907 CURVE SMOOTH",
"936 907 LINE",
"936 863 LINE",
"930 863 LINE SMOOTH",
"883.333 863 OFFCURVE",
"839.333 871.833 OFFCURVE",
"798 889.5 CURVE SMOOTH",
"756.667 907.167 OFFCURVE",
"721 937.667 OFFCURVE",
"691 981 CURVE",
"731 981 LINE",
"701 937.667 OFFCURVE",
"665.333 907.167 OFFCURVE",
"624 889.5 CURVE SMOOTH",
"582.667 871.833 OFFCURVE",
"538 863 OFFCURVE",
"490 863 CURVE SMOOTH",
"490 863 LINE SMOOTH"
);
}
);
width = 1229;
}
);
leftKerningGroup = "one-ar";
note = "three-ar";
rightKerningGroup = "two-ar";
unicode = 0663;
},
{
glyphname = "four-ar";
layers = (
{
layerId = "48A8F86F-95FA-4C7F-AEB6-10C2B25A042A";
paths = (
{
closed = 1;
nodes = (
"489 -28 OFFCURVE",
"405.833 -13.667 OFFCURVE",
"331.5 15 CURVE SMOOTH",
"257.167 43.667 OFFCURVE",
"198.333 87 OFFCURVE",
"155 145 CURVE SMOOTH",
"111.667 203 OFFCURVE",
"90 275.667 OFFCURVE",
"90 363 CURVE SMOOTH",
"90 443.667 OFFCURVE",
"110.667 516 OFFCURVE",
"152 580 CURVE SMOOTH",
"193.333 644 OFFCURVE",
"246.667 691.667 OFFCURVE",
"312 723 CURVE",
"312 704 LINE",
"254.667 721.333 OFFCURVE",
"204 757.5 OFFCURVE",
"160 812.5 CURVE SMOOTH",
"116 867.5 OFFCURVE",
"94 939 OFFCURVE",
"94 1027 CURVE SMOOTH",
"94 1115.667 OFFCURVE",
"126 1197.333 OFFCURVE",
"190 1272 CURVE SMOOTH",
"254 1346.667 OFFCURVE",
"351 1408 OFFCURVE",
"481 1456 CURVE",
"481 1408 LINE",
"374.333 1364 OFFCURVE",
"292.167 1310.167 OFFCURVE",
"234.5 1246.5 CURVE SMOOTH",
"176.833 1182.833 OFFCURVE",
"148 1109.667 OFFCURVE",
"148 1027 CURVE SMOOTH",
"148 953 OFFCURVE",
"168.333 888.667 OFFCURVE",
"209 834 CURVE SMOOTH",
"249.667 779.333 OFFCURVE",
"309.667 743.667 OFFCURVE",
"389 727 CURVE",
"389 711 LINE",
"315 681.667 OFFCURVE",
"255.667 636.333 OFFCURVE",
"211 575 CURVE SMOOTH",
"166.333 513.667 OFFCURVE",
"144 443 OFFCURVE",
"144 363 CURVE SMOOTH",
"144 285 OFFCURVE",
"163.333 220.333 OFFCURVE",
"202 169 CURVE SMOOTH",
"240.667 117.667 OFFCURVE",
"293 79.333 OFFCURVE",
"359 54 CURVE SMOOTH",
"425 28.667 OFFCURVE",
"499.333 16 OFFCURVE",
"582 16 CURVE SMOOTH",
"588 16 LINE",
"588 -28 LINE",
"581 -28 LINE",
"581 -28 LINE SMOOTH"
);
},
{
closed = 1;
nodes = (
"575 177 LINE",
"575 221 LINE",
"581 221 LINE SMOOTH",
"623.667 221 OFFCURVE",
"669.5 225.5 OFFCURVE",
"718.5 234.5 CURVE SMOOTH",
"767.5 243.5 OFFCURVE",
"817.333 255.667 OFFCURVE",
"868 271 CURVE",
"868 224 LINE",
"816 209.333 OFFCURVE",
"765 197.833 OFFCURVE",
"715 189.5 CURVE SMOOTH",
"665 181.167 OFFCURVE",
"620.333 177 OFFCURVE",
"581 177 CURVE SMOOTH",
"575 177 LINE"
);
},
{
closed = 1;
nodes = (
"465 74 OFFCURVE",
"375.167 101 OFFCURVE",
"311.5 155 CURVE SMOOTH",
"247.833 209 OFFCURVE",
"216 278.333 OFFCURVE",
"216 363 CURVE SMOOTH",
"216 419 OFFCURVE",
"228.833 467.333 OFFCURVE",
"254.5 508 CURVE SMOOTH",
"280.167 548.667 OFFCURVE",
"313.667 583 OFFCURVE",
"355 611 CURVE SMOOTH",
"396.333 639 OFFCURVE",
"440.833 662.167 OFFCURVE",
"488.5 680.5 CURVE SMOOTH",
"536.167 698.833 OFFCURVE",
"582 713.667 OFFCURVE",
"626 725 CURVE SMOOTH",
"706 746 LINE",
"706 696 LINE",
"627 675 LINE SMOOTH",
"504.333 642.333 OFFCURVE",
"414.167 600 OFFCURVE",
"356.5 548 CURVE SMOOTH",
"298.833 496 OFFCURVE",
"270 434.333 OFFCURVE",
"270 363 CURVE SMOOTH",
"270 287 OFFCURVE",
"297.667 227.5 OFFCURVE",
"353 184.5 CURVE SMOOTH",
"408.333 141.5 OFFCURVE",
"484.333 120 OFFCURVE",
"581 120 CURVE SMOOTH",
"628.333 120 OFFCURVE",
"676.5 124.167 OFFCURVE",
"725.5 132.5 CURVE SMOOTH",
"774.5 140.833 OFFCURVE",
"822 152.333 OFFCURVE",
"868 167 CURVE",
"868 119 LINE",
"827.333 106.333 OFFCURVE",
"781.833 95.667 OFFCURVE",
"731.5 87 CURVE SMOOTH",
"681.167 78.333 OFFCURVE",
"631 74 OFFCURVE",
"581 74 CURVE SMOOTH",
"581 74 LINE SMOOTH"
);
},
{
closed = 1;
nodes = (
"538.333 769 OFFCURVE",
"463.833 767.833 OFFCURVE",
"403.5 785.5 CURVE SMOOTH",
"343.167 803.167 OFFCURVE",
"297.5 833.667 OFFCURVE",
"266.5 877 CURVE SMOOTH",
"235.5 920.333 OFFCURVE",
"220 970.333 OFFCURVE",
"220 1027 CURVE SMOOTH",
"220 1124.333 OFFCURVE",
"266.667 1207.333 OFFCURVE",
"360 1276 CURVE SMOOTH",
"453.333 1344.667 OFFCURVE",
"580 1388.667 OFFCURVE",
"740 1408 CURVE",
"740 1361 LINE",
"596 1341 OFFCURVE",
"482.333 1301.333 OFFCURVE",
"399 1242 CURVE SMOOTH",
"315.667 1182.667 OFFCURVE",
"274 1111.667 OFFCURVE",
"274 1029 CURVE SMOOTH",
"274 984.333 OFFCURVE",
"285.833 944 OFFCURVE",
"309.5 908 CURVE SMOOTH",
"333.167 872 OFFCURVE",
"370.667 846.833 OFFCURVE",
"422 832.5 CURVE SMOOTH",
"473.333 818.167 OFFCURVE",
"541.333 820.333 OFFCURVE",
"626 839 CURVE SMOOTH",
"706 857 LINE",
"706 807 LINE",
"627 789 LINE",
"627 789 LINE"
);
},
{
closed = 1;
nodes = (
"481 1175 LINE",
"481 1228 LINE",
"523 1250.667 OFFCURVE",
"563.167 1267.333 OFFCURVE",
"601.5 1278 CURVE SMOOTH",
"639.833 1288.667 OFFCURVE",
"686 1297.333 OFFCURVE",
"740 1304 CURVE",
"740 1254 LINE",
"694.667 1249.333 OFFCURVE",
"649 1240.167 OFFCURVE",
"603 1226.5 CURVE SMOOTH",
"557 1212.833 OFFCURVE",
"516.333 1195.667 OFFCURVE",
"481 1175 CURVE"
);
}
);
width = 902;
}
);
note = "four-ar";
unicode = 0664;
},
{
glyphname = "five-ar";
layers = (
{
layerId = "48A8F86F-95FA-4C7F-AEB6-10C2B25A042A";
paths = (
{
closed = 1;
nodes = (
"360.333 283 OFFCURVE",
"263.333 323 OFFCURVE",
"198 403 CURVE SMOOTH",
"132.667 483 OFFCURVE",
"100 585.667 OFFCURVE",
"100 711 CURVE SMOOTH",
"100 802.333 OFFCURVE",
"115.833 885 OFFCURVE",
"147.5 959 CURVE SMOOTH",
"179.167 1033 OFFCURVE",
"224 1091.833 OFFCURVE",
"282 1135.5 CURVE SMOOTH",
"340 1179.167 OFFCURVE",
"409 1201 OFFCURVE",
"489 1201 CURVE SMOOTH",
"569 1201 OFFCURVE",
"637.5 1179.167 OFFCURVE",
"694.5 1135.5 CURVE SMOOTH",
"751.5 1091.833 OFFCURVE",
"795.167 1033 OFFCURVE",
"825.5 959 CURVE SMOOTH",
"855.833 885 OFFCURVE",
"871 802.333 OFFCURVE",
"871 711 CURVE SMOOTH",
"871 583 OFFCURVE",
"838.833 479.667 OFFCURVE",
"774.5 401 CURVE SMOOTH",
"710.167 322.333 OFFCURVE",
"615 283 OFFCURVE",
"489 283 CURVE SMOOTH",
"489 283 LINE SMOOTH"
);
},
{
closed = 1;
nodes = (
"398.333 391 OFFCURVE",
"331.833 420.667 OFFCURVE",
"289.5 480 CURVE SMOOTH",
"247.167 539.333 OFFCURVE",
"226 616 OFFCURVE",
"226 710 CURVE SMOOTH",
"226 781.333 OFFCURVE",
"236.5 846 OFFCURVE",
"257.5 904 CURVE SMOOTH",
"278.5 962 OFFCURVE",
"308.667 1008 OFFCURVE",
"348 1042 CURVE SMOOTH",
"387.333 1076 OFFCURVE",
"434.333 1093 OFFCURVE",
"489 1093 CURVE SMOOTH",
"495 1093 LINE",
"495 1049 LINE",
"489 1049 LINE SMOOTH",
"445.667 1049 OFFCURVE",
"408.333 1033.167 OFFCURVE",
"377 1001.5 CURVE SMOOTH",
"345.667 969.833 OFFCURVE",
"321.667 928.167 OFFCURVE",
"305 876.5 CURVE SMOOTH",
"288.333 824.833 OFFCURVE",
"280 769 OFFCURVE",
"280 709 CURVE SMOOTH",
"280 632.333 OFFCURVE",
"296.167 567.5 OFFCURVE",
"328.5 514.5 CURVE SMOOTH",
"360.833 461.5 OFFCURVE",
"414.333 435 OFFCURVE",
"489 435 CURVE SMOOTH",
"495 435 LINE",
"495 391 LINE",
"489 391 LINE",
"489 391 LINE SMOOTH"
);
},
{
closed = 1;
nodes = (
"601 333 OFFCURVE",
"683.667 368.5 OFFCURVE",
"737 439.5 CURVE SMOOTH",
"790.333 510.5 OFFCURVE",
"817 600.667 OFFCURVE",
"817 710 CURVE SMOOTH",
"817 791.333 OFFCURVE",
"804 865.333 OFFCURVE",
"778 932 CURVE SMOOTH",
"752 998.667 OFFCURVE",
"714.5 1051.833 OFFCURVE",
"665.5 1091.5 CURVE SMOOTH",
"616.5 1131.167 OFFCURVE",
"557.667 1151 OFFCURVE",
"489 1151 CURVE SMOOTH",
"420.333 1151 OFFCURVE",
"361 1131.167 OFFCURVE",
"311 1091.5 CURVE SMOOTH",
"261 1051.833 OFFCURVE",
"222.333 998.667 OFFCURVE",
"195 932 CURVE SMOOTH",
"167.667 865.333 OFFCURVE",
"154 791.333 OFFCURVE",
"154 710 CURVE SMOOTH",
"154 600.667 OFFCURVE",
"181.667 510.5 OFFCURVE",
"237 439.5 CURVE SMOOTH",
"292.333 368.5 OFFCURVE",
"376.333 333 OFFCURVE",
"489 333 CURVE",
"489 333 LINE"
);
},
{
closed = 1;
nodes = (
"483 181 LINE",
"483 225 LINE",
"489 225 LINE SMOOTH",
"587 225 OFFCURVE",
"669.667 245.5 OFFCURVE",
"737 286.5 CURVE SMOOTH",
"804.333 327.5 OFFCURVE",
"855.5 384.5 OFFCURVE",
"890.5 457.5 CURVE SMOOTH",
"925.5 530.5 OFFCURVE",
"943 615 OFFCURVE",
"943 711 CURVE SMOOTH",
"943 812.333 OFFCURVE",
"924.833 904.5 OFFCURVE",
"888.5 987.5 CURVE SMOOTH",
"852.167 1070.5 OFFCURVE",
"800.167 1136.5 OFFCURVE",
"732.5 1185.5 CURVE SMOOTH",
"664.833 1234.5 OFFCURVE",
"583.667 1259 OFFCURVE",
"489 1259 CURVE SMOOTH",
"483 1259 LINE",
"483 1303 LINE",
"489 1303 LINE SMOOTH",
"596.333 1303 OFFCURVE",
"687.833 1277.333 OFFCURVE",
"763.5 1226 CURVE SMOOTH",
"839.167 1174.667 OFFCURVE",
"897 1104.5 OFFCURVE",
"937 1015.5 CURVE SMOOTH",
"977 926.5 OFFCURVE",
"997 825.333 OFFCURVE",
"997 712 CURVE SMOOTH",
"997 548.667 OFFCURVE",
"953.5 419.333 OFFCURVE",
"866.5 324 CURVE SMOOTH",
"779.5 228.667 OFFCURVE",
"653.667 181 OFFCURVE",
"489 181 CURVE SMOOTH",
"483 181 LINE"
);
}
);
width = 1097;
}
);
note = "five-ar";
unicode = 0665;
},
{
glyphname = "six-ar";
layers = (
{
layerId = "48A8F86F-95FA-4C7F-AEB6-10C2B25A042A";
paths = (
{
closed = 1;
nodes = (
"876 0 LINE",
"701 1443 LINE",
"753 1443 LINE",
"928 0 LINE",
"876 0 LINE"
);
},
{
closed = 1;
nodes = (
"754 0 LINE",
"579 1443 LINE",
"631 1443 LINE",
"806 0 LINE",
"754 0 LINE"
);
},
{
closed = 1;
nodes = (
"36 1281 LINE",
"36 1329 LINE",
"523 1329 LINE",
"529 1281 LINE",
"36 1281 LINE"
);
},
{
closed = 1;
nodes = (
"36 1395 LINE",
"36 1443 LINE",
"509 1443 LINE",
"515 1395 LINE",
"36 1395 LINE"
);
}
);
width = 1003;
}
);
note = "six-ar";
rightKerningGroup = "one-ar";
unicode = 0666;
},
{
glyphname = "seven-ar";
layers = (
{
layerId = "48A8F86F-95FA-4C7F-AEB6-10C2B25A042A";
paths = (
{
closed = 1;
nodes = (
"652 0 LINE",
"1055 1443 LINE",
"1106 1443 LINE",
"703 0 LINE",
"652 0 LINE"
);
},
{
closed = 1;
nodes = (
"473 37 LINE",
"54 1443 LINE",
"106 1443 LINE",
"497 123 LINE",
"473 37 LINE"
);
},
{
closed = 1;
nodes = (
"523 218 LINE",
"176 1443 LINE",
"228 1443 LINE",
"547 302 LINE",
"523 218 LINE"
);
},
{
closed = 1;
nodes = (
"531 0 LINE",
"934 1443 LINE",
"985 1443 LINE",
"582 0 LINE",
"531 0 LINE"
);
}
);
width = 1160;
}
);
leftKerningGroup = "seven-ar";
note = "seven-ar";
rightKerningGroup = "seven-ar";
unicode = 0667;
},
{
glyphname = "eight-ar";
layers = (
{
layerId = "48A8F86F-95FA-4C7F-AEB6-10C2B25A042A";
paths = (
{
closed = 1;
nodes = (
"508 1443 LINE",
"105 0 LINE",
"54 0 LINE",
"457 1443 LINE",
"508 1443 LINE"
);
},
{
closed = 1;
nodes = (
"687 1406 LINE",
"1106 0 LINE",
"1054 0 LINE",
"663 1320 LINE",
"687 1406 LINE"
);
},
{
closed = 1;
nodes = (
"637 1225 LINE",
"984 0 LINE",
"932 0 LINE",
"613 1141 LINE",
"637 1225 LINE"
);
},
{
closed = 1;
nodes = (
"629 1443 LINE",
"226 0 LINE",
"175 0 LINE",
"578 1443 LINE",
"629 1443 LINE"
);
}
);
width = 1160;
}
);
leftKerningGroup = "eight-ar";
note = "eight-ar";
rightKerningGroup = "eight-ar";
unicode = 0668;
},
{
glyphname = "nine-ar";
layers = (
{
layerId = "48A8F86F-95FA-4C7F-AEB6-10C2B25A042A";
paths = (
{
closed = 1;
nodes = (
"763 0 LINE",
"639 1022 LINE SMOOTH",
"627 1121.333 OFFCURVE",
"597.667 1195.667 OFFCURVE",
"551 1245 CURVE SMOOTH",
"504.333 1294.333 OFFCURVE",
"443.333 1319 OFFCURVE",
"368 1319 CURVE SMOOTH",
"287.333 1319 OFFCURVE",
"223.5 1293.333 OFFCURVE",
"176.5 1242 CURVE SMOOTH",
"129.5 1190.667 OFFCURVE",
"106 1127.333 OFFCURVE",
"106 1052 CURVE SMOOTH",
"106 975.333 OFFCURVE",
"131.5 911 OFFCURVE",
"182.5 859 CURVE SMOOTH",
"233.5 807 OFFCURVE",
"308.667 781 OFFCURVE",
"408 781 CURVE SMOOTH",
"469.333 781 OFFCURVE",
"525.5 790 OFFCURVE",
"576.5 808 CURVE SMOOTH",
"627.5 826 OFFCURVE",
"663 844.333 OFFCURVE",
"683 863 CURVE",
"689 811 LINE",
"660.333 789.667 OFFCURVE",
"619.833 771 OFFCURVE",
"567.5 755 CURVE SMOOTH",
"515.167 739 OFFCURVE",
"461.333 731 OFFCURVE",
"406 731 CURVE SMOOTH",
"304.667 731 OFFCURVE",
"221 760.167 OFFCURVE",
"155 818.5 CURVE SMOOTH",
"89 876.833 OFFCURVE",
"56 954.333 OFFCURVE",
"56 1051 CURVE SMOOTH",
"56 1109.667 OFFCURVE",
"68.667 1162.833 OFFCURVE",
"94 1210.5 CURVE SMOOTH",
"119.333 1258.167 OFFCURVE",
"155.5 1296.167 OFFCURVE",
"202.5 1324.5 CURVE SMOOTH",
"249.5 1352.833 OFFCURVE",
"304.667 1367 OFFCURVE",
"368 1367 CURVE SMOOTH",
"456.667 1367 OFFCURVE",
"529.167 1338 OFFCURVE",
"585.5 1280 CURVE SMOOTH",
"641.833 1222 OFFCURVE",
"676.667 1137.667 OFFCURVE",
"690 1027 CURVE SMOOTH",
"815 0 LINE",
"763 0 LINE"
);
},
{
closed = 1;
nodes = (
"362 630 LINE",
"362 674 LINE",
"414 671.333 OFFCURVE",
"460.333 673.667 OFFCURVE",
"501 681 CURVE SMOOTH",
"541.667 688.333 OFFCURVE",
"577 697 OFFCURVE",
"607 707 CURVE",
"613 663 LINE",
"576.333 651 OFFCURVE",
"537.833 641.833 OFFCURVE",
"497.5 635.5 CURVE SMOOTH",
"457.167 629.167 OFFCURVE",
"412 627.333 OFFCURVE",
"362 630 CURVE"
);
},
{
closed = 1;
nodes = (
"310.667 839 OFFCURVE",
"262.333 858.833 OFFCURVE",
"223 898.5 CURVE SMOOTH",
"183.667 938.167 OFFCURVE",
"164 989.667 OFFCURVE",
"164 1053 CURVE SMOOTH",
"164 1115 OFFCURVE",
"183.667 1165.167 OFFCURVE",
"223 1203.5 CURVE SMOOTH",
"262.333 1241.833 OFFCURVE",
"310.667 1261 OFFCURVE",
"368 1261 CURVE SMOOTH",
"374 1261 LINE",
"374 1215 LINE",
"368 1215 LINE SMOOTH",
"325.333 1215 OFFCURVE",
"289 1200.667 OFFCURVE",
"259 1172 CURVE SMOOTH",
"229 1143.333 OFFCURVE",
"214 1103.667 OFFCURVE",
"214 1053 CURVE SMOOTH",
"214 1003 OFFCURVE",
"229 962.5 OFFCURVE",
"259 931.5 CURVE SMOOTH",
"289 900.5 OFFCURVE",
"325.333 885 OFFCURVE",
"368 885 CURVE SMOOTH",
"374 885 LINE",
"374 839 LINE",
"368 839 LINE",
"368 839 LINE SMOOTH"
);
},
{
closed = 1;
nodes = (
"885 0 LINE",
"760 1027 LINE SMOOTH",
"744 1160.333 OFFCURVE",
"702.333 1260 OFFCURVE",
"635 1326 CURVE SMOOTH",
"567.667 1392 OFFCURVE",
"479.333 1425 OFFCURVE",
"370 1425 CURVE SMOOTH",
"364 1425 LINE",
"364 1471 LINE",
"370 1471 LINE SMOOTH",
"491.333 1471 OFFCURVE",
"590.833 1434.833 OFFCURVE",
"668.5 1362.5 CURVE SMOOTH",
"746.167 1290.167 OFFCURVE",
"793.667 1181.667 OFFCURVE",
"811 1037 CURVE SMOOTH",
"937 0 LINE",
"885 0 LINE"
);
}
);
width = 1000;
}
);
leftKerningGroup = "nine-ar";
note = "nine-ar";
rightKerningGroup = "nine-ar";
unicode = 0669;
},
{
glyphname = "four-persian";
layers = (
{
layerId = "48A8F86F-95FA-4C7F-AEB6-10C2B25A042A";
paths = (
{
closed = 1;
nodes = (
"609.667 921 OFFCURVE",
"468.5 966.667 OFFCURVE",
"373.5 1058 CURVE SMOOTH",
"278.5 1149.333 OFFCURVE",
"221.333 1277.667 OFFCURVE",
"202 1443 CURVE",
"240 1443 LINE",
"252.667 1351.667 OFFCURVE",
"279.5 1270.333 OFFCURVE",
"320.5 1199 CURVE SMOOTH",
"361.5 1127.667 OFFCURVE",
"420.667 1071.833 OFFCURVE",
"498 1031.5 CURVE SMOOTH",
"575.333 991.167 OFFCURVE",
"675 971 OFFCURVE",
"797 971 CURVE SMOOTH",
"1019 971 LINE",
"1019 921 LINE",
"797 921 LINE",
"797 921 LINE SMOOTH"
);
},
{
closed = 1;
nodes = (
"247 0 LINE",
"64 1443 LINE",
"116 1443 LINE",
"299 0 LINE",
"247 0 LINE"
);
},
{
closed = 1;
nodes = (
"371 0 LINE",
"188 1443 LINE",
"240 1443 LINE",
"423 0 LINE",
"371 0 LINE"
);
},
{
closed = 1;
nodes = (
"710.333 813 OFFCURVE",
"639.833 817.167 OFFCURVE",
"585.5 825.5 CURVE SMOOTH",
"531.167 833.833 OFFCURVE",
"487.667 844.667 OFFCURVE",
"455 858 CURVE SMOOTH",
"422.333 871.333 OFFCURVE",
"395 885.333 OFFCURVE",
"373 900 CURVE",
"365 963 LINE",
"384.333 948.333 OFFCURVE",
"410.333 933.167 OFFCURVE",
"443 917.5 CURVE SMOOTH",
"475.667 901.833 OFFCURVE",
"520.167 888.833 OFFCURVE",
"576.5 878.5 CURVE SMOOTH",
"632.833 868.167 OFFCURVE",
"706.333 863 OFFCURVE",
"797 863 CURVE SMOOTH",
"1019 863 LINE",
"1019 813 LINE",
"797 813 LINE",
"797 813 LINE SMOOTH"
);
},
{
closed = 1;
nodes = (
"447.333 1152.333 OFFCURVE",
"431.667 1167.667 OFFCURVE",
"419 1181 CURVE",
"423 1266.333 OFFCURVE",
"459 1336 OFFCURVE",
"527 1390 CURVE SMOOTH",
"595 1444 OFFCURVE",
"683.667 1471 OFFCURVE",
"793 1471 CURVE SMOOTH",
"799 1471 LINE",
"799 1427 LINE",
"793 1427 LINE SMOOTH",
"692.333 1427 OFFCURVE",
"612.5 1401.833 OFFCURVE",
"553.5 1351.5 CURVE SMOOTH",
"494.5 1301.167 OFFCURVE",
"464.667 1238.333 OFFCURVE",
"464 1163 CURVE SMOOTH",
"464 1158.333 OFFCURVE",
"464.167 1153.833 OFFCURVE",
"464.5 1149.5 CURVE SMOOTH",
"464.833 1145.167 OFFCURVE",
"465.333 1140.333 OFFCURVE",
"466 1135 CURVE",
"466 1135 LINE"
);
},
{
closed = 1;
nodes = (
"706.333 937 OFFCURVE",
"639.833 959.667 OFFCURVE",
"597.5 1005 CURVE SMOOTH",
"555.167 1050.333 OFFCURVE",
"534 1100.333 OFFCURVE",
"534 1155 CURVE SMOOTH",
"534 1216.333 OFFCURVE",
"556.833 1267.333 OFFCURVE",
"602.5 1308 CURVE SMOOTH",
"648.167 1348.667 OFFCURVE",
"711.667 1369 OFFCURVE",
"793 1369 CURVE SMOOTH",
"833.667 1369 OFFCURVE",
"872.167 1363.833 OFFCURVE",
"908.5 1353.5 CURVE SMOOTH",
"944.833 1343.167 OFFCURVE",
"975 1331.667 OFFCURVE",
"999 1319 CURVE",
"999 1269 LINE",
"979.667 1281 OFFCURVE",
"951 1292.333 OFFCURVE",
"913 1303 CURVE SMOOTH",
"875 1313.667 OFFCURVE",
"835 1319 OFFCURVE",
"793 1319 CURVE SMOOTH",
"725.667 1319 OFFCURVE",
"674.667 1303.5 OFFCURVE",
"640 1272.5 CURVE SMOOTH",
"605.333 1241.5 OFFCURVE",
"588 1202.333 OFFCURVE",
"588 1155 CURVE SMOOTH",
"588 1106.333 OFFCURVE",
"606 1063.5 OFFCURVE",
"642 1026.5 CURVE SMOOTH",
"678 989.5 OFFCURVE",
"729.667 971 OFFCURVE",
"797 971 CURVE",
"797 937 LINE",
"797 937 LINE SMOOTH"
);
},
{
closed = 1;
nodes = (
"964.333 1181.333 OFFCURVE",
"928.667 1195.333 OFFCURVE",
"892 1204 CURVE SMOOTH",
"855.333 1212.667 OFFCURVE",
"822.333 1217 OFFCURVE",
"793 1217 CURVE SMOOTH",
"787 1217 LINE",
"787 1261 LINE",
"793 1261 LINE SMOOTH",
"819 1261 OFFCURVE",
"851.667 1256.333 OFFCURVE",
"891 1247 CURVE SMOOTH",
"930.333 1237.667 OFFCURVE",
"966.333 1224 OFFCURVE",
"999 1206 CURVE",
"999 1162 LINE",
"999 1162 LINE"
);
}
);
width = 1071;
}
);
leftKerningGroup = "one-ar";
note = "four-persian";
unicode = 06F4;
},
{
glyphname = "five-persian";
layers = (
{
layerId = "48A8F86F-95FA-4C7F-AEB6-10C2B25A042A";
paths = (
{
closed = 1;
nodes = (
"817.333 92 OFFCURVE",
"760.833 115.667 OFFCURVE",
"718.5 163 CURVE SMOOTH",
"676.167 210.333 OFFCURVE",
"655 287.667 OFFCURVE",
"655 395 CURVE SMOOTH",
"655 490 LINE",
"696 490 LINE",
"696 395 LINE SMOOTH",
"696 307 OFFCURVE",
"712 242.833 OFFCURVE",
"744 202.5 CURVE SMOOTH",
"776 162.167 OFFCURVE",
"824 142 OFFCURVE",
"888 142 CURVE SMOOTH",
"948.667 142 OFFCURVE",
"994.667 162.5 OFFCURVE",
"1026 203.5 CURVE SMOOTH",
"1057.333 244.5 OFFCURVE",
"1073 308.333 OFFCURVE",
"1073 395 CURVE SMOOTH",
"1073 513 OFFCURVE",
"1045.5 629.5 OFFCURVE",
"990.5 744.5 CURVE SMOOTH",
"935.5 859.5 OFFCURVE",
"858.667 970.833 OFFCURVE",
"760 1078.5 CURVE SMOOTH",
"661.333 1186.167 OFFCURVE",
"545.667 1287.667 OFFCURVE",
"413 1383 CURVE",
"413 1443 LINE",
"551 1348.333 OFFCURVE",
"673.667 1244.167 OFFCURVE",
"781 1130.5 CURVE SMOOTH",
"888.333 1016.833 OFFCURVE",
"972.833 897.833 OFFCURVE",
"1034.5 773.5 CURVE SMOOTH",
"1096.167 649.167 OFFCURVE",
"1127 523 OFFCURVE",
"1127 395 CURVE SMOOTH",
"1127 288.333 OFFCURVE",
"1104.5 211.167 OFFCURVE",
"1059.5 163.5 CURVE SMOOTH",
"1014.5 115.833 OFFCURVE",
"957.333 92 OFFCURVE",
"888 92 CURVE SMOOTH",
"888 92 LINE SMOOTH"
);
},
{
closed = 1;
nodes = (
"882 190 LINE",
"882 234 LINE",
"888 234 LINE SMOOTH",
"893.333 234 OFFCURVE",
"900.667 236.167 OFFCURVE",
"910 240.5 CURVE SMOOTH",
"919.333 244.833 OFFCURVE",
"927.833 258.167 OFFCURVE",
"935.5 280.5 CURVE SMOOTH",
"943.167 302.833 OFFCURVE",
"947 341 OFFCURVE",
"947 395 CURVE SMOOTH",
"947 542.333 OFFCURVE",
"899.333 685.667 OFFCURVE",
"804 825 CURVE SMOOTH",
"708.667 964.333 OFFCURVE",
"578.333 1098.333 OFFCURVE",
"413 1227 CURVE",
"413 1287 LINE",
"524.333 1204.333 OFFCURVE",
"624.333 1115.667 OFFCURVE",
"713 1021 CURVE SMOOTH",
"801.667 926.333 OFFCURVE",
"871.833 826.667 OFFCURVE",
"923.5 722 CURVE SMOOTH",
"975.167 617.333 OFFCURVE",
"1001 508.333 OFFCURVE",
"1001 395 CURVE SMOOTH",
"1001 314.333 OFFCURVE",
"990.667 260 OFFCURVE",
"970 232 CURVE SMOOTH",
"949.333 204 OFFCURVE",
"922 190 OFFCURVE",
"888 190 CURVE SMOOTH",
"882 190 LINE"
);
},
{
closed = 1;
nodes = (
"388 0 OFFCURVE",
"328.167 14.333 OFFCURVE",
"274.5 43 CURVE SMOOTH",
"220.833 71.667 OFFCURVE",
"178.333 115.333 OFFCURVE",
"147 174 CURVE SMOOTH",
"115.667 232.667 OFFCURVE",
"100 306.333 OFFCURVE",
"100 395 CURVE SMOOTH",
"100 518.333 OFFCURVE",
"130.667 643 OFFCURVE",
"192 769 CURVE SMOOTH",
"253.333 895 OFFCURVE",
"329.667 1016 OFFCURVE",
"421 1132 CURVE",
"460 1098 LINE",
"372 985.333 OFFCURVE",
"299 869.167 OFFCURVE",
"241 749.5 CURVE SMOOTH",
"183 629.833 OFFCURVE",
"154 511.667 OFFCURVE",
"154 395 CURVE SMOOTH",
"154 313.667 OFFCURVE",
"167.833 247.167 OFFCURVE",
"195.5 195.5 CURVE SMOOTH",
"223.167 143.833 OFFCURVE",
"259.833 105.667 OFFCURVE",
"305.5 81 CURVE SMOOTH",
"351.167 56.333 OFFCURVE",
"400.667 44 OFFCURVE",
"454 44 CURVE SMOOTH",
"460 44 LINE",
"460 0 LINE",
"454 0 LINE",
"454 0 LINE SMOOTH"
);
},
{
closed = 1;
nodes = (
"389.333 92 OFFCURVE",
"335.167 117 OFFCURVE",
"291.5 167 CURVE SMOOTH",
"247.833 217 OFFCURVE",
"226 293 OFFCURVE",
"226 395 CURVE SMOOTH",
"226 509 OFFCURVE",
"253.333 621.667 OFFCURVE",
"308 733 CURVE SMOOTH",
"362.667 844.333 OFFCURVE",
"430.333 951.333 OFFCURVE",
"511 1054 CURVE",
"549 1019 LINE",
"472.333 919 OFFCURVE",
"408.333 816.833 OFFCURVE",
"357 712.5 CURVE SMOOTH",
"305.667 608.167 OFFCURVE",
"280 502.333 OFFCURVE",
"280 395 CURVE SMOOTH",
"280 302.333 OFFCURVE",
"297.167 237 OFFCURVE",
"331.5 199 CURVE SMOOTH",
"365.833 161 OFFCURVE",
"406.667 142 OFFCURVE",
"454 142 CURVE SMOOTH",
"582 142 OFFCURVE",
"646 226.333 OFFCURVE",
"646 395 CURVE SMOOTH",
"646 490 LINE",
"687 490 LINE",
"687 395 LINE SMOOTH",
"687 287.667 OFFCURVE",
"665 210.333 OFFCURVE",
"621 163 CURVE SMOOTH",
"577 115.667 OFFCURVE",
"521.333 92 OFFCURVE",
"454 92 CURVE SMOOTH",
"454 92 LINE SMOOTH"
);
},
{
closed = 1;
nodes = (
"836 0 OFFCURVE",
"789 9.333 OFFCURVE",
"747 28 CURVE SMOOTH",
"705 46.667 OFFCURVE",
"669.667 75.333 OFFCURVE",
"641 114 CURVE",
"647 119.333 OFFCURVE",
"652.167 124.667 OFFCURVE",
"656.5 130 CURVE SMOOTH",
"660.833 135.333 OFFCURVE",
"665.333 141.333 OFFCURVE",
"670 148 CURVE",
"694.667 112.667 OFFCURVE",
"725.5 86.5 OFFCURVE",
"762.5 69.5 CURVE SMOOTH",
"799.5 52.5 OFFCURVE",
"841.333 44 OFFCURVE",
"888 44 CURVE SMOOTH",
"894 44 LINE",
"894 0 LINE",
"888 0 LINE",
"888 0 LINE SMOOTH"
);
},
{
closed = 1;
nodes = (
"454 190 LINE",
"448 190 LINE",
"448 234 LINE",
"454 234 LINE SMOOTH",
"475.333 234 OFFCURVE",
"493.333 244.167 OFFCURVE",
"508 264.5 CURVE SMOOTH",
"522.667 284.833 OFFCURVE",
"530 328.333 OFFCURVE",
"530 395 CURVE SMOOTH",
"530 490 LINE",
"580 490 LINE",
"580 395 LINE SMOOTH",
"580 315 OFFCURVE",
"569 260.833 OFFCURVE",
"547 232.5 CURVE SMOOTH",
"525 204.167 OFFCURVE",
"494 190 OFFCURVE",
"454 190 CURVE SMOOTH"
);
}
);
width = 1227;
}
);
note = "five-persian";
unicode = 06F5;
},
{
glyphname = "six-persian";
layers = (
{
layerId = "48A8F86F-95FA-4C7F-AEB6-10C2B25A042A";
paths = (
{
closed = 1;
nodes = (
"115.333 176.667 OFFCURVE",
"187.833 327.333 OFFCURVE",
"271.5 452 CURVE SMOOTH",
"355.167 576.667 OFFCURVE",
"456.5 681.5 OFFCURVE",
"575.5 766.5 CURVE SMOOTH",
"694.5 851.5 OFFCURVE",
"837.667 922.667 OFFCURVE",
"1005 980 CURVE",
"1005 923 LINE",
"847.667 867.667 OFFCURVE",
"713.333 800.167 OFFCURVE",
"602 720.5 CURVE SMOOTH",
"490.667 640.833 OFFCURVE",
"395.833 542.667 OFFCURVE",
"317.5 426 CURVE SMOOTH",
"239.167 309.333 OFFCURVE",
"170.333 167.333 OFFCURVE",
"111 0 CURVE",
"54 0 LINE",
"54 0 LINE"
);
},
{
closed = 1;
nodes = (
"54 0 LINE",
"111 0 LINE",
"54 0 LINE"
);
},
{
closed = 1;
nodes = (
"188 0 LINE",
"245 0 LINE",
"188 0 LINE"
);
},
{
closed = 1;
nodes = (
"244.667 154 OFFCURVE",
"308.667 284.167 OFFCURVE",
"380 390.5 CURVE SMOOTH",
"451.333 496.833 OFFCURVE",
"537.333 586.333 OFFCURVE",
"638 659 CURVE SMOOTH",
"738.667 731.667 OFFCURVE",
"861 794 OFFCURVE",
"1005 846 CURVE",
"1005 789 LINE",
"871.667 739 OFFCURVE",
"758.333 680.333 OFFCURVE",
"665 613 CURVE SMOOTH",
"571.667 545.667 OFFCURVE",
"491.833 462.667 OFFCURVE",
"425.5 364 CURVE SMOOTH",
"359.167 265.333 OFFCURVE",
"299 144 OFFCURVE",
"245 0 CURVE",
"188 0 LINE",
"188 0 LINE"
);
},
{
closed = 1;
nodes = (
"380.333 786 OFFCURVE",
"324.667 829.333 OFFCURVE",
"280 888 CURVE SMOOTH",
"235.333 946.667 OFFCURVE",
"213 1019.333 OFFCURVE",
"213 1106 CURVE SMOOTH",
"213 1215.333 OFFCURVE",
"253.167 1303.5 OFFCURVE",
"333.5 1370.5 CURVE SMOOTH",
"413.833 1437.5 OFFCURVE",
"523.667 1471 OFFCURVE",
"663 1471 CURVE SMOOTH",
"669 1471 LINE",
"669 1427 LINE",
"663 1427 LINE SMOOTH",
"543 1427 OFFCURVE",
"447 1397.333 OFFCURVE",
"375 1338 CURVE SMOOTH",
"303 1278.667 OFFCURVE",
"267 1200.333 OFFCURVE",
"267 1103 CURVE SMOOTH",
"267 1026.333 OFFCURVE",
"288.5 961.5 OFFCURVE",
"331.5 908.5 CURVE SMOOTH",
"374.5 855.5 OFFCURVE",
"429 818.333 OFFCURVE",
"495 797 CURVE",
"486.333 790.333 OFFCURVE",
"478.167 783.833 OFFCURVE",
"470.5 777.5 CURVE SMOOTH",
"462.833 771.167 OFFCURVE",
"455 764.667 OFFCURVE",
"447 758 CURVE",
"447 758 LINE"
);
},
{
closed = 1;
nodes = (
"557 845 OFFCURVE",
"481.5 868.667 OFFCURVE",
"424.5 916 CURVE SMOOTH",
"367.5 963.333 OFFCURVE",
"339 1026 OFFCURVE",
"339 1104 CURVE SMOOTH",
"339 1183.333 OFFCURVE",
"368.5 1247.333 OFFCURVE",
"427.5 1296 CURVE SMOOTH",
"486.5 1344.667 OFFCURVE",
"565 1369 OFFCURVE",
"663 1369 CURVE SMOOTH",
"743 1369 OFFCURVE",
"817 1353.333 OFFCURVE",
"885 1322 CURVE",
"885 1269 LINE",
"855 1284.333 OFFCURVE",
"820.333 1296.5 OFFCURVE",
"781 1305.5 CURVE SMOOTH",
"741.667 1314.5 OFFCURVE",
"702.333 1319 OFFCURVE",
"663 1319 CURVE SMOOTH",
"580.333 1319 OFFCURVE",
"514.667 1299.333 OFFCURVE",
"466 1260 CURVE SMOOTH",
"417.333 1220.667 OFFCURVE",
"393 1169 OFFCURVE",
"393 1105 CURVE SMOOTH",
"393 1042.333 OFFCURVE",
"416.167 991.333 OFFCURVE",
"462.5 952 CURVE SMOOTH",
"508.833 912.667 OFFCURVE",
"571.667 893 OFFCURVE",
"651 893 CURVE SMOOTH",
"709 893 OFFCURVE",
"764.667 900.667 OFFCURVE",
"818 916 CURVE SMOOTH",
"871.333 931.333 OFFCURVE",
"933.667 952.667 OFFCURVE",
"1005 980 CURVE",
"1005 950 LINE",
"949 925.333 OFFCURVE",
"889.667 901.667 OFFCURVE",
"827 879 CURVE SMOOTH",
"764.333 856.333 OFFCURVE",
"705.667 845 OFFCURVE",
"651 845 CURVE SMOOTH",
"651 845 LINE SMOOTH"
);
},
{
closed = 1;
nodes = (
"851.667 1174.333 OFFCURVE",
"817.667 1189.5 OFFCURVE",
"783 1200.5 CURVE SMOOTH",
"748.333 1211.5 OFFCURVE",
"708.333 1217 OFFCURVE",
"663 1217 CURVE SMOOTH",
"657 1217 LINE",
"657 1261 LINE",
"663 1261 LINE SMOOTH",
"705.667 1261 OFFCURVE",
"745.667 1255.833 OFFCURVE",
"783 1245.5 CURVE SMOOTH",
"820.333 1235.167 OFFCURVE",
"854.333 1221.333 OFFCURVE",
"885 1204 CURVE",
"885 1155 LINE",
"885 1155 LINE"
);
}
);
width = 1075;
}
);
note = "six-persian";
unicode = 06F6;
},
{
glyphname = "four-persian.urdu";
layers = (
{
layerId = "48A8F86F-95FA-4C7F-AEB6-10C2B25A042A";
paths = (
{
closed = 1;
nodes = (
"374 0 LINE",
"236 792 LINE SMOOTH",
"223.333 864.667 OFFCURVE",
"214.5 920.667 OFFCURVE",
"209.5 960 CURVE SMOOTH",
"204.5 999.333 OFFCURVE",
"202 1039.333 OFFCURVE",
"202 1080 CURVE SMOOTH",
"202 1159.333 OFFCURVE",
"224.833 1222.667 OFFCURVE",
"270.5 1270 CURVE SMOOTH",
"316.167 1317.333 OFFCURVE",
"376.333 1341 OFFCURVE",
"451 1341 CURVE SMOOTH",
"529 1341 OFFCURVE",
"589.333 1314.333 OFFCURVE",
"632 1261 CURVE SMOOTH",
"674.667 1207.667 OFFCURVE",
"696 1139 OFFCURVE",
"696 1055 CURVE SMOOTH",
"696 962 LINE",
"655 962 LINE",
"655 1055 LINE SMOOTH",
"655 1120.333 OFFCURVE",
"637.667 1176 OFFCURVE",
"603 1222 CURVE SMOOTH",
"568.333 1268 OFFCURVE",
"517.667 1291 OFFCURVE",
"451 1291 CURVE SMOOTH",
"391 1291 OFFCURVE",
"343.167 1272.667 OFFCURVE",
"307.5 1236 CURVE SMOOTH",
"271.833 1199.333 OFFCURVE",
"254 1147.333 OFFCURVE",
"254 1080 CURVE SMOOTH",
"254 1041.333 OFFCURVE",
"256.333 1003.333 OFFCURVE",
"261 966 CURVE SMOOTH",
"265.667 928.667 OFFCURVE",
"274 875.333 OFFCURVE",
"286 806 CURVE SMOOTH",
"426 0 LINE",
"374 0 LINE"
);
},
{
closed = 1;
nodes = (
"252 0 LINE",
"119 759 LINE SMOOTH",
"105 839.667 OFFCURVE",
"94.667 903.667 OFFCURVE",
"88 951 CURVE SMOOTH",
"81.333 998.333 OFFCURVE",
"78 1041.333 OFFCURVE",
"78 1080 CURVE SMOOTH",
"78 1150.667 OFFCURVE",
"93.5 1213.333 OFFCURVE",
"124.5 1268 CURVE SMOOTH",
"155.5 1322.667 OFFCURVE",
"199 1365.5 OFFCURVE",
"255 1396.5 CURVE SMOOTH",
"311 1427.5 OFFCURVE",
"376.333 1443 OFFCURVE",
"451 1443 CURVE SMOOTH",
"457 1443 LINE",
"457 1399 LINE",
"451 1399 LINE SMOOTH",
"353.667 1399 OFFCURVE",
"275.833 1370.167 OFFCURVE",
"217.5 1312.5 CURVE SMOOTH",
"159.167 1254.833 OFFCURVE",
"130 1177.333 OFFCURVE",
"130 1080 CURVE SMOOTH",
"130 1041.333 OFFCURVE",
"133.167 999.833 OFFCURVE",
"139.5 955.5 CURVE SMOOTH",
"145.833 911.167 OFFCURVE",
"155.667 850.333 OFFCURVE",
"169 773 CURVE SMOOTH",
"304 0 LINE",
"252 0 LINE"
);
},
{
closed = 1;
nodes = (
"540 962 LINE",
"540 1055 LINE SMOOTH",
"540 1099.667 OFFCURVE",
"530.667 1133.167 OFFCURVE",
"512 1155.5 CURVE SMOOTH",
"493.333 1177.833 OFFCURVE",
"473 1189 OFFCURVE",
"451 1189 CURVE SMOOTH",
"445 1189 LINE",
"445 1233 LINE",
"451 1233 LINE SMOOTH",
"492.333 1233 OFFCURVE",
"525.833 1217.667 OFFCURVE",
"551.5 1187 CURVE SMOOTH",
"577.167 1156.333 OFFCURVE",
"590 1112.333 OFFCURVE",
"590 1055 CURVE SMOOTH",
"590 962 LINE",
"540 962 LINE"
);
},
{
closed = 1;
nodes = (
"664 962 LINE",
"664 1055 LINE SMOOTH",
"664 1150.333 OFFCURVE",
"695.5 1220.167 OFFCURVE",
"758.5 1264.5 CURVE SMOOTH",
"821.5 1308.833 OFFCURVE",
"901 1331 OFFCURVE",
"997 1331 CURVE SMOOTH",
"1003 1331 LINE",
"1003 1283 LINE",
"997 1283 LINE SMOOTH",
"909.667 1283 OFFCURVE",
"839.167 1264.667 OFFCURVE",
"785.5 1228 CURVE SMOOTH",
"731.833 1191.333 OFFCURVE",
"705 1133.667 OFFCURVE",
"705 1055 CURVE SMOOTH",
"705 962 LINE",
"664 962 LINE"
);
},
{
closed = 1;
nodes = (
"681.667 1301.667 OFFCURVE",
"671.667 1313 OFFCURVE",
"661 1323 CURVE",
"703 1363.667 OFFCURVE",
"753.667 1393.833 OFFCURVE",
"813 1413.5 CURVE SMOOTH",
"872.333 1433.167 OFFCURVE",
"933.667 1443 OFFCURVE",
"997 1443 CURVE SMOOTH",
"1003 1443 LINE",
"1003 1395 LINE",
"997 1395 LINE SMOOTH",
"937.667 1395 OFFCURVE",
"881.167 1386.167 OFFCURVE",
"827.5 1368.5 CURVE SMOOTH",
"773.833 1350.833 OFFCURVE",
"728.333 1324.333 OFFCURVE",
"691 1289 CURVE",
"691 1289 LINE"
);
}
);
width = 1045;
}
);
note = "four-persian.urdu";
},
{
glyphname = "seven-persian.urdu";
layers = (
{
layerId = "48A8F86F-95FA-4C7F-AEB6-10C2B25A042A";
paths = (
{
closed = 1;
nodes = (
"484 102 OFFCURVE",
"382.333 133.5 OFFCURVE",
"319 196.5 CURVE SMOOTH",
"255.667 259.5 OFFCURVE",
"224 339.333 OFFCURVE",
"224 436 CURVE SMOOTH",
"224 482.667 OFFCURVE",
"230.333 529.333 OFFCURVE",
"243 576 CURVE SMOOTH",
"255.667 622.667 OFFCURVE",
"276.667 674.667 OFFCURVE",
"306 732 CURVE SMOOTH",
"335.333 789.333 OFFCURVE",
"375 856.667 OFFCURVE",
"425 934 CURVE SMOOTH",
"757 1443 LINE",
"815 1443 LINE",
"470 907 LINE SMOOTH",
"422 832.333 OFFCURVE",
"383.833 767.667 OFFCURVE",
"355.5 713 CURVE SMOOTH",
"327.167 658.333 OFFCURVE",
"307 609.167 OFFCURVE",
"295 565.5 CURVE SMOOTH",
"283 521.833 OFFCURVE",
"277.333 478.667 OFFCURVE",
"278 436 CURVE SMOOTH",
"279.333 350.667 OFFCURVE",
"306.167 282 OFFCURVE",
"358.5 230 CURVE SMOOTH",
"410.833 178 OFFCURVE",
"499.333 152 OFFCURVE",
"624 152 CURVE SMOOTH",
"685.333 152 OFFCURVE",
"743.5 157.333 OFFCURVE",
"798.5 168 CURVE SMOOTH",
"853.5 178.667 OFFCURVE",
"905.667 193.333 OFFCURVE",
"955 212 CURVE",
"955 160 LINE",
"908.333 141.333 OFFCURVE",
"855.167 127 OFFCURVE",
"795.5 117 CURVE SMOOTH",
"735.833 107 OFFCURVE",
"678.667 102 OFFCURVE",
"624 102 CURVE SMOOTH",
"624 102 LINE SMOOTH"
);
},
{
closed = 1;
nodes = (
"612 210 LINE",
"612 254 LINE",
"618 254 LINE SMOOTH",
"663.333 254 OFFCURVE",
"716.333 260 OFFCURVE",
"777 272 CURVE SMOOTH",
"837.667 284 OFFCURVE",
"897 300.333 OFFCURVE",
"955 321 CURVE",
"955 274 LINE",
"839.667 231.333 OFFCURVE",
"727.333 210 OFFCURVE",
"618 210 CURVE SMOOTH",
"612 210 LINE"
);
},
{
closed = 1;
nodes = (
"506 0 OFFCURVE",
"408.333 19.167 OFFCURVE",
"331 57.5 CURVE SMOOTH",
"253.667 95.833 OFFCURVE",
"195.833 148 OFFCURVE",
"157.5 214 CURVE SMOOTH",
"119.167 280 OFFCURVE",
"100 354 OFFCURVE",
"100 436 CURVE SMOOTH",
"100 490 OFFCURVE",
"107 543.5 OFFCURVE",
"121 596.5 CURVE SMOOTH",
"135 649.5 OFFCURVE",
"158.333 708.333 OFFCURVE",
"191 773 CURVE SMOOTH",
"223.667 837.667 OFFCURVE",
"268.333 913.667 OFFCURVE",
"325 1001 CURVE SMOOTH",
"612 1443 LINE",
"670 1443 LINE",
"370 974 LINE SMOOTH",
"316 890 OFFCURVE",
"273.333 817 OFFCURVE",
"242 755 CURVE SMOOTH",
"210.667 693 OFFCURVE",
"188.167 636.833 OFFCURVE",
"174.5 586.5 CURVE SMOOTH",
"160.833 536.167 OFFCURVE",
"154 486 OFFCURVE",
"154 436 CURVE SMOOTH",
"154 315.333 OFFCURVE",
"194.833 219.833 OFFCURVE",
"276.5 149.5 CURVE SMOOTH",
"358.167 79.167 OFFCURVE",
"474 44 OFFCURVE",
"624 44 CURVE SMOOTH",
"630 44 LINE",
"630 0 LINE",
"624 0 LINE",
"624 0 LINE SMOOTH"
);
}
);
width = 989;
}
);
note = "seven-persian.urdu";
},
{
glyphname = period;
layers = (
{
layerId = "48A8F86F-95FA-4C7F-AEB6-10C2B25A042A";
paths = (
{
closed = 1;
nodes = (
"184 89 OFFCURVE",
"161.5 98.333 OFFCURVE",
"142.5 117 CURVE SMOOTH",
"123.5 135.667 OFFCURVE",
"114 158.333 OFFCURVE",
"114 185 CURVE SMOOTH",
"114 211.667 OFFCURVE",
"123.5 234.333 OFFCURVE",
"142.5 253 CURVE SMOOTH",
"161.5 271.667 OFFCURVE",
"184 281 OFFCURVE",
"210 281 CURVE SMOOTH",
"235.333 281 OFFCURVE",
"257.5 271.667 OFFCURVE",
"276.5 253 CURVE SMOOTH",
"295.5 234.333 OFFCURVE",
"305 211.667 OFFCURVE",
"305 185 CURVE SMOOTH",
"305 158.333 OFFCURVE",
"295.5 135.667 OFFCURVE",
"276.5 117 CURVE SMOOTH",
"257.5 98.333 OFFCURVE",
"235.333 89 OFFCURVE",
"210 89 CURVE SMOOTH",
"210 89 LINE SMOOTH"
);
},
{
closed = 1;
nodes = (
"224.667 133 OFFCURVE",
"236.833 138.333 OFFCURVE",
"246.5 149 CURVE SMOOTH",
"256.167 159.667 OFFCURVE",
"261 171.667 OFFCURVE",
"261 185 CURVE SMOOTH",
"261 198.333 OFFCURVE",
"256.167 210.333 OFFCURVE",
"246.5 221 CURVE SMOOTH",
"236.833 231.667 OFFCURVE",
"224.667 237 OFFCURVE",
"210 237 CURVE SMOOTH",
"195.333 237 OFFCURVE",
"183 231.667 OFFCURVE",
"173 221 CURVE SMOOTH",
"163 210.333 OFFCURVE",
"158 198.333 OFFCURVE",
"158 185 CURVE SMOOTH",
"158 171.667 OFFCURVE",
"163 159.667 OFFCURVE",
"173 149 CURVE SMOOTH",
"183 138.333 OFFCURVE",
"195.333 133 OFFCURVE",
"210 133 CURVE",
"210 133 LINE"
);
},
{
closed = 1;
nodes = (
"210 0 LINE",
"210 38 LINE",
"253.333 39.333 OFFCURVE",
"289 54 OFFCURVE",
"317 82 CURVE SMOOTH",
"345 110 OFFCURVE",
"359 144.333 OFFCURVE",
"359 185 CURVE SMOOTH",
"359 225.667 OFFCURVE",
"345 260.167 OFFCURVE",
"317 288.5 CURVE SMOOTH",
"289 316.833 OFFCURVE",
"253.333 331.333 OFFCURVE",
"210 332 CURVE",
"210 370 LINE",
"264.667 370 OFFCURVE",
"310.833 352 OFFCURVE",
"348.5 316 CURVE SMOOTH",
"386.167 280 OFFCURVE",
"405 236.333 OFFCURVE",
"405 185 CURVE SMOOTH",
"405 133.667 OFFCURVE",
"386.167 90 OFFCURVE",
"348.5 54 CURVE SMOOTH",
"310.833 18 OFFCURVE",
"264.667 0 OFFCURVE",
"210 0 CURVE SMOOTH"
);
}
);
width = 519;
}
);
leftKerningGroup = period;
note = period;
rightKerningGroup = period;
unicode = 002E;
},
{
glyphname = comma;
layers = (
{
layerId = "48A8F86F-95FA-4C7F-AEB6-10C2B25A042A";
paths = (
{
closed = 1;
nodes = (
"136 -283 LINE",
"278 281 LINE",
"330 281 LINE",
"188 -283 LINE",
"136 -283 LINE"
);
},
{
closed = 1;
nodes = (
"10 -283 LINE",
"152 281 LINE",
"204 281 LINE",
"62 -283 LINE",
"10 -283 LINE"
);
}
);
width = 440;
}
);
leftKerningGroup = period;
note = comma;
rightKerningGroup = period;
unicode = 002C;
},
{
glyphname = colon;
layers = (
{
layerId = "48A8F86F-95FA-4C7F-AEB6-10C2B25A042A";
paths = (
{
closed = 1;
nodes = (
"186 736 LINE",
"186 774 LINE",
"229.333 775.333 OFFCURVE",
"265 790 OFFCURVE",
"293 818 CURVE SMOOTH",
"321 846 OFFCURVE",
"335 880.333 OFFCURVE",
"335 921 CURVE SMOOTH",
"335 961.667 OFFCURVE",
"321 996.167 OFFCURVE",
"293 1024.5 CURVE SMOOTH",
"265 1052.833 OFFCURVE",
"229.333 1067.333 OFFCURVE",
"186 1068 CURVE",
"186 1106 LINE",
"240.667 1106 OFFCURVE",
"286.833 1088 OFFCURVE",
"324.5 1052 CURVE SMOOTH",
"362.167 1016 OFFCURVE",
"381 972.333 OFFCURVE",
"381 921 CURVE SMOOTH",
"381 869.667 OFFCURVE",
"362.167 826 OFFCURVE",
"324.5 790 CURVE SMOOTH",
"286.833 754 OFFCURVE",
"240.667 736 OFFCURVE",
"186 736 CURVE SMOOTH"
);
},
{
closed = 1;
nodes = (
"160 89 OFFCURVE",
"137.5 98.333 OFFCURVE",
"118.5 117 CURVE SMOOTH",
"99.5 135.667 OFFCURVE",
"90 158.333 OFFCURVE",
"90 185 CURVE SMOOTH",
"90 211.667 OFFCURVE",
"99.5 234.333 OFFCURVE",
"118.5 253 CURVE SMOOTH",
"137.5 271.667 OFFCURVE",
"160 281 OFFCURVE",
"186 281 CURVE SMOOTH",
"211.333 281 OFFCURVE",
"233.5 271.667 OFFCURVE",
"252.5 253 CURVE SMOOTH",
"271.5 234.333 OFFCURVE",
"281 211.667 OFFCURVE",
"281 185 CURVE SMOOTH",
"281 158.333 OFFCURVE",
"271.5 135.667 OFFCURVE",
"252.5 117 CURVE SMOOTH",
"233.5 98.333 OFFCURVE",
"211.333 89 OFFCURVE",
"186 89 CURVE SMOOTH",
"186 89 LINE SMOOTH"
);
},
{
closed = 1;
nodes = (
"200.667 133 OFFCURVE",
"212.833 138.333 OFFCURVE",
"222.5 149 CURVE SMOOTH",
"232.167 159.667 OFFCURVE",
"237 171.667 OFFCURVE",
"237 185 CURVE SMOOTH",
"237 198.333 OFFCURVE",
"232.167 210.333 OFFCURVE",
"222.5 221 CURVE SMOOTH",
"212.833 231.667 OFFCURVE",
"200.667 237 OFFCURVE",
"186 237 CURVE SMOOTH",
"171.333 237 OFFCURVE",
"159 231.667 OFFCURVE",
"149 221 CURVE SMOOTH",
"139 210.333 OFFCURVE",
"134 198.333 OFFCURVE",
"134 185 CURVE SMOOTH",
"134 171.667 OFFCURVE",
"139 159.667 OFFCURVE",
"149 149 CURVE SMOOTH",
"159 138.333 OFFCURVE",
"171.333 133 OFFCURVE",
"186 133 CURVE",
"186 133 LINE"
);
},
{
closed = 1;
nodes = (
"186 0 LINE",
"186 38 LINE",
"229.333 39.333 OFFCURVE",
"265 54 OFFCURVE",
"293 82 CURVE SMOOTH",
"321 110 OFFCURVE",
"335 144.333 OFFCURVE",
"335 185 CURVE SMOOTH",
"335 225.667 OFFCURVE",
"321 260.167 OFFCURVE",
"293 288.5 CURVE SMOOTH",
"265 316.833 OFFCURVE",
"229.333 331.333 OFFCURVE",
"186 332 CURVE",
"186 370 LINE",
"240.667 370 OFFCURVE",
"286.833 352 OFFCURVE",
"324.5 316 CURVE SMOOTH",
"362.167 280 OFFCURVE",
"381 236.333 OFFCURVE",
"381 185 CURVE SMOOTH",
"381 133.667 OFFCURVE",
"362.167 90 OFFCURVE",
"324.5 54 CURVE SMOOTH",
"286.833 18 OFFCURVE",
"240.667 0 OFFCURVE",
"186 0 CURVE SMOOTH"
);
},
{
closed = 1;
nodes = (
"160 825 OFFCURVE",
"137.5 834.333 OFFCURVE",
"118.5 853 CURVE SMOOTH",
"99.5 871.667 OFFCURVE",
"90 894.333 OFFCURVE",
"90 921 CURVE SMOOTH",
"90 947.667 OFFCURVE",
"99.5 970.333 OFFCURVE",
"118.5 989 CURVE SMOOTH",
"137.5 1007.667 OFFCURVE",
"160 1017 OFFCURVE",
"186 1017 CURVE SMOOTH",
"211.333 1017 OFFCURVE",
"233.5 1007.667 OFFCURVE",
"252.5 989 CURVE SMOOTH",
"271.5 970.333 OFFCURVE",
"281 947.667 OFFCURVE",
"281 921 CURVE SMOOTH",
"281 894.333 OFFCURVE",
"271.5 871.667 OFFCURVE",
"252.5 853 CURVE SMOOTH",
"233.5 834.333 OFFCURVE",
"211.333 825 OFFCURVE",
"186 825 CURVE SMOOTH",
"186 825 LINE SMOOTH"
);
},
{
closed = 1;
nodes = (
"200.667 869 OFFCURVE",
"212.833 874.333 OFFCURVE",
"222.5 885 CURVE SMOOTH",
"232.167 895.667 OFFCURVE",
"237 907.667 OFFCURVE",
"237 921 CURVE SMOOTH",
"237 934.333 OFFCURVE",
"232.167 946.333 OFFCURVE",
"222.5 957 CURVE SMOOTH",
"212.833 967.667 OFFCURVE",
"200.667 973 OFFCURVE",
"186 973 CURVE SMOOTH",
"171.333 973 OFFCURVE",
"159 967.667 OFFCURVE",
"149 957 CURVE SMOOTH",
"139 946.333 OFFCURVE",
"134 934.333 OFFCURVE",
"134 921 CURVE SMOOTH",
"134 907.667 OFFCURVE",
"139 895.667 OFFCURVE",
"149 885 CURVE SMOOTH",
"159 874.333 OFFCURVE",
"171.333 869 OFFCURVE",
"186 869 CURVE",
"186 869 LINE"
);
}
);
width = 481;
}
);
note = colon;
unicode = 003A;
},
{
glyphname = slash;
layers = (
{
layerId = "48A8F86F-95FA-4C7F-AEB6-10C2B25A042A";
paths = (
{
closed = 1;
nodes = (
"2 -175 LINE",
"406 1618 LINE",
"458 1618 LINE",
"54 -175 LINE",
"2 -175 LINE"
);
},
{
closed = 1;
nodes = (
"128 -175 LINE",
"532 1618 LINE",
"584 1618 LINE",
"180 -175 LINE",
"128 -175 LINE"
);
}
);
width = 585;
}
);
note = slash;
unicode = 002F;
},
{
glyphname = hyphen;
layers = (
{
layerId = "48A8F86F-95FA-4C7F-AEB6-10C2B25A042A";
paths = (
{
closed = 1;
nodes = (
"759 755 LINE",
"119 755 LINE",
"119 804 LINE",
"759 804 LINE",
"759 755 LINE"
);
},
{
closed = 1;
nodes = (
"759 640 LINE",
"119 640 LINE",
"119 689 LINE",
"759 689 LINE",
"759 640 LINE"
);
}
);
width = 878;
}
);
leftKerningGroup = hyphen;
note = hyphen;
rightKerningGroup = hyphen;
unicode = 002D;
},
{
glyphname = quotesingle;
layers = (
{
layerId = "48A8F86F-95FA-4C7F-AEB6-10C2B25A042A";
paths = (
{
closed = 1;
nodes = (
"290 934 LINE",
"290 1443 LINE",
"342 1443 LINE",
"342 934 LINE",
"290 934 LINE"
);
},
{
closed = 1;
nodes = (
"178 934 LINE",
"178 1443 LINE",
"230 1443 LINE",
"230 934 LINE",
"178 934 LINE"
);
}
);
width = 520;
}
);
note = quotesingle;
unicode = 0027;
},
{
glyphname = .notdef;
layers = (
{
layerId = "48A8F86F-95FA-4C7F-AEB6-10C2B25A042A";
paths = (
{
closed = 1;
nodes = (
"100 -494 LINE",
"100 -270 LINE",
"1948 -270 LINE",
"1948 -494 LINE",
"100 -494 LINE"
);
},
{
closed = 1;
nodes = (
"100 -50 LINE",
"100 174 LINE",
"1948 174 LINE",
"1948 -50 LINE",
"100 -50 LINE"
);
},
{
closed = 1;
nodes = (
"100 394 LINE",
"100 618 LINE",
"1948 618 LINE",
"1948 394 LINE",
"100 394 LINE"
);
},
{
closed = 1;
nodes = (
"100 838 LINE",
"100 1062 LINE",
"1948 1062 LINE",
"1948 838 LINE",
"100 838 LINE"
);
},
{
closed = 1;
nodes = (
"100 1282 LINE",
"100 1506 LINE",
"1948 1506 LINE",
"1948 1282 LINE",
"100 1282 LINE"
);
},
{
closed = 1;
nodes = (
"100 1726 LINE",
"100 1950 LINE",
"1948 1950 LINE",
"1948 1726 LINE",
"100 1726 LINE"
);
}
);
width = 2048;
}
);
note = .notdef;
},
{
glyphname = degree;
layers = (
{
layerId = "48A8F86F-95FA-4C7F-AEB6-10C2B25A042A";
paths = (
{
closed = 1;
nodes = (
"362 956 OFFCURVE",
"325.667 971.333 OFFCURVE",
"295 1002 CURVE SMOOTH",
"264.333 1032.667 OFFCURVE",
"249 1069.333 OFFCURVE",
"249 1112 CURVE SMOOTH",
"249 1155.333 OFFCURVE",
"264.333 1192.167 OFFCURVE",
"295 1222.5 CURVE SMOOTH",
"325.667 1252.833 OFFCURVE",
"362 1268 OFFCURVE",
"404 1268 CURVE SMOOTH",
"445.333 1268 OFFCURVE",
"481.333 1252.833 OFFCURVE",
"512 1222.5 CURVE SMOOTH",
"542.667 1192.167 OFFCURVE",
"558 1155.333 OFFCURVE",
"558 1112 CURVE SMOOTH",
"558 1069.333 OFFCURVE",
"542.667 1032.667 OFFCURVE",
"512 1002 CURVE SMOOTH",
"481.333 971.333 OFFCURVE",
"445.333 956 OFFCURVE",
"404 956 CURVE SMOOTH",
"404 956 LINE SMOOTH"
);
},
{
closed = 1;
nodes = (
"432 1011 OFFCURVE",
"455.5 1021.333 OFFCURVE",
"474.5 1042 CURVE SMOOTH",
"493.5 1062.667 OFFCURVE",
"503 1086 OFFCURVE",
"503 1112 CURVE SMOOTH",
"503 1138 OFFCURVE",
"493.5 1161.333 OFFCURVE",
"474.5 1182 CURVE SMOOTH",
"455.5 1202.667 OFFCURVE",
"432 1213 OFFCURVE",
"404 1213 CURVE SMOOTH",
"375.333 1213 OFFCURVE",
"351.5 1202.667 OFFCURVE",
"332.5 1182 CURVE SMOOTH",
"313.5 1161.333 OFFCURVE",
"304 1138 OFFCURVE",
"304 1112 CURVE SMOOTH",
"304 1086 OFFCURVE",
"313.5 1062.667 OFFCURVE",
"332.5 1042 CURVE SMOOTH",
"351.5 1021.333 OFFCURVE",
"375.333 1011 OFFCURVE",
"404 1011 CURVE",
"404 1011 LINE"
);
},
{
closed = 1;
nodes = (
"404 812 LINE",
"404 867 LINE",
"452.667 868.333 OFFCURVE",
"495.833 880 OFFCURVE",
"533.5 902 CURVE SMOOTH",
"571.167 924 OFFCURVE",
"600.833 953.333 OFFCURVE",
"622.5 990 CURVE SMOOTH",
"644.167 1026.667 OFFCURVE",
"655 1067.333 OFFCURVE",
"655 1112 CURVE SMOOTH",
"655 1157.333 OFFCURVE",
"644.167 1198.333 OFFCURVE",
"622.5 1235 CURVE SMOOTH",
"600.833 1271.667 OFFCURVE",
"571.167 1301 OFFCURVE",
"533.5 1323 CURVE SMOOTH",
"495.833 1345 OFFCURVE",
"452.667 1356.333 OFFCURVE",
"404 1357 CURVE",
"404 1412 LINE",
"461.333 1412 OFFCURVE",
"513 1398.667 OFFCURVE",
"559 1372 CURVE SMOOTH",
"605 1345.333 OFFCURVE",
"641.667 1309.333 OFFCURVE",
"669 1264 CURVE SMOOTH",
"696.333 1218.667 OFFCURVE",
"710 1168 OFFCURVE",
"710 1112 CURVE SMOOTH",
"710 1056.667 OFFCURVE",
"696.333 1006.167 OFFCURVE",
"669 960.5 CURVE SMOOTH",
"641.667 914.833 OFFCURVE",
"605 878.667 OFFCURVE",
"559 852 CURVE SMOOTH",
"513 825.333 OFFCURVE",
"461.333 812 OFFCURVE",
"404 812 CURVE SMOOTH"
);
}
);
width = 820;
}
);
note = degree;
unicode = 00B0;
},
{
glyphname = plus;
layers = (
{
layerId = "48A8F86F-95FA-4C7F-AEB6-10C2B25A042A";
paths = (
{
closed = 1;
nodes = (
"652 755 LINE",
"652 1230 LINE",
"701 1230 LINE",
"701 804 LINE",
"1127 804 LINE",
"1127 755 LINE",
"652 755 LINE"
);
},
{
closed = 1;
nodes = (
"537 215 LINE",
"537 640 LINE",
"112 640 LINE",
"112 689 LINE",
"586 689 LINE",
"586 215 LINE",
"537 215 LINE"
);
},
{
closed = 1;
nodes = (
"112 755 LINE",
"112 804 LINE",
"537 804 LINE",
"537 1230 LINE",
"586 1230 LINE",
"586 755 LINE",
"112 755 LINE"
);
},
{
closed = 1;
nodes = (
"652 215 LINE",
"652 689 LINE",
"1127 689 LINE",
"1127 640 LINE",
"701 640 LINE",
"701 215 LINE",
"652 215 LINE"
);
}
);
width = 1214;
}
);
leftKerningGroup = hyphen;
note = plus;
rightKerningGroup = hyphen;
unicode = 002B;
},
{
glyphname = minus;
layers = (
{
layerId = "48A8F86F-95FA-4C7F-AEB6-10C2B25A042A";
paths = (
{
closed = 1;
nodes = (
"1114 755 LINE",
"124 755 LINE",
"124 804 LINE",
"1114 804 LINE",
"1114 755 LINE"
);
},
{
closed = 1;
nodes = (
"1114 640 LINE",
"124 640 LINE",
"124 689 LINE",
"1114 689 LINE",
"1114 640 LINE"
);
}
);
width = 1238;
}
);
leftKerningGroup = hyphen;
note = minus;
rightKerningGroup = hyphen;
unicode = 2212;
},
{
glyphname = percent;
layers = (
{
layerId = "48A8F86F-95FA-4C7F-AEB6-10C2B25A042A";
paths = (
{
closed = 1;
nodes = (
"301 0 LINE",
"1225 1443 LINE",
"1283 1443 LINE",
"359 0 LINE",
"301 0 LINE"
);
},
{
closed = 1;
nodes = (
"421 0 LINE",
"1345 1443 LINE",
"1403 1443 LINE",
"479 0 LINE",
"421 0 LINE"
);
},
{
closed = 1;
nodes = (
"373 731 LINE",
"373 773 LINE",
"376 773 LINE SMOOTH",
"453.333 773 OFFCURVE",
"515.167 800.333 OFFCURVE",
"561.5 855 CURVE SMOOTH",
"607.833 909.667 OFFCURVE",
"631 989 OFFCURVE",
"631 1093 CURVE SMOOTH",
"631 1197 OFFCURVE",
"607.833 1276.333 OFFCURVE",
"561.5 1331 CURVE SMOOTH",
"515.167 1385.667 OFFCURVE",
"453.333 1413 OFFCURVE",
"376 1413 CURVE SMOOTH",
"373 1413 LINE",
"373 1455 LINE",
"376 1455 LINE SMOOTH",
"468.667 1455 OFFCURVE",
"541.667 1424.5 OFFCURVE",
"595 1363.5 CURVE SMOOTH",
"648.333 1302.5 OFFCURVE",
"675 1212.333 OFFCURVE",
"675 1093 CURVE SMOOTH",
"675 973.667 OFFCURVE",
"648.333 883.5 OFFCURVE",
"595 822.5 CURVE SMOOTH",
"541.667 761.5 OFFCURVE",
"468.667 731 OFFCURVE",
"376 731 CURVE SMOOTH",
"373 731 LINE"
);
},
{
closed = 1;
nodes = (
"304.667 802 OFFCURVE",
"247.833 826.667 OFFCURVE",
"205.5 876 CURVE SMOOTH",
"163.167 925.333 OFFCURVE",
"142 997.667 OFFCURVE",
"142 1093 CURVE SMOOTH",
"142 1188.333 OFFCURVE",
"163.167 1260.667 OFFCURVE",
"205.5 1310 CURVE SMOOTH",
"247.833 1359.333 OFFCURVE",
"304.667 1384 OFFCURVE",
"376 1384 CURVE SMOOTH",
"443.333 1384 OFFCURVE",
"496.833 1359.333 OFFCURVE",
"536.5 1310 CURVE SMOOTH",
"576.167 1260.667 OFFCURVE",
"596 1188.333 OFFCURVE",
"596 1093 CURVE SMOOTH",
"596 997.667 OFFCURVE",
"576.167 925.333 OFFCURVE",
"536.5 876 CURVE SMOOTH",
"496.833 826.667 OFFCURVE",
"443.333 802 OFFCURVE",
"376 802 CURVE SMOOTH",
"376 802 LINE SMOOTH"
);
},
{
closed = 1;
nodes = (
"429.333 844 OFFCURVE",
"472 865.167 OFFCURVE",
"504 907.5 CURVE SMOOTH",
"536 949.833 OFFCURVE",
"552 1011.667 OFFCURVE",
"552 1093 CURVE SMOOTH",
"552 1174.333 OFFCURVE",
"536 1236.167 OFFCURVE",
"504 1278.5 CURVE SMOOTH",
"472 1320.833 OFFCURVE",
"429.333 1342 OFFCURVE",
"376 1342 CURVE SMOOTH",
"318 1342 OFFCURVE",
"271.833 1320.833 OFFCURVE",
"237.5 1278.5 CURVE SMOOTH",
"203.167 1236.167 OFFCURVE",
"186 1174.333 OFFCURVE",
"186 1093 CURVE SMOOTH",
"186 1011.667 OFFCURVE",
"203.167 949.833 OFFCURVE",
"237.5 907.5 CURVE SMOOTH",
"271.833 865.167 OFFCURVE",
"318 844 OFFCURVE",
"376 844 CURVE",
"376 844 LINE"
);
},
{
closed = 1;
nodes = (
"378 915 LINE",
"378 873 LINE",
"376 873 LINE SMOOTH",
"329.333 873 OFFCURVE",
"291.833 891.333 OFFCURVE",
"263.5 928 CURVE SMOOTH",
"235.167 964.667 OFFCURVE",
"221 1019.667 OFFCURVE",
"221 1093 CURVE SMOOTH",
"221 1167 OFFCURVE",
"235.167 1222.167 OFFCURVE",
"263.5 1258.5 CURVE SMOOTH",
"291.833 1294.833 OFFCURVE",
"329.333 1313 OFFCURVE",
"376 1313 CURVE SMOOTH",
"378 1313 LINE",
"378 1271 LINE",
"376 1271 LINE SMOOTH",
"342 1271 OFFCURVE",
"315 1255.833 OFFCURVE",
"295 1225.5 CURVE SMOOTH",
"275 1195.167 OFFCURVE",
"265 1151 OFFCURVE",
"265 1093 CURVE SMOOTH",
"265 1035 OFFCURVE",
"275 990.833 OFFCURVE",
"295 960.5 CURVE SMOOTH",
"315 930.167 OFFCURVE",
"342 915 OFFCURVE",
"376 915 CURVE SMOOTH",
"378 915 LINE"
);
},
{
closed = 1;
nodes = (
"1262 -12 LINE",
"1262 30 LINE",
"1265 30 LINE SMOOTH",
"1342.333 30 OFFCURVE",
"1404.167 57.333 OFFCURVE",
"1450.5 112 CURVE SMOOTH",
"1496.833 166.667 OFFCURVE",
"1520 246 OFFCURVE",
"1520 350 CURVE SMOOTH",
"1520 454 OFFCURVE",
"1496.833 533.333 OFFCURVE",
"1450.5 588 CURVE SMOOTH",
"1404.167 642.667 OFFCURVE",
"1342.333 670 OFFCURVE",
"1265 670 CURVE SMOOTH",
"1262 670 LINE",
"1262 712 LINE",
"1265 712 LINE SMOOTH",
"1357.667 712 OFFCURVE",
"1430.667 681.5 OFFCURVE",
"1484 620.5 CURVE SMOOTH",
"1537.333 559.5 OFFCURVE",
"1564 469.333 OFFCURVE",
"1564 350 CURVE SMOOTH",
"1564 230.667 OFFCURVE",
"1537.333 140.5 OFFCURVE",
"1484 79.5 CURVE SMOOTH",
"1430.667 18.5 OFFCURVE",
"1357.667 -12 OFFCURVE",
"1265 -12 CURVE SMOOTH",
"1262 -12 LINE"
);
},
{
closed = 1;
nodes = (
"1193.667 59 OFFCURVE",
"1136.833 83.667 OFFCURVE",
"1094.5 133 CURVE SMOOTH",
"1052.167 182.333 OFFCURVE",
"1031 254.667 OFFCURVE",
"1031 350 CURVE SMOOTH",
"1031 445.333 OFFCURVE",
"1052.167 517.667 OFFCURVE",
"1094.5 567 CURVE SMOOTH",
"1136.833 616.333 OFFCURVE",
"1193.667 641 OFFCURVE",
"1265 641 CURVE SMOOTH",
"1332.333 641 OFFCURVE",
"1385.833 616.333 OFFCURVE",
"1425.5 567 CURVE SMOOTH",
"1465.167 517.667 OFFCURVE",
"1485 445.333 OFFCURVE",
"1485 350 CURVE SMOOTH",
"1485 254.667 OFFCURVE",
"1465.167 182.333 OFFCURVE",
"1425.5 133 CURVE SMOOTH",
"1385.833 83.667 OFFCURVE",
"1332.333 59 OFFCURVE",
"1265 59 CURVE SMOOTH",
"1265 59 LINE SMOOTH"
);
},
{
closed = 1;
nodes = (
"1318.333 101 OFFCURVE",
"1361 122.167 OFFCURVE",
"1393 164.5 CURVE SMOOTH",
"1425 206.833 OFFCURVE",
"1441 268.667 OFFCURVE",
"1441 350 CURVE SMOOTH",
"1441 431.333 OFFCURVE",
"1425 493.167 OFFCURVE",
"1393 535.5 CURVE SMOOTH",
"1361 577.833 OFFCURVE",
"1318.333 599 OFFCURVE",
"1265 599 CURVE SMOOTH",
"1207 599 OFFCURVE",
"1160.833 577.833 OFFCURVE",
"1126.5 535.5 CURVE SMOOTH",
"1092.167 493.167 OFFCURVE",
"1075 431.333 OFFCURVE",
"1075 350 CURVE SMOOTH",
"1075 268.667 OFFCURVE",
"1092.167 206.833 OFFCURVE",
"1126.5 164.5 CURVE SMOOTH",
"1160.833 122.167 OFFCURVE",
"1207 101 OFFCURVE",
"1265 101 CURVE",
"1265 101 LINE"
);
},
{
closed = 1;
nodes = (
"1267 172 LINE",
"1267 130 LINE",
"1265 130 LINE SMOOTH",
"1218.333 130 OFFCURVE",
"1180.833 148.333 OFFCURVE",
"1152.5 185 CURVE SMOOTH",
"1124.167 221.667 OFFCURVE",
"1110 276.667 OFFCURVE",
"1110 350 CURVE SMOOTH",
"1110 424 OFFCURVE",
"1124.167 479.167 OFFCURVE",
"1152.5 515.5 CURVE SMOOTH",
"1180.833 551.833 OFFCURVE",
"1218.333 570 OFFCURVE",
"1265 570 CURVE SMOOTH",
"1267 570 LINE",
"1267 528 LINE",
"1265 528 LINE SMOOTH",
"1231 528 OFFCURVE",
"1204 512.833 OFFCURVE",
"1184 482.5 CURVE SMOOTH",
"1164 452.167 OFFCURVE",
"1154 408 OFFCURVE",
"1154 350 CURVE SMOOTH",
"1154 292 OFFCURVE",
"1164 247.833 OFFCURVE",
"1184 217.5 CURVE SMOOTH",
"1204 187.167 OFFCURVE",
"1231 172 OFFCURVE",
"1265 172 CURVE SMOOTH",
"1267 172 LINE"
);
}
);
width = 1655;
}
);
note = percent;
unicode = 0025;
},
{
glyphname = "percent-ar";
layers = (
{
layerId = "48A8F86F-95FA-4C7F-AEB6-10C2B25A042A";
paths = (
{
closed = 1;
nodes = (
"81 0 LINE",
"1005 1443 LINE",
"1063 1443 LINE",
"139 0 LINE",
"81 0 LINE"
);
},
{
closed = 1;
nodes = (
"201 0 LINE",
"1125 1443 LINE",
"1183 1443 LINE",
"259 0 LINE",
"201 0 LINE"
);
},
{
closed = 1;
nodes = (
"240 1095 LINE",
"240 1133 LINE",
"283.333 1134.333 OFFCURVE",
"319 1149 OFFCURVE",
"347 1177 CURVE SMOOTH",
"375 1205 OFFCURVE",
"389 1239.333 OFFCURVE",
"389 1280 CURVE SMOOTH",
"389 1320.667 OFFCURVE",
"375 1355.167 OFFCURVE",
"347 1383.5 CURVE SMOOTH",
"319 1411.833 OFFCURVE",
"283.333 1426.333 OFFCURVE",
"240 1427 CURVE",
"240 1465 LINE",
"294.667 1465 OFFCURVE",
"340.833 1447 OFFCURVE",
"378.5 1411 CURVE SMOOTH",
"416.167 1375 OFFCURVE",
"435 1331.333 OFFCURVE",
"435 1280 CURVE SMOOTH",
"435 1228.667 OFFCURVE",
"416.167 1185 OFFCURVE",
"378.5 1149 CURVE SMOOTH",
"340.833 1113 OFFCURVE",
"294.667 1095 OFFCURVE",
"240 1095 CURVE SMOOTH"
);
},
{
closed = 1;
nodes = (
"214 1184 OFFCURVE",
"191.5 1193.333 OFFCURVE",
"172.5 1212 CURVE SMOOTH",
"153.5 1230.667 OFFCURVE",
"144 1253.333 OFFCURVE",
"144 1280 CURVE SMOOTH",
"144 1306.667 OFFCURVE",
"153.5 1329.333 OFFCURVE",
"172.5 1348 CURVE SMOOTH",
"191.5 1366.667 OFFCURVE",
"214 1376 OFFCURVE",
"240 1376 CURVE SMOOTH",
"265.333 1376 OFFCURVE",
"287.5 1366.667 OFFCURVE",
"306.5 1348 CURVE SMOOTH",
"325.5 1329.333 OFFCURVE",
"335 1306.667 OFFCURVE",
"335 1280 CURVE SMOOTH",
"335 1253.333 OFFCURVE",
"325.5 1230.667 OFFCURVE",
"306.5 1212 CURVE SMOOTH",
"287.5 1193.333 OFFCURVE",
"265.333 1184 OFFCURVE",
"240 1184 CURVE SMOOTH",
"240 1184 LINE SMOOTH"
);
},
{
closed = 1;
nodes = (
"254.667 1228 OFFCURVE",
"266.833 1233.333 OFFCURVE",
"276.5 1244 CURVE SMOOTH",
"286.167 1254.667 OFFCURVE",
"291 1266.667 OFFCURVE",
"291 1280 CURVE SMOOTH",
"291 1293.333 OFFCURVE",
"286.167 1305.333 OFFCURVE",
"276.5 1316 CURVE SMOOTH",
"266.833 1326.667 OFFCURVE",
"254.667 1332 OFFCURVE",
"240 1332 CURVE SMOOTH",
"225.333 1332 OFFCURVE",
"213 1326.667 OFFCURVE",
"203 1316 CURVE SMOOTH",
"193 1305.333 OFFCURVE",
"188 1293.333 OFFCURVE",
"188 1280 CURVE SMOOTH",
"188 1266.667 OFFCURVE",
"193 1254.667 OFFCURVE",
"203 1244 CURVE SMOOTH",
"213 1233.333 OFFCURVE",
"225.333 1228 OFFCURVE",
"240 1228 CURVE",
"240 1228 LINE"
);
},
{
closed = 1;
nodes = (
"926 -22 LINE",
"926 16 LINE",
"969.333 17.333 OFFCURVE",
"1005 32 OFFCURVE",
"1033 60 CURVE SMOOTH",
"1061 88 OFFCURVE",
"1075 122.333 OFFCURVE",
"1075 163 CURVE SMOOTH",
"1075 203.667 OFFCURVE",
"1061 238.167 OFFCURVE",
"1033 266.5 CURVE SMOOTH",
"1005 294.833 OFFCURVE",
"969.333 309.333 OFFCURVE",
"926 310 CURVE",
"926 348 LINE",
"980.667 348 OFFCURVE",
"1026.833 330 OFFCURVE",
"1064.5 294 CURVE SMOOTH",
"1102.167 258 OFFCURVE",
"1121 214.333 OFFCURVE",
"1121 163 CURVE SMOOTH",
"1121 111.667 OFFCURVE",
"1102.167 68 OFFCURVE",
"1064.5 32 CURVE SMOOTH",
"1026.833 -4 OFFCURVE",
"980.667 -22 OFFCURVE",
"926 -22 CURVE SMOOTH"
);
},
{
closed = 1;
nodes = (
"900 67 OFFCURVE",
"877.5 76.333 OFFCURVE",
"858.5 95 CURVE SMOOTH",
"839.5 113.667 OFFCURVE",
"830 136.333 OFFCURVE",
"830 163 CURVE SMOOTH",
"830 189.667 OFFCURVE",
"839.5 212.333 OFFCURVE",
"858.5 231 CURVE SMOOTH",
"877.5 249.667 OFFCURVE",
"900 259 OFFCURVE",
"926 259 CURVE SMOOTH",
"951.333 259 OFFCURVE",
"973.5 249.667 OFFCURVE",
"992.5 231 CURVE SMOOTH",
"1011.5 212.333 OFFCURVE",
"1021 189.667 OFFCURVE",
"1021 163 CURVE SMOOTH",
"1021 136.333 OFFCURVE",
"1011.5 113.667 OFFCURVE",
"992.5 95 CURVE SMOOTH",
"973.5 76.333 OFFCURVE",
"951.333 67 OFFCURVE",
"926 67 CURVE SMOOTH",
"926 67 LINE SMOOTH"
);
},
{
closed = 1;
nodes = (
"940.667 111 OFFCURVE",
"952.833 116.333 OFFCURVE",
"962.5 127 CURVE SMOOTH",
"972.167 137.667 OFFCURVE",
"977 149.667 OFFCURVE",
"977 163 CURVE SMOOTH",
"977 176.333 OFFCURVE",
"972.167 188.333 OFFCURVE",
"962.5 199 CURVE SMOOTH",
"952.833 209.667 OFFCURVE",
"940.667 215 OFFCURVE",
"926 215 CURVE SMOOTH",
"911.333 215 OFFCURVE",
"899 209.667 OFFCURVE",
"889 199 CURVE SMOOTH",
"879 188.333 OFFCURVE",
"874 176.333 OFFCURVE",
"874 163 CURVE SMOOTH",
"874 149.667 OFFCURVE",
"879 137.667 OFFCURVE",
"889 127 CURVE SMOOTH",
"899 116.333 OFFCURVE",
"911.333 111 OFFCURVE",
"926 111 CURVE",
"926 111 LINE"
);
}
